<?xml version="1.0" standalone="no"?>
<!DOCTYPE svg PUBLIC "-//W3C//DTD SVG 1.1//EN" "http://www.w3.org/Graphics/SVG/1.1/DTD/svg11.dtd" >
<svg>
<metadata>
Created by FontForge 20090914 at Fri Jun 28 01:36:23 2019
 By www-data
Copyright (c) 2014 by Roland Huse. All rights reserved.
</metadata>
<defs>
<font id="WizardOfTheMoon" horiz-adv-x="207" >
  <font-face 
    font-family="Wizard Of The Moon"
    font-weight="400"
    font-stretch="normal"
    units-per-em="1000"
    panose-1="2 0 0 0 0 0 0 0 0 0"
    ascent="800"
    descent="-200"
    x-height="331.997"
    cap-height="587.001"
    bbox="-356.002 -466.998 1077 802.002"
    underline-thickness="50"
    underline-position="-50"
    unicode-range="U+0020-U+0171"
  />
<missing-glyph horiz-adv-x="500" 
 />
    <glyph glyph-name=".notdef" horiz-adv-x="500" 
 />
    <glyph glyph-name="space" unicode=" " horiz-adv-x="414" 
 />
    <glyph glyph-name="exclam" unicode="!" 
d="M156 300l-0.00390625 -7.00293c0 -5.33301 -0.833008 -12.166 -2.5 -20.499s-2.83398 -16.833 -3.50098 -25.5s-0.166992 -16.167 1.5 -22.5s5.83398 -10.166 12.501 -11.499c-2 -3.33301 -5.33301 -8 -10 -14s-10 -12 -16 -18s-12.333 -11.167 -19 -15.5
s-12.667 -6.5 -18 -6.5c-9.33301 0 -17.166 2 -23.499 6s-11.666 8.83301 -15.999 14.5s-7.5 11.667 -9.5 18s-3 12.5 -3 18.5c0 13.333 2.83301 27.166 8.5 41.499s9.5 28.166 11.5 41.499c4.66699 18 9.33398 39.333 14.001 64s8.83398 49 12.501 73
s6.66699 45.833 9 65.5s3.5 33.834 3.5 42.501c0 6 -1.33301 11.333 -4 16s-5.83398 8.83398 -9.50098 12.501s-7.5 7.16699 -11.5 10.5s-7 7 -9 11c2.66699 2 8.16699 5.66699 16.5 11s18 10.333 29 15s23 8.16699 36 10.5s25.5 1.83301 37.5 -1.5
c8.66699 -2 16.334 -9.33301 23.001 -22s8 -29 4 -49c-10.667 -49.333 -22.5 -95.666 -35.5 -138.999s-22.5 -83 -28.5 -119zM162.996 28.9971c2.66699 -1.33301 1.16699 -3.50293 -4.5 -6.50293s-13 -6 -22 -9s-18 -5.66699 -27 -8s-15.833 -3.5 -20.5 -3.5
c-20 -1.33301 -32.5 2.66699 -37.5 12s-7 19.833 -6 31.5s2.16699 22.334 3.5 32.001s-1.66699 14.167 -9 13.5c9.33301 2.66699 18.666 5.16699 27.999 7.5s18.333 5.5 27 9.5c4 1.33301 7.83301 2.83301 11.5 4.5s7.83398 2.83398 12.501 3.50098
c13.333 0.666992 21 -2.33301 23 -9s2.5 -14.667 1.5 -24s-1 -19.166 0 -29.499s7.5 -18.5 19.5 -24.5z" />
    <glyph glyph-name="quotedbl" unicode="&#x22;" horiz-adv-x="362" 
d="M196 392c6 32 11.334 65 16.001 99s12.667 63.667 24 89c4 9.33301 9.5 17.166 16.5 23.499s14.667 12 23 17s16.833 9.66699 25.5 14s17 9.16602 25 14.499l9 -12l-17.5 -91.5c-5.66699 -30.333 -12.5 -60.166 -20.5 -89.499
c-2.66699 -9.33301 -8.33398 -16.833 -17.001 -22.5s-16.667 -11.167 -24 -16.5c-8 -6 -16.167 -11.667 -24.5 -17l-25.5 -16c-2.66699 2.66699 -6 5.33398 -10 8.00098zM196.001 599c2.66699 -31.333 0.831055 -62.334 -5.50195 -93.001s-15.5 -58.5 -27.5 -83.5
s-26.5 -45.667 -43.5 -62s-34.833 -25.5 -53.5 -27.5c4 20.667 8.66699 40.334 14 59.001s8.33301 37.334 9 56.001c0.666992 42 8.33398 72.667 23.001 92s33.334 33.666 56.001 42.999c4 2 8.33301 4.33301 13 7z" />
    <glyph glyph-name="ampersand" unicode="&#x26;" horiz-adv-x="524" 
d="M285 50l-34.5049 33.001c-11 10.667 -20.667 21.5 -29 32.5s-15.166 21.833 -20.499 32.5s-8 21.667 -8 33c0 13.333 6.66699 28.666 20 45.999s30 33.833 50 49.5s41.833 28.834 65.5 39.501s45.834 16 66.501 16c22 0 42 -7 60 -21s27 -35.667 27 -65
c0 -14 -2.66699 -27.833 -8 -41.5s-12.166 -27.167 -20.499 -40.5s-17.5 -26.5 -27.5 -39.5l-29 -38.5c16 -4.66699 34.333 -7 55 -7c13.333 0 26.666 0.666992 39.999 2s27 3 41 5c-13.333 -12 -25.5 -23.5 -36.5 -34.5s-20.833 -22.167 -29.5 -33.5s-16.5 -23 -23.5 -35
s-13.167 -25.333 -18.5 -40c-0.666992 -1.33301 -1 -3.33301 -1 -6c0 -4 1.16699 -8.5 3.5 -13.5s4.83301 -9.83301 7.5 -14.5l7.5 -13c2.33301 -4 3.5 -7 3.5 -9c0 -3.33301 -3.16699 -7.5 -9.5 -12.5s-13.166 -10 -20.499 -15s-14.333 -9.33301 -21 -13
s-10.334 -5.5 -11.001 -5.5c-5.33301 0 -10.166 2 -14.499 6s-8.16602 8.66699 -11.499 14s-6 11.166 -8 17.499s-3 12.166 -3 17.499c0 9.33301 3.33301 19.833 10 31.5s14.834 24 24.501 37s20.167 26.167 31.5 39.5l31 38c-9.33301 -2.66699 -21 -4 -35 -4h-41
c-7.33301 0 -14.333 0.333008 -21 1s-13.667 1 -21 1c-14 0 -27.333 -3.33301 -40 -10c-19.333 -9.33301 -39.333 -16.666 -60 -21.999s-41.667 -8 -63 -8c-44 -0 -79.167 9.83301 -105.5 29.5s-39.5 44.5 -39.5 74.5c0 16.667 4.33301 33.167 13 49.5
s19.667 31.833 33 46.5s27.833 28.5 43.5 41.5l44.5 36.5l42 37.5c14.667 13.667 28 28.334 40 44.001s22 31.667 30 48s12 32.833 12 49.5c0 5.33301 -1 11.5 -3 18.5s-5 13.667 -9 20s-8.83301 11.666 -14.5 15.999s-12.167 6.5 -19.5 6.5c-5.33301 0 -10 -2 -14 -6
s-7.5 -8.83301 -10.5 -14.5s-5.33301 -11.5 -7 -17.5s-2.5 -11.333 -2.5 -16s1.5 -9.33398 4.5 -14.001s6.16699 -9.33398 9.5 -14.001s6.5 -8.83398 9.5 -12.501s4.5 -6.83398 4.5 -9.50098c0 -4.66699 -2.5 -9 -7.5 -13s-11.167 -7.5 -18.5 -10.5s-15 -5.33301 -23 -7
s-15 -2.5 -21 -2.5c-12.667 0 -22.167 5.16699 -28.5 15.5s-9.5 20.166 -9.5 29.499c0 18 5.33301 33.833 16 47.5s24.167 25.667 40.5 36s34.5 19.5 54.5 27.5s39.333 15.333 58 22c6 2.66699 13 4 21 4c10 0 18.667 -2.5 26 -7.5s13.333 -11.167 18 -18.5
s8.16699 -15.333 10.5 -24s3.5 -16.667 3.5 -24c0 -18.667 -5.83301 -38 -17.5 -58s-26.5 -39.5 -44.5 -58.5s-37.833 -37.333 -59.5 -55s-42.167 -33.5 -61.5 -47.5c-10.667 -7.33301 -21.167 -16.166 -31.5 -26.499s-19.5 -21.166 -27.5 -32.499
s-14.5 -22.666 -19.5 -33.999s-7.5 -21.666 -7.5 -30.999c0 -17.333 4.83301 -32.666 14.5 -45.999s21.834 -24.5 36.501 -33.5s30.667 -15.667 48 -20s33.333 -6.5 48 -6.5c13.333 0 27.666 3.33301 42.999 10zM265.995 227.001c0 -50 25.334 -90.333 76.001 -121
c11.333 -8.66699 20.666 -13 27.999 -13c4.66699 0 9.5 3.5 14.5 10.5s9.66699 15.5 14 25.5s7.83301 20.333 10.5 31s4 20 4 28c0 10 -0.666992 20.667 -2 32s-3.83301 22.333 -7.5 33s-8.16699 20.5 -13.5 29.5s-12 15.833 -20 20.5c-8.66699 2.66699 -19 3 -31 1
s-23.5 -6 -34.5 -12s-20.167 -14.5 -27.5 -25.5s-11 -24.167 -11 -39.5z" />
    <glyph glyph-name="quotesingle" unicode="'" horiz-adv-x="282" 
d="M196 599c2.66699 -31.333 0.831055 -62.334 -5.50195 -93.001s-15.5 -58.5 -27.5 -83.5s-26.5 -45.667 -43.5 -62s-34.833 -25.5 -53.5 -27.5c4 20.667 8.66699 40.334 14 59.001s8.33301 37.334 9 56.001c0.666992 42 8.33398 72.667 23.001 92
s33.334 33.666 56.001 42.999c4 2 8.33301 4.33301 13 7z" />
    <glyph glyph-name="parenleft" unicode="(" horiz-adv-x="391" 
d="M397 559l-30.001 -19.998c-10 -6.66699 -20.333 -13 -31 -19c-30 -17.333 -56.833 -37.5 -80.5 -60.5s-46.167 -47.833 -67.5 -74.5c-19.333 -23.333 -35.166 -48 -47.499 -74s-20.166 -54.333 -23.499 -85s-2.83301 -61 1.5 -91s12.833 -59.333 25.5 -88
c5.33301 -10.667 11.833 -20.834 19.5 -30.501l22.5 -28.5c5.33301 -6 8.16602 -11.167 8.49902 -15.5s-3.5 -8.83301 -11.5 -13.5c-4.66699 -2.66699 -9 -5.33398 -13 -8.00098s-8 -5.66699 -12 -9c-8.66699 -6 -15.5 -10.5 -20.5 -13.5s-9.5 -4.33301 -13.5 -4
s-8 2.66602 -12 6.99902s-9.33301 10.833 -16 19.5c-25.333 32 -41.666 66.333 -48.999 103s-10 74.334 -8 113.001c2.66699 46 14.5 87.5 35.5 124.5s46.5 72.167 76.5 105.5c32 35.333 67.167 65.833 105.5 91.5s77.833 50.167 118.5 73.5
c2.66699 1.33301 5.33398 2.33301 8.00098 3s5.66699 1.66699 9 3c1.33301 -1.33301 2.16602 -2.83301 2.49902 -4.5s1.16602 -3.16699 2.49902 -4.5z" />
    <glyph glyph-name="parenright" unicode=")" horiz-adv-x="379" 
d="M-7 -70c7.33301 4.66699 14.334 9.49707 21.001 14.4971s13.667 9.83301 21 14.5c47.333 28.667 89.5 61.667 126.5 99s64.5 82.666 82.5 135.999c8.66699 24.667 15.334 49.834 20.001 75.501s1 51.834 -11 78.501c-11.333 23.333 -24.5 45.333 -39.5 66
s-32.167 39.667 -51.5 57c-12 11.333 -24.5 21.833 -37.5 31.5l-40.5 31.5l34 16c11.333 5.33301 23 10 35 14c3.33301 1.33301 7.33301 0.833008 12 -1.5s8.66699 -5.16602 12 -8.49902c11.333 -9.33301 22.166 -19.166 32.499 -29.499s21.166 -20.5 32.499 -30.5
c18.667 -17.333 34.334 -36 47.001 -56s23.667 -41.333 33 -64c6 -14.667 9.5 -29.167 10.5 -43.5s0.166992 -28.5 -2.5 -42.5s-6.33398 -27.833 -11.001 -41.5l-14 -40.5c-10.667 -28.667 -26.167 -54.167 -46.5 -76.5l-62.5 -65.5c-28 -28.667 -58.833 -53.5 -92.5 -74.5
l-100.5 -64.5c-0.666992 -0.666992 -3 -1 -7 -1z" />
    <glyph glyph-name="asterisk" unicode="*" horiz-adv-x="478" 
d="M185 321c-3.33301 18 -2.33301 34.8301 3 50.4971s13.333 29 24 40s23.5 19 38.5 24s30.5 6.16699 46.5 3.5c6 -1.33301 10 -4.66602 12 -9.99902c2.66699 -4.66699 3.5 -11.167 2.5 -19.5s-3.16699 -16.666 -6.5 -24.999s-7.5 -15.833 -12.5 -22.5
s-10.167 -11 -15.5 -13l-45.5 -13.5c-15 -4.33301 -30.5 -9.16602 -46.5 -14.499zM304 581.997c4 -13.333 6.83105 -24.1689 8.49805 -32.502s1.5 -15.5 -0.5 -21.5s-6.16699 -11 -12.5 -15s-15.166 -8.33301 -26.499 -13c-13.333 -5.33301 -26.833 -10.166 -40.5 -14.499
l-41.5 -13.5c-3.33301 14.667 -5.5 26.5 -6.5 35.5s-0.5 16.167 1.5 21.5s6.16699 9.83301 12.5 13.5s15.5 7.83398 27.5 12.501c12.667 5.33301 25.334 9.83301 38.001 13.5s26 8.16699 40 13.5zM49.998 374.994c-14 38 -4.33105 61.333 29.002 70
c26.667 7.33301 54 16.333 82 27c3.33301 -12 5.66602 -21.833 6.99902 -29.5s0.833008 -13.834 -1.5 -18.501s-6.33301 -8.66699 -12 -12s-13.834 -6.66602 -24.501 -9.99902l-39.5 -13.5zM317 445.994c-2.66699 11.333 -4.33301 20.333 -5 27s0.166016 12 2.49902 16
s6.5 7.16699 12.5 9.5s14.333 4.83301 25 7.5c14 3.33301 27.833 6.33301 41.5 9s27.834 5.66699 42.501 9c2 -13.333 2.83301 -24 2.5 -32s-2 -14.167 -5 -18.5s-7.83301 -7.83301 -14.5 -10.5s-15.667 -5 -27 -7l-69 -12c-1.33301 0 -2.33301 0.333008 -3 1
s-1.66699 1 -3 1z" />
    <glyph glyph-name="comma" unicode="," 
d="M150 115c2.66699 -31.333 0.831055 -62.334 -5.50195 -93.001s-15.5 -58.5 -27.5 -83.5s-26.5 -45.667 -43.5 -62s-34.833 -25.5 -53.5 -27.5c4 20.667 8.66699 40.334 14 59.001s8.33301 37.334 9 56.001c0.666992 42 8.33398 72.667 23.001 92
s33.334 33.666 56.001 42.999c4 2 8.33301 4.33301 13 7z" />
    <glyph glyph-name="period" unicode="." 
d="M163 29c2.66699 -1.33301 1.16699 -3.50293 -4.5 -6.50293s-13 -6 -22 -9s-18 -5.66699 -27 -8s-15.833 -3.5 -20.5 -3.5c-20 -1.33301 -32.5 2.66699 -37.5 12s-7 19.833 -6 31.5s2.16699 22.334 3.5 32.001s-1.66699 14.167 -9 13.5
c9.33301 2.66699 18.666 5.16699 27.999 7.5s18.333 5.5 27 9.5c4 1.33301 7.83301 2.83301 11.5 4.5s7.83398 2.83398 12.501 3.50098c13.333 0.666992 21 -2.33301 23 -9s2.5 -14.667 1.5 -24s-1 -19.166 0 -29.499s7.5 -18.5 19.5 -24.5z" />
    <glyph glyph-name="zero" unicode="0" horiz-adv-x="480" 
d="M349 564c-8 -7.33301 -15.8301 -14.9951 -23.4971 -22.9951s-15.834 -14.667 -24.501 -20c-37.333 -23.333 -70.333 -50.5 -99 -81.5s-50.667 -66.5 -66 -106.5c-6.66699 -16 -12.334 -32.5 -17.001 -49.5s-7.33398 -34.333 -8.00098 -52s1 -35.334 5 -53.001
s11.667 -35.167 23 -52.5c8.66699 -14 18.834 -24.667 30.501 -32s23.834 -11.333 36.501 -12s25.5 1.83301 38.5 7.5s25.167 14.167 36.5 25.5c42 44 69.167 91.5 81.5 142.5s10.5 105.5 -5.5 163.5c-3.33301 12 -6.66602 21.667 -9.99902 29
s-7.66602 13.166 -12.999 17.499s-11.833 7 -19.5 8s-17.5 0.833008 -29.5 -0.5c15.333 16 30.5 30 45.5 42s32.167 20.667 51.5 26c12.667 3.33301 24.667 1.66602 36 -5.00098s18.666 -16.667 21.999 -30c15.333 -54.667 20.166 -107.834 14.499 -159.501
s-25.834 -100.834 -60.501 -147.501c-18 -24 -37.667 -46.833 -59 -68.5s-43 -42.5 -65 -62.5c-13.333 -12.667 -27.833 -23.5 -43.5 -32.5s-31.5 -17.167 -47.5 -24.5c-15.333 -7.33301 -31 -10.5 -47 -9.5s-31 5.16699 -45 12.5s-26.333 17.5 -37 30.5
s-18 28.167 -22 45.5c-15.333 65.333 -15.666 126.5 -0.999023 183.5s45.667 110.5 93 160.5c23.333 24 48.5 45.167 75.5 63.5l81.5 54.5c9.33301 6 19.5 10.5 30.5 13.5s22.167 6.5 33.5 10.5c1.33301 -2 2.66602 -4.33301 3.99902 -7s2.66602 -5 3.99902 -7z" />
    <glyph glyph-name="one" unicode="1" horiz-adv-x="209" 
d="M88 517c-4 0 -10.1689 -0.833984 -18.502 -2.50098s-13.833 -2.83398 -16.5 -3.50098l-4 8c14 6.66699 30.667 13.834 50 21.501s36.666 15.167 51.999 22.5l30 8c-2 -20 -5.16699 -39 -9.5 -57s-6.5 -35.667 -6.5 -53v-4c-9.33301 -68 -18.166 -135.5 -26.499 -202.5
s-16.166 -134.167 -23.499 -201.5c-1.33301 -8 -5.33301 -14.667 -12 -20s-14.667 -10 -24 -14s-19.333 -7.5 -30 -10.5l-29 -8.5c2.66699 24 5.33398 46.333 8.00098 67s5.5 40.5 8.5 59.5l9 56.5c3 18.667 5.83301 38.334 8.5 59.001l16.5 136.5z" />
    <glyph glyph-name="two" unicode="2" horiz-adv-x="424" 
d="M116 77l35.9951 12.0039c12 4 24 7.33301 36 10c15.333 4 30.5 5.16699 45.5 3.5s29.167 -8.16699 42.5 -19.5l55.5 -47.5c19 -15.667 37.167 -32.167 54.5 -49.5c49.333 -51.333 107.333 -64.666 174 -39.999c2.66699 0.666992 4.83398 1.16699 6.50098 1.5
s3.83398 0.833008 6.50098 1.5c-6 -4.66699 -13.333 -9.83398 -22 -15.501s-17.834 -10.834 -27.501 -15.501s-19.667 -8.83398 -30 -12.501s-20.166 -5.83398 -29.499 -6.50098c-10 -6.66699 -20.833 -8.5 -32.5 -5.5s-22.5 4.16699 -32.5 3.5
c-11.333 -1.33301 -21.833 0.666992 -31.5 6s-19.167 12.333 -28.5 21c-25.333 21.333 -51 41.833 -77 61.5s-53 37.5 -81 53.5c-20 12 -40.5 15.667 -61.5 11s-40.833 -13.334 -59.5 -26.001c-7.33301 -5.33301 -15.166 -10.5 -23.499 -15.5s-17.166 -9.5 -26.499 -13.5
l77 124l78 124c21.333 32.667 39.833 65.834 55.5 99.501s27.5 69.5 35.5 107.5c2.66699 14 3.16699 25.333 1.5 34s-4.5 15.334 -8.5 20.001s-8.66699 7.5 -14 8.5s-10 0.5 -14 -1.5c-8 1.33301 -16.667 0 -26 -4s-18.666 -7.33301 -27.999 -10
c19.333 15.333 39.166 29.166 59.499 41.499s42.833 21.5 67.5 27.5c4 0.666992 8.33301 -0.333008 13 -3s9 -6.5 13 -11.5s7.5 -10.333 10.5 -16s4.5 -11.167 4.5 -16.5c0 -21.333 -3 -42 -9 -62c-12 -41.333 -29 -79.833 -51 -115.5s-45 -70.834 -69 -105.501
c-17.333 -24.667 -33.666 -50 -48.999 -76s-31.333 -51.667 -48 -77c1.33301 -1.33301 2.5 -2.33301 3.5 -3s2.16699 -1.66699 3.5 -3z" />
    <glyph glyph-name="three" unicode="3" horiz-adv-x="402" 
d="M69 390l22.999 24.9971c6.66699 7.33301 12.667 14.666 18 21.999c3.33301 4 4.66602 8.83301 3.99902 14.5s-0.666992 11.167 0 16.5c-5.33301 0 -10.666 0.333008 -15.999 1s-10.333 0.333984 -15 -0.999023c-9.33301 -3.33301 -18.666 -7 -27.999 -11l-28 -12
c-0.666992 2 -1.5 3.66699 -2.5 5s-2.16699 3 -3.5 5c7.33301 5.33301 14.333 10.833 21 16.5s13.667 11.167 21 16.5l35 22c11.333 7.33301 23.666 13.666 36.999 18.999c8 2.66699 17.333 3.83398 28 3.50098s19.667 -2.5 27 -6.5
c4.66699 -3.33301 7.33398 -9.66602 8.00098 -18.999s1.66699 -17.666 3 -24.999c0 -2.66699 -0.333008 -4.83398 -1 -6.50098s-1.33398 -4.16699 -2.00098 -7.5c5.33301 -0.666992 9.83301 -1.33398 13.5 -2.00098s7.5 -0.666992 11.5 0
c23.333 3.33301 42.833 -0.5 58.5 -11.5s29.5 -24.5 41.5 -40.5c12.667 -17.333 23.5 -34.666 32.5 -51.999s15.5 -36.333 19.5 -57c3.33301 -28 3 -55.167 -1 -81.5s-10 -51 -18 -74s-17.333 -43.833 -28 -62.5s-21 -34.334 -31 -47.001c-16 -20.667 -33.667 -39 -53 -55
s-40 -30.167 -62 -42.5s-44.667 -23.666 -68 -33.999l-70 -30.5c-14 -6 -29.667 -9.66699 -47 -11s-34 2.66699 -50 12c-13.333 7.33301 -20.333 14 -21 20s5 13 17 21c6.66699 5.33301 13.334 10 20.001 14l21 13c2 1.33301 3.83301 2.33301 5.5 3s3.5 1.66699 5.5 3
c3.33301 -14.667 7.5 -24.167 12.5 -28.5s14.833 -6.5 29.5 -6.5c30 0 56.667 3.66699 80 11s43.833 18 61.5 32s33.167 30.833 46.5 50.5s25.666 41.5 36.999 65.5c16.667 48.667 26.667 90.334 30 125.001s2.5 64.334 -2.5 89.001s-13.5 45.5 -25.5 62.5
s-25 31.833 -39 44.5c-8 7.33301 -19 11.666 -33 12.999s-26.667 0 -38 -4c-9.33301 -3.33301 -19 -6.16602 -29 -8.49902s-19.667 -5.16602 -29 -8.49902c-4 -0.666992 -8.16699 -0.833984 -12.5 -0.500977s-9.16602 0.5 -14.499 0.5z" />
    <glyph glyph-name="four" unicode="4" horiz-adv-x="314" 
d="M73 584c-4 0 -10.168 -0.833008 -18.501 -2.5s-13.833 -2.83398 -16.5 -3.50098l-4 8c14 6.66699 30.667 13.834 50 21.501s36.666 15.167 51.999 22.5l30 8c-2 -20 -5.16699 -39 -9.5 -57s-6.5 -35.667 -6.5 -53v-4l-22 -82c-1.33301 -6 -3 -10 -5 -12
c15.333 4.66699 31.333 9 48 13l47 11c14.667 3.33301 27.5 6.5 38.5 9.5s19.167 5.5 24.5 7.5c4.66699 2 7.83398 0.5 9.50098 -4.5s2.33398 -11.667 2.00098 -20s-1.16602 -17.166 -2.49902 -26.499s-3 -17.666 -5 -24.999c-0.666992 -2 -1.83398 -8 -3.50098 -18l-6 -37
l-7.5 -48l-8 -51.5l-7.5 -46.5l-5.5 -33c-1.33301 -8.66699 -3.66602 -18.667 -6.99902 -30s-7.83301 -22.333 -13.5 -33s-12.334 -20 -20.001 -28s-16.5 -12.333 -26.5 -13c-18 -2 -30.333 -2 -37 0c-4 0.666992 -7.33301 2 -10 4c4.66699 9.33301 9 18.666 13 27.999
l10.5 25.5c3.66699 9 6.16699 17.167 7.5 24.5c1.33301 6.66699 3.16602 17.334 5.49902 32.001l7.5 49.5l8.5 57l8.5 54.5c2.66699 16.667 4.83398 30.667 6.50098 42s2.83398 17.666 3.50098 18.999c1.33301 4.66699 2.16602 11.167 2.49902 19.5
s-0.166992 13.833 -1.5 16.5c-0.666992 0.666992 -7.66699 -0.333008 -21 -3s-28.833 -6.33398 -46.5 -11.001l-53 -13.5c-17.667 -4.33301 -31.167 -7.5 -40.5 -9.5l-11 -3v2h-1c-2.66699 0.666992 -3.16699 2.16699 -1.5 4.5l4.5 6.5z" />
    <glyph glyph-name="five" unicode="5" horiz-adv-x="396" 
d="M207 454c8 0.666992 16.3291 0.333008 24.9961 -1s17.334 -3.5 26.001 -6.5s16.667 -6.66699 24 -11s13.333 -8.5 18 -12.5l40 -42c7.33301 -12 12 -23.167 14 -33.5s4.66699 -22.5 8 -36.5c3.33301 -28 3 -55.167 -1 -81.5s-10 -51 -18 -74s-17.333 -43.833 -28 -62.5
s-21 -34.334 -31 -47.001c-16 -20.667 -33.667 -39 -53 -55s-40 -30.167 -62 -42.5s-44.667 -23.666 -68 -33.999l-70 -30.5c-14 -6 -29.667 -9.66699 -47 -11s-34 2.66699 -50 12c-13.333 7.33301 -20.333 14 -21 20s5 13 17 21c6.66699 5.33301 13.334 10 20.001 14l21 13
c2 1.33301 3.83301 2.33301 5.5 3s3.5 1.66699 5.5 3c3.33301 -14.667 7.5 -24.167 12.5 -28.5s14.833 -6.5 29.5 -6.5c30 0 56.667 3.66699 80 11s43.833 18 61.5 32s33.167 30.833 46.5 50.5s25.666 41.5 36.999 65.5c16.667 48.667 26.667 90.334 30 125.001
s2.5 64.334 -2.5 89.001s-13.5 45.5 -25.5 62.5s-25 31.833 -39 44.5c-8 7.33301 -19 11.666 -33 12.999s-26.667 0 -38 -4l-58 -17c-2 -0.666992 -5.33301 -1 -10 -1c-3.33301 -0.666992 -6.16602 -1.33398 -8.49902 -2.00098s-4.16602 -1.33398 -5.49902 -2.00098
c-4 -2 -8.66699 -3.5 -14 -4.5s-12.333 -2.5 -21 -4.5l58 161l201 57c11.333 -4 16.833 -7.83301 16.5 -11.5s-4.33301 -7.16699 -12 -10.5s-17.667 -6.33301 -30 -9s-24.166 -4.83398 -35.499 -6.50098l-29.5 -4.5c-8.33301 -1.33301 -12.5 -2.33301 -12.5 -3
c-10.667 -6.66699 -18.5 -14.667 -23.5 -24s-9 -19.166 -12 -29.499s-6 -21.333 -9 -33s-7.5 -22.834 -13.5 -33.501c4 0.666992 7.5 1.33398 10.5 2.00098s6.16699 1.33398 9.5 2.00098z" />
    <glyph glyph-name="six" unicode="6" horiz-adv-x="357" 
d="M354 571c-4 -3.33301 -8.16699 -6.99707 -12.5 -10.9971s-8.83301 -7 -13.5 -9c-18 -8 -34.333 -17.667 -49 -29s-28.167 -23.833 -40.5 -37.5s-23.833 -28.167 -34.5 -43.5l-32 -46c-20.667 -30 -37.667 -61 -51 -93s-22.666 -66 -27.999 -102
c-1.33301 -15.333 -1.16602 -30.333 0.500977 -45s4.16699 -29.334 7.5 -44.001c4 -18 12.167 -30.667 24.5 -38s29.833 -10.666 52.5 -9.99902c9.33301 0 18.166 0.5 26.499 1.5s17.166 1.83301 26.499 2.5c-5.33301 -10.667 -13.166 -20.334 -23.499 -29.001
s-22 -15.834 -35 -21.501s-26.833 -9.66699 -41.5 -12s-28.667 -2.5 -42 -0.5c-20 3.33301 -35.5 10 -46.5 20s-17.833 25.333 -20.5 46c-1.33301 13.333 -2.5 27.333 -3.5 42s0.166992 28.667 3.5 42c14 66.667 36.333 128.5 67 185.5s72.334 108.167 125.001 153.5
c18.667 16 38.667 30.167 60 42.5s42.333 25.166 63 38.499c1.33301 1.33301 3.16602 2 5.49902 2s4.16602 0.333008 5.49902 1zM175 202.003c8 4 14.832 7.00195 20.499 9.00195s10.834 3.16699 15.501 3.5s9.33398 -0.333984 14.001 -2.00098s10 -4.5 16 -8.5
s10.833 -10.167 14.5 -18.5s6 -17.166 7 -26.499s0.833008 -18.5 -0.5 -27.5s-3.33301 -16.5 -6 -22.5c-6 -11.333 -5.83301 -16.5 0.5 -15.5s14.166 6.16699 23.499 15.5c4.66699 4.66699 10.334 13.167 17.001 25.5s12.167 25.833 16.5 40.5s6.16602 29.167 5.49902 43.5
s-5.66699 26.166 -15 35.499c-9.33301 8.66699 -23 12.667 -41 12s-36 -5.16699 -54 -13.5s-33.833 -19.5 -47.5 -33.5s-21.5 -30 -23.5 -48s-2.66699 -27.167 -2 -27.5s2.5 3.16699 5.5 10.5s7.33301 16.166 13 26.499s12.5 17.5 20.5 21.5z" />
    <glyph glyph-name="seven" unicode="7" horiz-adv-x="300" 
d="M24 -66l10.0029 49.502l10 49.5c7.33301 37.333 14.166 74.666 20.499 111.999s14.166 74.333 23.499 111c12 44.667 28.667 87.167 50 127.5s49.666 77.5 84.999 111.5c-14.667 2.66699 -28.667 4.5 -42 5.5s-26.333 3.83301 -39 8.5c-23.333 8 -45.333 11 -66 9
s-41 -11.333 -61 -28l-3 9l30.5 21.5l31.5 21.5c24 17.333 48.333 26.5 73 27.5s51 -3.83301 79 -14.5c13.333 -5.33301 28 -8.16602 44 -8.49902s32 -1.16602 48 -2.49902c-1.33301 -2.66699 -3 -5.5 -5 -8.5s-4.66699 -5.83301 -8 -8.5
c-29.333 -25.333 -53 -54.5 -71 -87.5s-34.333 -66.833 -49 -101.5c-18 -40.667 -31 -82.334 -39 -125.001s-15 -85.667 -21 -129c-2 -14 -4.33301 -28 -7 -42l-8 -42c-1.33301 -7.33301 -4 -13 -8 -17l-72 -54c-1.33301 1.33301 -2.33301 2.16602 -3 2.49902
s-1.66699 1.16602 -3 2.49902z" />
    <glyph glyph-name="eight" unicode="8" horiz-adv-x="400" 
d="M254 49c-16 -9.33301 -32.167 -19.334 -48.5 -30.001s-32.5 -16.667 -48.5 -18l-10 -1c-18.667 -1.33301 -33.667 -1.33301 -45 0s-20.333 3.83301 -27 7.5s-12.167 8.33398 -16.5 14.001s-8.83301 12.5 -13.5 20.5c-2.66699 4.66699 -4.66699 11 -6 19
s-2.33301 16.333 -3 25c-0.666992 9.33301 -0.833984 18 -0.500977 26s1.16602 14 2.49902 18c4.66699 18 10.334 34.167 17.001 48.5s15 28.5 25 42.5s22.5 28 37.5 42s33.833 29.333 56.5 46c0.666992 0.666992 1.33398 1 2.00098 1l3 3l5 2l14 14
c3.33301 3.33301 4.66602 7 3.99902 11c0 2.66699 -2.66699 7.5 -8 14.5l-18 24c-6.66699 9 -12.667 18.167 -18 27.5s-8.33301 17.666 -9 24.999c-1.33301 14.667 3.66699 28.5 15 41.5s25.833 25.5 43.5 37.5s36.834 23.167 57.501 33.5s39.667 20.5 57 30.5
c0.666992 0 1.33398 0.333008 2.00098 1s1.66699 1 3 1c6.66699 0.666992 12 -0.5 16 -3.5s7.66699 -6.5 11 -10.5c2.66699 -3.33301 5.16699 -9.16602 7.5 -17.499s3.83301 -16.5 4.5 -24.5c0 -9.33301 -1 -16 -3 -20l-11 -21l-19.5 -23c-7 -8 -13.5 -15.833 -19.5 -23.5
s-10.833 -14.667 -14.5 -21s-5.5 -11.166 -5.5 -14.499c0 -7.33301 4.33301 -15 13 -23c39.333 -37.333 60.666 -83.333 63.999 -138c1.33301 -21.333 -0.166992 -39.833 -4.5 -55.5s-11.5 -30.5 -21.5 -44.5s-22.5 -27.833 -37.5 -41.5s-32.5 -28.834 -52.5 -45.501z
M254 48.999c1.33301 2 1.66602 4.16895 0.999023 6.50195s-0.333984 4.16602 0.999023 5.49902c20 17.333 32.5 37.833 37.5 61.5s6.83301 46.5 5.5 68.5c-1.33301 26.667 -8.66602 51.334 -21.999 74.001s-31 43.667 -53 63c-1.33301 0.666992 -4.33301 1 -9 1
c-6.66699 0 -11 -1.66699 -13 -5c-20 -18.667 -38.667 -38 -56 -58s-29 -44 -35 -72c-4.66699 -18.667 -8.5 -35.334 -11.5 -50.001s-3.83301 -30 -2.5 -46c0.666992 -10 2.33398 -19.5 5.00098 -28.5s6.83398 -16.833 12.501 -23.5s13.167 -12 22.5 -16
s20.666 -5.66699 33.999 -5c10.667 1.33301 23.5 4.66602 38.5 9.99902s29.833 10 44.5 14zM248 530.001c-16 -11.333 -23.332 -27.333 -21.999 -48c1.33301 -24.667 16 -46 44 -64c11.333 20 16.666 38.333 15.999 55c-2 22.667 -14.667 41.667 -38 57z" />
    <glyph glyph-name="nine" unicode="9" horiz-adv-x="357" 
d="M-40 -101c4 3.33301 8.16504 6.99609 12.498 10.9961s8.83301 7 13.5 9c18 8 37.667 21 59 39s41.833 38.5 61.5 61.5s37.834 47.167 54.501 72.5s29.667 49.333 39 72c20.667 30 37.334 63.333 50.001 100s21.667 73 27 109c1.33301 15.333 1.16602 30.333 -0.500977 45
s-4.16699 29.334 -7.5 44.001c-4 18 -12.167 30.667 -24.5 38s-29.833 10.666 -52.5 9.99902c-9.33301 0 -18.166 -0.5 -26.499 -1.5s-17.166 -1.83301 -26.499 -2.5c5.33301 10.667 13.166 20.334 23.499 29.001s22 15.834 35 21.501s26.833 9.66699 41.5 12
s28.667 2.5 42 0.5c20 -3.33301 35.5 -10 46.5 -20s17.833 -25.333 20.5 -46c1.33301 -13.333 2.5 -27.333 3.5 -42s-0.166992 -28.667 -3.5 -42c-7.33301 -33.333 -19.333 -70.833 -36 -112.5s-36.334 -83.167 -59.001 -124.5s-47.334 -80.166 -74.001 -116.499
s-53 -65.833 -79 -88.5c-18.667 -16 -38.667 -30.167 -60 -42.5s-42.333 -25.166 -63 -38.499c-1.33301 -1.33301 -3.16602 -2 -5.49902 -2s-4.16602 -0.333008 -5.49902 -1zM194.998 370.996c-8 -4 -14.832 -6.99902 -20.499 -8.99902s-10.834 -3.16699 -15.501 -3.5
s-9.33398 0.333984 -14.001 2.00098s-10 4.5 -16 8.5s-10.833 10.167 -14.5 18.5s-6 17.166 -7 26.499s-1 18.5 0 27.5s3.16699 16.5 6.5 22.5c6 11.333 5.83301 16.5 -0.5 15.5s-14.166 -6.16699 -23.499 -15.5c-4.66699 -4.66699 -10.334 -13.167 -17.001 -25.5
s-12.167 -25.833 -16.5 -40.5s-6.16602 -29.334 -5.49902 -44.001s5.66699 -26.334 15 -35.001c9.33301 -9.33301 23 -13.5 41 -12.5s36 5.66699 54 14s33.833 19.5 47.5 33.5s21.5 30 23.5 48s2.66699 27.167 2 27.5s-2.5 -3.16699 -5.5 -10.5
s-7.33301 -16.166 -13 -26.499s-12.5 -17.5 -20.5 -21.5z" />
    <glyph glyph-name="colon" unicode=":" 
d="M163 29c2.66699 -1.33301 1.16699 -3.50293 -4.5 -6.50293s-13 -6 -22 -9s-18 -5.66699 -27 -8s-15.833 -3.5 -20.5 -3.5c-20 -1.33301 -32.5 2.66699 -37.5 12s-7 19.833 -6 31.5s2.16699 22.334 3.5 32.001s-1.66699 14.167 -9 13.5
c9.33301 2.66699 18.666 5.16699 27.999 7.5s18.333 5.5 27 9.5c4 1.33301 7.83301 2.83301 11.5 4.5s7.83398 2.83398 12.501 3.50098c13.333 0.666992 21 -2.33301 23 -9s2.5 -14.667 1.5 -24s-1 -19.166 0 -29.499s7.5 -18.5 19.5 -24.5zM169 242.997
c2.66699 -1.33301 1.16699 -3.50293 -4.5 -6.50293s-13 -6 -22 -9s-18 -5.66699 -27 -8s-15.833 -3.5 -20.5 -3.5c-20 -1.33301 -32.5 2.66699 -37.5 12s-7 19.833 -6 31.5s2.16699 22.334 3.5 32.001s-1.66699 14.167 -9 13.5c9.33301 2.66699 18.666 5.16699 27.999 7.5
s18.333 5.5 27 9.5c4 1.33301 7.83301 2.83301 11.5 4.5s7.83398 2.83398 12.501 3.50098c13.333 0.666992 21 -2.33301 23 -9s2.5 -14.667 1.5 -24s-1 -19.166 0 -29.499s7.5 -18.5 19.5 -24.5z" />
    <glyph glyph-name="semicolon" unicode=";" 
d="M169 243c2.66699 -1.33301 1.16699 -3.50293 -4.5 -6.50293s-13 -6 -22 -9s-18 -5.66699 -27 -8s-15.833 -3.5 -20.5 -3.5c-20 -1.33301 -32.5 2.66699 -37.5 12s-7 19.833 -6 31.5s2.16699 22.334 3.5 32.001s-1.66699 14.167 -9 13.5
c9.33301 2.66699 18.666 5.16699 27.999 7.5s18.333 5.5 27 9.5c4 1.33301 7.83301 2.83301 11.5 4.5s7.83398 2.83398 12.501 3.50098c13.333 0.666992 21 -2.33301 23 -9s2.5 -14.667 1.5 -24s-1 -19.166 0 -29.499s7.5 -18.5 19.5 -24.5zM150 114.997
c2.66699 -31.333 0.831055 -62.334 -5.50195 -93.001s-15.5 -58.5 -27.5 -83.5s-26.5 -45.667 -43.5 -62s-34.833 -25.5 -53.5 -27.5c4 20.667 8.66699 40.334 14 59.001s8.33301 37.334 9 56.001c0.666992 42 8.33398 72.667 23.001 92s33.334 33.666 56.001 42.999
c4 2 8.33301 4.33301 13 7z" />
    <glyph glyph-name="question" unicode="?" horiz-adv-x="491" 
d="M284 29c0 -0.666992 -3.16699 -2.33008 -9.5 -4.99707l-22 -9c-8.33301 -3.33301 -16.5 -6.33301 -24.5 -9s-14 -4 -18 -4h-7c-15.333 0 -25.333 3.66699 -30 11s-7 15.666 -7 24.999c0 7.33301 0.666992 14.833 2 22.5s2 14.167 2 19.5c0 7.33301 -2.33301 11 -7 11h-2
c14 3.33301 28.167 8 42.5 14s26.5 9.66699 36.5 11h3c9.33301 0 15.333 -2 18 -6s4 -9.33301 4 -16c0 -4 -0.166992 -8.33301 -0.5 -13s-0.5 -9.33398 -0.5 -14.001c0 -7.33301 1.16699 -14.333 3.5 -21s7.83301 -12.334 16.5 -17.001zM132 442.004
c-4 -5.33301 -9.83203 -10.4971 -17.499 -15.4971s-15.834 -9.33301 -24.501 -13s-17.334 -6.66699 -26.001 -9s-16.334 -3.5 -23.001 -3.5c-13.333 0 -23.166 4.83301 -29.499 14.5s-9.5 20.167 -9.5 31.5c0 18 8.5 34.667 25.5 50s37.667 28.833 62 40.5
s50.5 20.834 78.5 27.501s53 10 75 10h9c27.333 0 53 -2.5 77 -7.5s48.667 -13.833 74 -26.5c9.33301 -4.66699 18.5 -9.5 27.5 -14.5s17.167 -11.5 24.5 -19.5s13.666 -17.833 18.999 -29.5s8.66602 -26.167 9.99902 -43.5c-0.666992 -15.333 -3 -28.5 -7 -39.5
s-9.16699 -20.333 -15.5 -28s-14 -14 -23 -19s-18.5 -9.5 -28.5 -13.5l-129 -55c-11.333 -5.33301 -19.833 -11 -25.5 -17s-10 -11.833 -13 -17.5s-4.66699 -11.167 -5 -16.5s-0.5 -9.66602 -0.5 -12.999c0 -4.66699 0.5 -8.33398 1.5 -11.001s1.5 -5.66699 1.5 -9
c0 -2.66699 -0.833008 -5.33398 -2.5 -8.00098s-5.16699 -5.5 -10.5 -8.5s-12.666 -6.16699 -21.999 -9.5s-21.666 -7 -36.999 -11c0 1.33301 -3.33301 3.66602 -10 6.99902s-10 9.66602 -10 18.999c0 7.33301 3.5 16.666 10.5 27.999s20.833 25.666 41.5 42.999l32.5 21.5
l30 20.5l34.5 25l46 35c12 9.33301 20.667 19.833 26 31.5s8 23.167 8 34.5c0 17.333 -4 33.166 -12 47.499s-18.5 26.5 -31.5 36.5s-27.333 17.833 -43 23.5s-31.5 8.5 -47.5 8.5c-9.33301 0 -21.666 0.166992 -36.999 0.5s-31.5 -1.16699 -48.5 -4.5
s-33.5 -9.16602 -49.5 -17.499s-29 -21.5 -39 -39.5c-1.33301 -2.66699 -2 -6 -2 -10c0 -9.33301 2.5 -17.666 7.5 -24.999s11.5 -11 19.5 -11c4 0 8 1 12 3z" />
    <glyph glyph-name="at" unicode="@" horiz-adv-x="778" 
d="M452 142c-27.333 -21.333 -55.333 -34.665 -84 -39.998s-59 -4.33301 -91 3c-12 2.66699 -22.333 7.83398 -31 15.501s-15.167 16.5 -19.5 26.5s-6.33301 20.5 -6 31.5s3.83301 21.5 10.5 31.5c8.66699 13.333 18.667 25.833 30 37.5s23.333 23.167 36 34.5
c19.333 17.333 39.5 33.666 60.5 48.999s44.833 26.333 71.5 33c18 4.66699 35.5 6.16699 52.5 4.5s33.167 -9.16699 48.5 -22.5c16.667 -14.667 16.334 -28.667 -0.999023 -42c-7.33301 -5.33301 -14.5 -10.833 -21.5 -16.5l-21.5 -17.5c-14.667 -14.667 -29 -13.667 -43 3
c-6 8 -13.5 14.333 -22.5 19s-18.167 7.66699 -27.5 9s-18.5 0.833008 -27.5 -1.5s-16.833 -6.5 -23.5 -12.5c-7.33301 -6 -13.666 -13.667 -18.999 -23s-8 -18.333 -8 -27c-0.666992 -13.333 3.16602 -24.833 11.499 -34.5s19.166 -16.167 32.499 -19.5
c26 -6.66699 51.167 -9 75.5 -7s47.166 13.333 68.499 34c6 6 12.667 11.167 20 15.5s15.666 9.83301 24.999 16.5c-0.666992 -5.33301 -1.16699 -9.5 -1.5 -12.5s-0.5 -6.16699 -0.5 -9.5c1.33301 -23.333 12.666 -37 33.999 -41c20 -4 34.333 3.33301 43 22
c12.667 28 18 55.167 16 81.5s-9 52.5 -21 78.5c-15.333 34.667 -36.833 61.834 -64.5 81.501s-59.5 32.5 -95.5 38.5c-26 5.33301 -51.333 4.66602 -76 -2.00098s-47.667 -16.667 -69 -30c-47.333 -28 -87.333 -62 -120 -102s-53.334 -88 -62.001 -144
c-3.33301 -19.333 -4 -39.333 -2 -60s5.66699 -40.667 11 -60c6 -20.667 15 -37.667 27 -51s25.667 -24 41 -32s31.833 -13.833 49.5 -17.5s35.834 -6.5 54.501 -8.5c43.333 -4.66699 85.333 -3 126 5s80 23 118 45c11.333 6.66699 22 14 32 22s20.333 15.667 31 23
c6.66699 5.33301 13.334 10.166 20.001 14.499s14.334 8.16602 23.001 11.499c-2 -2.66699 -3.66699 -5.66699 -5 -9s-3.66602 -6 -6.99902 -8c-33.333 -24 -66.5 -49.333 -99.5 -76s-67.833 -48.334 -104.5 -65.001c-44.667 -20.667 -91.334 -33 -140.001 -37
s-97.667 1.66699 -147 17c-36 11.333 -63.5 31 -82.5 59s-29.167 63.333 -30.5 106c-1.33301 33.333 2.33398 65 11.001 95s22.667 58.333 42 85c42.667 58.667 90.667 110.167 144 154.5s114.333 79.833 183 106.5c34.667 13.333 68.667 19.833 102 19.5
s67 -9.83301 101 -28.5c25.333 -14 46 -33.333 62 -58s26.5 -51 31.5 -79s4 -56.167 -3 -84.5s-20.5 -53.166 -40.5 -74.499c-16 -16.667 -33 -32.334 -51 -47.001l-55 -43c-7.33301 -6 -16.166 -10.5 -26.499 -13.5l-29.5 -8.5
c-15.333 -3.33301 -28.333 -1.66602 -39 5.00098s-19.334 17 -26.001 31z" />
    <glyph glyph-name="A" unicode="A" horiz-adv-x="576" 
d="M485 530c-5.33301 -10 -16.3301 -20.1719 -32.9971 -30.5049s-35.834 -25 -57.501 -44s-44 -44.5 -67 -76.5s-43.833 -74 -62.5 -126c0 -6 4.33301 -10 13 -12c26.667 -6 51.5 -15 74.5 -27l69.5 -38l12 -8c4 -2.66699 8 -4 12 -4c5.33301 0 9 1.5 11 4.5
s3 6.16699 3 9.5c0 15.333 -0.666992 34.5 -2 57.5s-3.33301 46.667 -6 71s-5.83398 47.833 -9.50098 70.5s-7.5 41.334 -11.5 56.001c-0.666992 2 -1 4.33301 -1 7c0 5.33301 3 10.5 9 15.5s12.833 9.5 20.5 13.5s15.334 7.33301 23.001 10s13.5 4 17.5 4
c7.33301 0 12.666 -4 15.999 -12l9 -22c9.33301 -27.333 15.333 -59 18 -95s4 -73 4 -111c0 -32 -0.5 -63.333 -1.5 -94s-1.5 -57.667 -1.5 -81c0 -6.66699 -2.83301 -13.167 -8.5 -19.5s-12.5 -12 -20.5 -17s-16.167 -9 -24.5 -12s-14.833 -4.5 -19.5 -4.5
c-6 0 -11 2.83301 -15 8.5s-10.667 14.167 -20 25.5c-12 15.333 -25.333 28.833 -40 40.5s-30 22.167 -46 31.5s-32.5 17.833 -49.5 25.5l-51.5 22.5l-18 8c-6.66699 2.66699 -11.667 4 -15 4c-6 0 -13.667 -7.16699 -23 -21.5s-19 -31.333 -29 -51s-19.333 -39.667 -28 -60
s-14.667 -36.833 -18 -49.5c-2.66699 -9.33301 -4.83398 -18.666 -6.50098 -27.999s-2.5 -18.666 -2.5 -27.999c0 -13.333 2.33301 -25.833 7 -37.5s13.667 -22.5 27 -32.5c4 -4 6 -7.33301 6 -10c0 -4 -3.83301 -8.66699 -11.5 -14s-16.167 -10.5 -25.5 -15.5
s-18.5 -9.16699 -27.5 -12.5s-14.5 -5 -16.5 -5c-15.333 0 -26 8.66699 -32 26s-9 37.666 -9 60.999c0 19.333 3.16699 40.166 9.5 62.499s14.5 44.833 24.5 67.5s21.167 44.834 33.5 66.501s24.5 41.5 36.5 59.5l9.5 16c2.33301 4 3.5 7.66699 3.5 11
s-3.83301 6.16602 -11.5 8.49902s-17 4.33301 -28 6s-23.167 2.83398 -36.5 3.50098s-25.333 1 -36 1h-5c-2 0 -4 0.5 -6 1.5s-3 3.5 -3 7.5c0 4.66699 2.83301 9.33398 8.5 14.001s12.5 9 20.5 13s16.333 7.16699 25 9.5s16.334 3.5 23.001 3.5c8 0 16 -0.666992 24 -2
s15.667 -2 23 -2c12 0 23.333 4.16699 34 12.5s20.667 18.666 30 30.999s18.333 25.333 27 39s17 25.834 25 36.501c11.333 16 25.666 33.333 42.999 52s36 35.834 56 51.501s41 28.834 63 39.501s43.667 16.667 65 18z" />
    <glyph glyph-name="B" unicode="B" horiz-adv-x="585" 
d="M-39 33l38.998 10.4971c14 3.66699 27.667 7.83398 41 12.501s25.333 10.167 36 16.5s18.334 14.166 23.001 23.499c12 23.333 20.167 47.166 24.5 71.499s6.5 48.5 6.5 72.5c0 12.667 -0.666992 26.167 -2 40.5s-3 28.333 -5 42s-3.66699 26.167 -5 37.5
s-2 20.333 -2 27c0 7.33301 1 13.333 3 18s5.66699 9 11 13s12.166 8 20.499 12l32.5 15c3.33301 1.33301 6.33301 2.33301 9 3s5.33398 1 8.00098 1c4.66699 0 8.5 -4.16699 11.5 -12.5s5.5 -18.666 7.5 -30.999s3.66699 -25.666 5 -39.999s2.83301 -27.666 4.5 -39.999
s3.66699 -22.666 6 -30.999s5.5 -12.5 9.5 -12.5c5.33301 0 11.666 1.66699 18.999 5c20.667 8.66699 41 15.667 61 21s40.667 8 62 8c18.667 0 38.834 -2.83301 60.501 -8.5s41.834 -14 60.501 -25s34.334 -24.333 47.001 -40s19 -33.167 19 -52.5
c0 -22.667 -3.16699 -41.667 -9.5 -57s-14.666 -28 -24.999 -38s-22.666 -18.333 -36.999 -25s-29.5 -12.667 -45.5 -18c-17.333 -6 -33.833 -12.167 -49.5 -18.5s-31.5 -12 -47.5 -17s-32.833 -9 -50.5 -12s-36.834 -4.5 -57.501 -4.5c-18.667 -0 -37.167 1.33301 -55.5 4
s-36.833 5.66699 -55.5 9s-37.5 6.33301 -56.5 9s-38.167 4 -57.5 4c-6.66699 0 -13.334 -0.5 -20.001 -1.5s-13.334 -1.5 -20.001 -1.5h-12c-9.33301 0 -14 3.33301 -14 10zM291.998 31.9971c24 2 44.668 4.33105 62.001 6.99805s32.666 6.5 45.999 11.5s25 11.167 35 18.5
s19.333 16.333 28 27c12.667 14.667 19 33.667 19 57c0 22 -5.5 41.333 -16.5 58s-24.5 30.5 -40.5 41.5s-32.5 19.333 -49.5 25s-31.5 8.5 -43.5 8.5c-9.33301 0 -20 -0.666992 -32 -2s-23.167 -3.83301 -33.5 -7.5s-19.166 -9 -26.499 -16s-11 -16.167 -11 -27.5v-10
c0 -51.333 -18.667 -95.333 -56 -132c-2.66699 -2.66699 -5.83398 -4.66699 -9.50098 -6s-5.5 -3.66602 -5.5 -6.99902c0 -7.33301 6.5 -13.666 19.5 -18.999s27.5 -9.83301 43.5 -13.5s31.167 -6.5 45.5 -8.5s22.833 -3.66699 25.5 -5zM228.999 511.995
c-19.333 0 -37.6699 -3.33398 -55.0029 -10.001s-34.833 -14.167 -52.5 -22.5s-35.334 -15.833 -53.001 -22.5s-35.834 -10 -54.501 -10c-13.333 0 -24.666 2 -33.999 6s-14 12.667 -14 26c0 6 4 12.167 12 18.5s16.833 12.166 26.5 17.499s18.834 9.83301 27.501 13.5
s14 5.5 16 5.5c4 0 7.5 -1.83301 10.5 -5.5s6.5 -7.5 10.5 -11.5s8.33301 -7.83301 13 -11.5s10.334 -5.5 17.001 -5.5c14.667 0 29.5 2.66699 44.5 8s30.167 11.333 45.5 18l45.5 19.5c15 6.33301 29.833 10.5 44.5 12.5h7c0.666992 0 1.33398 0.166992 2.00098 0.5
s1.33398 0.5 2.00098 0.5c18 4 36 6 54 6c12.667 0 25.667 -1.66699 39 -5s25.5 -8.66602 36.5 -15.999s20.167 -16.833 27.5 -28.5s11 -26.167 11 -43.5c0 -19.333 -7.5 -38.166 -22.5 -56.499s-34.5 -34.5 -58.5 -48.5c-0.666992 -0.666992 -4.16699 -2.66699 -10.5 -6
s-13 -6.66602 -20 -9.99902l-18.5 -9c-5.33301 -2.66699 -7.33301 -3.33398 -6 -2.00098c22 20 36.667 36.5 44 49.5s11 23.167 11 30.5c0 12.667 -3.5 24.5 -10.5 35.5s-16.333 20.667 -28 29s-24.667 15 -39 20s-28.5 7.5 -42.5 7.5h-28z" />
    <glyph glyph-name="C" unicode="C" horiz-adv-x="742" 
d="M608 163c9.33301 -1.33301 18.832 -2.83105 28.499 -4.49805s20.167 -4.83398 31.5 -9.50098c-6.66699 -12 -13 -22.833 -19 -32.5s-12.667 -18.167 -20 -25.5s-15.666 -13.833 -24.999 -19.5s-20.333 -10.834 -33 -15.501c-4 -1.33301 -10 -3.16602 -18 -5.49902
s-16.5 -4.5 -25.5 -6.5s-17.833 -3.5 -26.5 -4.5s-15.334 -1.16699 -20.001 -0.5c10.667 17.333 20.334 33.833 29.001 49.5s17.667 29.167 27 40.5s19.5 20.166 30.5 26.499s24.5 8.83301 40.5 7.5zM633.999 312.002c-5.33301 -2 -8.33301 -1.50293 -9 1.49707
s-0.166992 8 1.5 15s3.5 15.167 5.5 24.5s2.66699 19.666 2 30.999c0 -2 0.333008 0.5 1 7.5s-1.33301 16.667 -6 29s-13.834 26.5 -27.501 42.5s-34.834 32.333 -63.501 49l-22.5 8.5c-6.33301 2.33301 -11.166 4.16602 -14.499 5.49902c-8 4 -16.667 6 -26 6
c-3.33301 0 -7.83301 -0.333008 -13.5 -1s-13.834 -1 -24.501 -1c-17.333 0 -36.166 -4.66699 -56.499 -14s-41 -21.666 -62 -36.999s-41.333 -33 -61 -53s-37.167 -41 -52.5 -63s-27.666 -44.167 -36.999 -66.5s-14 -43.166 -14 -62.499
c0 -29.333 5.83301 -54.833 17.5 -76.5s27.167 -39.667 46.5 -54s42 -25 68 -32s53.333 -10.5 82 -10.5c20.667 0 41.834 1.66699 63.501 5s43.167 8.66602 64.5 15.999c-7.33301 -13.333 -20.833 -25.166 -40.5 -35.499s-41.667 -18.833 -66 -25.5
s-48.833 -11.667 -73.5 -15s-45.334 -5 -62.001 -5c-20 0 -41.5 3 -64.5 9s-44.333 15.167 -64 27.5s-36 28.166 -49 47.499s-19.5 42 -19.5 68c0 24.667 3.16699 48.334 9.5 71.001s15 44.834 26 66.501s23.833 42.834 38.5 63.501s30 41 46 61l21 16l27.5 21
c9.66699 7.33301 19.5 14.333 29.5 21s19 12.334 27 17.001c24.667 14 46.667 25.833 66 35.5s37.833 17.5 55.5 23.5s35.334 10.167 53.001 12.5s36.5 3.5 56.5 3.5c10.667 0 24.5 -0.833008 41.5 -2.5s34.5 -4.16699 52.5 -7.5s35 -7.83301 51 -13.5
s27.667 -12.5 35 -20.5s15.166 -19 23.499 -33s12.5 -30 12.5 -48s-6.83301 -37.833 -20.5 -59.5s-38.5 -44.5 -74.5 -68.5z" />
    <glyph glyph-name="D" unicode="D" horiz-adv-x="608" 
d="M198 529c-7.33301 0.666992 -15.6621 -0.165039 -24.9951 -2.49805s-19.166 -5.33301 -29.499 -9s-21 -7.83398 -32 -12.501l-31.5 -14h1c-7.33301 -3.33301 -15.666 -6.83301 -24.999 -10.5s-19.666 -7.5 -30.999 -11.5l-11 -2h7
c-12 -4.66699 -24.833 -8.16699 -38.5 -10.5s-28.167 -2.5 -43.5 -0.5c-27.333 2.66699 -42.333 10.334 -45 23.001c-1.33301 3.33301 -0.5 6.33301 2.5 9s6.83301 5.66699 11.5 9c6 4.66699 12.5 9.33398 19.5 14.001l18.5 12v-1l23 11.5
c7.33301 3.66699 14.5 5.5 21.5 5.5s13.833 -2.16699 20.5 -6.5s13 -12.166 19 -23.499c1.33301 -3.33301 2.66602 -5 3.99902 -5c5.33301 0 14.333 2.33301 27 7c11.333 3.33301 22.666 7.66602 33.999 12.999c54 17.333 98.5 27.5 133.5 30.5s60.833 4.5 77.5 4.5
c52.667 0 97.5 -6.66699 134.5 -20s70.5 -34.666 100.5 -63.999c14 -14 25.333 -29.333 34 -46s15.167 -34 19.5 -52s7.16602 -36.167 8.49902 -54.5s2 -36.5 2 -54.5c0 -42 -9.33301 -78.333 -28 -109s-42.834 -56.5 -72.501 -77.5s-62.834 -37.5 -99.501 -49.5
s-73 -20 -109 -24l-20 -2c-8 -1.33301 -16.667 -2.33301 -26 -3s-19 -1 -29 -1c-16.667 0 -31.334 1.33301 -44.001 4h2c-17.333 2 -29.333 4.33301 -36 7s-11.334 4.66699 -14.001 6l-8 -4c-6 -2.66699 -12.833 -5 -20.5 -7s-16.834 -3 -27.501 -3
c-6.66699 0 -13.334 0.333008 -20.001 1l-20 2c-3.33301 0 -4.5 0.166992 -3.5 0.5s0.833008 0.666016 -0.5 0.999023s-5.16602 0.666016 -11.499 0.999023s-18.166 0.5 -35.499 0.5c9.33301 8.66699 20 14.5 32 17.5s24.333 5.16699 37 6.5c1.33301 0 2.5 0.166992 3.5 0.5
s2.16699 0.5 3.5 0.5c22.667 3.33301 39.834 11 51.501 23s21.834 33 30.501 63c4 15.333 8.83301 38 14.5 68s11 60.833 16 92.5s9.16699 61.167 12.5 88.5s5 46.333 5 57c0 2.66699 2.33301 5.16699 7 7.5s10.5 4.16602 17.5 5.49902s15 2.33301 24 3s17.833 1 26.5 1
c11.333 0 19.666 0.166992 24.999 0.5s9.33301 -0.166992 12 -1.5c2.66699 -4.66699 3.66699 -16.834 3 -36.501s-2.5 -43.167 -5.5 -70.5s-7.16699 -56.833 -12.5 -88.5s-11.666 -61.834 -18.999 -90.501s-15.333 -54.167 -24 -76.5s-18 -38.166 -28 -47.499h-6
c12 -5.33301 20.167 -8.5 24.5 -9.5s10.5 -1.5 18.5 -1.5c16.667 0 34.667 2.5 54 7.5s38.333 12.167 57 21.5s35.667 20.833 51 34.5s27.666 29.167 36.999 46.5c15.333 19.333 25.666 36.166 30.999 50.499s8.66602 29.833 9.99902 46.5
c0.666992 6 1.16699 14.167 1.5 24.5s0.666016 19.5 0.999023 27.5s0.666016 13.833 0.999023 17.5s0.5 2.16699 0.5 -4.5c-2 30.667 -9.16699 60.334 -21.5 89.001s-29.333 54 -51 76s-47.667 39.667 -78 53s-64.833 20 -103.5 20
c-7.33301 0 -14.166 -0.166992 -20.499 -0.5s-13.166 -0.833008 -20.499 -1.5h17z" />
    <glyph glyph-name="E" unicode="E" horiz-adv-x="620" 
d="M298 530c-12 0 -23.6689 -2.33594 -35.002 -7.00293s-21.666 -11 -30.999 -19s-16.833 -17.167 -22.5 -27.5s-8.5 -21.166 -8.5 -32.499c0 -6.66699 0.333008 -12.667 1 -18s2.66699 -12.666 6 -21.999c1.33301 -2.66699 1 -4.5 -1 -5.5s-4.33301 -1.5 -7 -1.5
c-8 0 -15.833 3.33301 -23.5 10s-14.667 15 -21 25s-11.333 20.333 -15 31s-5.5 20 -5.5 28c0 22 4 39 12 51s18.5 20.667 31.5 26s27.667 7.83301 44 7.5s32.5 -1.83301 48.5 -4.5c12.667 -2 25.834 -6 39.501 -12l40.5 -18c13.333 -6 26.5 -11.333 39.5 -16
s25.167 -7 36.5 -7c5.33301 0 10 1.66699 14 5s7.5 6.83301 10.5 10.5l8.5 10.5c2.66699 3.33301 5.66699 5 9 5c0.666992 0 4.5 -1.5 11.5 -4.5s14.5 -7 22.5 -12s15.333 -10.333 22 -16s10 -11.5 10 -17.5c0 -11.333 -3.66699 -19.166 -11 -23.499s-17 -6.5 -29 -6.5
c-3.33301 0 -7.66602 0.333008 -12.999 1s-10.833 1.5 -16.5 2.5s-10.834 2.5 -15.501 4.5s-8 4 -10 6c-10 4 -20 8.5 -30 13.5l-31.5 15c-11 5 -23 9.33301 -36 13s-27.833 5.5 -44.5 5.5zM545.998 143.997c9.33301 -1.33301 18.832 -2.83105 28.499 -4.49805
s20.167 -4.83398 31.5 -9.50098c-6.66699 -12 -13 -22.833 -19 -32.5s-12.667 -18.167 -20 -25.5s-15.666 -13.833 -24.999 -19.5s-20.333 -10.834 -33 -15.501c-4 -1.33301 -9.5 -3 -16.5 -5s-14.5 -3.83301 -22.5 -5.5s-16 -3.16699 -24 -4.5s-15 -2 -21 -2h-6
c10.667 16.667 20.167 32.5 28.5 47.5s16.833 28.167 25.5 39.5s18.167 20.333 28.5 27s22.5 10 36.5 10h8zM362.997 374.999h-8.99609c-34 0 -65.833 -3.66699 -95.5 -11s-55.5 -18 -77.5 -32s-39.333 -31.167 -52 -51.5s-19 -43.5 -19 -69.5s5.66699 -48.333 17 -67
s26.666 -34.334 45.999 -47.001s41.666 -22 66.999 -28s52.333 -9 81 -9c20 0 40.833 1.5 62.5 4.5s42.834 7.83301 63.501 14.5c-7.33301 -12 -20.833 -22.333 -40.5 -31s-41.5 -16 -65.5 -22s-48 -10.5 -72 -13.5s-44.333 -4.5 -61 -4.5c-20 0 -41.333 2.66699 -64 8
s-43.667 13.333 -63 24s-35.333 24.334 -48 41.001s-19 36.667 -19 60c0 21.333 1.66699 39.666 5 54.999s8.66602 29.5 15.999 42.5s16.666 26.167 27.999 39.5l41 47c8 6.66699 19 14.334 33 23.001s30.333 16.667 49 24s39.5 13.5 62.5 18.5s47.5 7.5 73.5 7.5
c30 0 50.667 -2.5 62 -7.5s17 -8.83301 17 -11.5c-0.666992 -0.666992 -1.33398 -1 -2.00098 -1z" />
    <glyph glyph-name="F" unicode="F" horiz-adv-x="496" 
d="M281 281c7.33301 3.33301 15.499 6.33691 24.499 9.00391s18.5 5.33398 28.5 8.00098c3.33301 19.333 6.16602 39.333 8.49902 60s3.5 40.667 3.5 60c0 22 -1.66699 42.167 -5 60.5s-9.66602 34.166 -18.999 47.499c-0.666992 0.666992 -1 1.66699 -1 3
c0 4 3.66699 6 11 6c10 0 24 -4 42 -12s33.333 -19 46 -33c4 -4.66699 7.5 -14.334 10.5 -29.001s4.5 -29.667 4.5 -45c0 -3.33301 -0.166992 -6.16602 -0.5 -8.49902s-0.5 -4.83301 -0.5 -7.5c-1.33301 -13.333 -3.16602 -28 -5.49902 -44s-5.16602 -32.667 -8.49902 -50
c7.33301 -0.666992 14.666 -1.16699 21.999 -1.5s15 -1.16602 23 -2.49902c11.333 -2 21.5 -3.33301 30.5 -4s17.167 -1 24.5 -1c15.333 0 26.166 1 32.499 3s9.83301 3.33301 10.5 4c-0.666992 0 -1.33398 -0.333008 -2.00098 -1l-1 -1c-4 -3.33301 -11.5 -8 -22.5 -14
s-24.167 -10.333 -39.5 -13c-8.66699 -1.33301 -20.5 -2.33301 -35.5 -3s-31.5 -1.66699 -49.5 -3c-7.33301 -38.667 -15.833 -75.834 -25.5 -111.501s-19.167 -62.834 -28.5 -81.501c-8.66699 -17.333 -17.5 -32.833 -26.5 -46.5s-19.5 -21.167 -31.5 -22.5
c-10.667 -1.33301 -19.5 -2.33301 -26.5 -3s-13.167 -1 -18.5 -1c-11.333 0 -17 2 -17 6c0 3.33301 2.33301 7.66602 7 12.999s9.33398 11.666 14.001 18.999c3.33301 6 7.33301 15.167 12 27.5s9.33398 25.333 14.001 39s8.66699 26.667 12 39s5.33301 21.166 6 26.499
c3.33301 11.333 7 24.833 11 40.5s8 32.167 12 49.5c-11.333 -1.33301 -22 -2.5 -32 -3.5s-18.667 -2.16699 -26 -3.5c-12.667 -2.66699 -22 -4 -28 -4c-4 0 -6 0.666992 -6 2c0 2 4.5 5.5 13.5 10.5s19.833 10.5 32.5 16.5zM156.999 359.004
c-18.667 0 -37.002 2.6709 -55.002 8.00391s-34 13.5 -48 24.5s-25.167 25 -33.5 42s-12.5 36.833 -12.5 59.5c0 24.667 6.16699 45 18.5 61s27.333 28.833 45 38.5s36.334 16.5 56.001 20.5s37.167 6 52.5 6c39.333 0 76.333 -6.66699 111 -20s68.667 -28 102 -44
s66.833 -30.667 100.5 -44s69.167 -20 106.5 -20c12 0 23.833 0.666992 35.5 2s22.5 4.16602 32.5 8.49902s18.5 10.333 25.5 18s11.5 17.5 13.5 29.5c0.666992 4.66699 0.166992 9.16699 -1.5 13.5s-3.83398 8.33301 -6.50098 12s-5 6.5 -7 8.5s-3 3.66699 -3 5
c0 0.666992 1 1 3 1h6c2.66699 0 5.66699 -0.666992 9 -2c1.33301 0 7.66602 -3 18.999 -9s23.666 -13.833 36.999 -23.5s25.333 -20.334 36 -32.001s16 -23.5 16 -35.5c0 -17.333 -2.33301 -30.833 -7 -40.5s-10.667 -17 -18 -22s-16 -8.16699 -26 -9.5s-20.333 -2 -31 -2
c-4 0 -9.33301 0.833008 -16 2.5l-21 5.5c-7.33301 2 -14.666 4.16699 -21.999 6.5s-13.333 4.5 -18 6.5c-49.333 17.333 -95.666 34.666 -138.999 51.999l-138 57c-23.333 10 -48 18.333 -74 25s-51.667 10 -77 10c-29.333 0 -53.166 -3.83301 -71.499 -11.5
s-32.666 -17.334 -42.999 -29.001s-17.333 -24 -21 -37s-5.5 -24.833 -5.5 -35.5c0 -19.333 5.33301 -38 16 -56s28.667 -34.667 54 -50z" />
    <glyph glyph-name="G" unicode="G" horiz-adv-x="669" 
d="M602 312c-1.33301 -0.666992 -3.00293 -1.00195 -5.00293 -1.00195c-2.66699 0 -4 2 -4 6c2.66699 24 4.5 46.167 5.5 66.5s-2 39 -9 56s-19.667 32.667 -38 47s-45.833 27.5 -82.5 39.5l-12 4c-4 1.33301 -8.66699 2 -14 2c-3.33301 0 -7.83301 -0.333008 -13.5 -1
s-13.834 -1 -24.501 -1c-17.333 0 -36.166 -4.66699 -56.499 -14s-41 -21.666 -62 -36.999s-41.333 -33 -61 -53s-37.167 -41 -52.5 -63s-27.666 -44.167 -36.999 -66.5s-14 -43.166 -14 -62.499c0 -29.333 5.83301 -54.833 17.5 -76.5s27.167 -39.667 46.5 -54
s42 -25 68 -32s53.333 -10.5 82 -10.5c20.667 0 41.834 1.66699 63.501 5s43.167 8.66602 64.5 15.999c-7.33301 -13.333 -20.833 -25.166 -40.5 -35.499s-41.667 -18.833 -66 -25.5s-48.833 -11.667 -73.5 -15s-45.334 -5 -62.001 -5c-20 0 -41.5 3 -64.5 9
s-44.333 15.167 -64 27.5s-36 28.166 -49 47.499s-19.5 42 -19.5 68c0 32.667 5.66699 65.334 17 98.001s27 63.667 47 93s43.667 56.5 71 81.5s57.333 46.833 90 65.5c24.667 14 46.667 25.667 66 35s37.833 17 55.5 23s35.334 10.167 53.001 12.5s36.5 3.5 56.5 3.5
c22.667 0 46.834 -1.66699 72.501 -5s49 -9.5 70 -18.5s38.5 -21.667 52.5 -38s21 -37.5 21 -63.5c0 -18 -6.66699 -37.833 -20 -59.5s-38.333 -44.5 -75 -68.5zM612.997 149.998c0 -6 -0.166016 -13.667 -0.499023 -23s-0.833008 -19.166 -1.5 -29.499
s-1.5 -20.666 -2.5 -30.999s-1.83301 -19.833 -2.5 -28.5l-31 -154c-13.333 -47.333 -35.833 -84.333 -67.5 -111s-74.834 -47.334 -129.501 -62.001c18 20 34.333 39.167 49 57.5s25.334 39.166 32.001 62.499c12.667 44.667 22.167 79.167 28.5 103.5
s10.833 43.833 13.5 58.5s4 27.334 4 38.001s0.666992 24.667 2 42c0 14.667 -5 22 -15 22c-2.66699 0 -5.33398 -0.333008 -8.00098 -1s-5.66699 -1.66699 -9 -3c0 3.33301 3.83301 7.5 11.5 12.5s18 10.167 31 15.5s27.833 10.666 44.5 15.999s33.667 10.333 51 15z
M336.998 -292.002c-2.66699 -7.33301 -7.66797 -13.9971 -15.001 -19.9971s-16.333 -9.66699 -27 -11c-4 -0.666992 -9.83301 -1.5 -17.5 -2.5l-23.5 -3c-8 -1 -15.5 -1.83301 -22.5 -2.5s-12.167 -1 -15.5 -1c-4 0 -9 3.66699 -15 11s-11.5 16 -16.5 26s-9.33301 20 -13 30
s-5.5 17.667 -5.5 23c0 9.33301 1.83301 18 5.5 26s8.16699 16 13.5 24c13.333 18 28.333 33.333 45 46s34 23.834 52 33.501s36.667 18.5 56 26.5l58 25c-10.667 -4.66699 -23.667 -12.334 -39 -23.001s-30.166 -22.334 -44.499 -35.001s-26.5 -25.334 -36.5 -38.001
s-15 -23.334 -15 -32.001c0 -29.333 5.33301 -51.5 16 -66.5s30.667 -27.167 60 -36.5z" />
    <glyph glyph-name="H" unicode="H" horiz-adv-x="822" 
d="M816 507l-14.001 -80l-14 -79l-26 -145c-6.66699 -36.667 -11.5 -67.167 -14.5 -91.5s-8 -44.166 -15 -59.499s-17.833 -27 -32.5 -35s-36.667 -14 -66 -18c-7.33301 0 -11.666 2.66699 -12.999 8s-2 9.66602 -2 12.999c0 15.333 3.5 30.5 10.5 45.5
s10.5 30.167 10.5 45.5c13.333 58.667 23.5 116 30.5 172s16.167 114.333 27.5 175v-1c0.666992 3.33301 1 6.5 1 9.5v8.5c0 8 -3.5 15.167 -10.5 21.5s-20.167 10.166 -39.5 11.499c8 10 17.5 19 28.5 27s22 15 33 21s21.167 10.5 30.5 13.5s16.333 4.5 21 4.5
c14.667 0 27.5 -5.66699 38.5 -17s16.5 -24.666 16.5 -39.999c0 -0.666992 -0.166992 -1.16699 -0.5 -1.5s-0.5 -0.833008 -0.5 -1.5v-1v-6zM465.999 572v-71c0 -38 -1.66699 -74.667 -5 -110s-7.33301 -72 -12 -110c0 -1.33301 -0.166992 -2.16602 -0.5 -2.49902
s-0.5 -1.16602 -0.5 -2.49902c0 -6.66699 2.66699 -11.334 8 -14.001s12.666 -4 21.999 -4c10.667 0 23.834 1.83301 39.501 5.5s31.5 8 47.5 13s31.333 10.167 46 15.5s27 9.66602 37 12.999c2.66699 0 4 -1.66699 4 -5c0 -2.66699 -1.66699 -6 -5 -10
s-9.5 -8.66699 -18.5 -14s-21.667 -10.833 -38 -16.5s-37.5 -11.167 -63.5 -16.5c-35.333 -4.66699 -61.333 -17.667 -78 -39s-29.334 -47.666 -38.001 -78.999c-13.333 -48 -35.5 -89.167 -66.5 -123.5s-74.167 -59.166 -129.5 -74.499c18 20 34.333 39.167 49 57.5
s25.334 39.166 32.001 62.499c15.333 52 28.5 104 39.5 156s16.5 105 16.5 159v14l6 120c0 14.667 -5 22 -15 22c-2.66699 0 -5.33398 -0.333008 -8.00098 -1s-5.66699 -1.66699 -9 -3c-19.333 -7.33301 -38.166 -13.333 -56.499 -18s-37.166 -7 -56.499 -7
c-5.33301 0 -15.166 1.33301 -29.499 4s-29.333 6 -45 10s-29.5 8.5 -41.5 13.5s-18 9.83301 -18 14.5c0 6 4.5 12 13.5 18s19.167 11.5 30.5 16.5s22 9 32 12s15.667 4.5 17 4.5c11.333 0 22.666 -6.66699 33.999 -20c10 -12.667 21.333 -21.167 34 -25.5s26 -6.5 40 -6.5
c30 0 59.667 4.66699 89 14s61.666 18.666 96.999 27.999zM180.999 -91c-2.66699 -7.33301 -7.66797 -13.9971 -15.001 -19.9971s-16.333 -9.66699 -27 -11c-4 -0.666992 -9.83301 -1.5 -17.5 -2.5l-23.5 -3c-8 -1 -15.5 -1.83301 -22.5 -2.5s-12.167 -1 -15.5 -1
c-4 0 -9 3.66699 -15 11s-11.5 16 -16.5 26s-9.33301 20 -13 30s-5.5 17.667 -5.5 23c0 9.33301 1.83301 18 5.5 26s8.16699 16 13.5 24c13.333 18 28.333 33.333 45 46s34 23.834 52 33.501s36.667 18.5 56 26.5l58 25c-10.667 -4.66699 -23.667 -12.334 -39 -23.001
s-30.166 -22.334 -44.499 -35.001s-26.5 -25.334 -36.5 -38.001s-15 -23.334 -15 -32.001c0 -29.333 5.33301 -51.5 16 -66.5s30.667 -27.167 60 -36.5z" />
    <glyph glyph-name="I" unicode="I" horiz-adv-x="247" 
d="M256 577c0 -12.667 -1.16406 -25.833 -3.49707 -39.5s-4.16602 -26.167 -5.49902 -37.5c-4 -40.667 -7.83301 -77.834 -11.5 -111.501s-7.83398 -69.5 -12.501 -107.5c0 -0.666992 -0.166992 -2.66699 -0.5 -6s-1.5 -10.666 -3.5 -21.999s-5.33301 -28.166 -10 -50.499
s-11.667 -52.5 -21 -90.5c-6.66699 -24 -13.834 -43.333 -21.501 -58s-17.334 -26 -29.001 -34s-26.334 -13.333 -44.001 -16s-39.834 -4 -66.501 -4c8.66699 10 16.334 18.167 23.001 24.5s12.167 12.5 16.5 18.5s8 12.5 11 19.5s5.5 16.5 7.5 28.5
c4 23.333 9.5 51 16.5 83l22 102.5l22.5 111.5c7.33301 38 13 74.667 17 110c0 14.667 -5 22 -15 22c-2.66699 0 -5.33398 -0.333008 -8.00098 -1s-5.66699 -1.66699 -9 -3c-19.333 -7.33301 -40.666 -12.833 -63.999 -16.5s-44.666 -5.5 -63.999 -5.5
c-5.33301 0 -15.166 1.33301 -29.499 4s-29.333 6 -45 10s-29.5 8.5 -41.5 13.5s-18 9.83301 -18 14.5c0 6 4.5 12 13.5 18s19.167 11.5 30.5 16.5s22 9 32 12s15.667 4.5 17 4.5c11.333 0 22.666 -6.66699 33.999 -20c10 -12.667 21.333 -21.167 34 -25.5s26 -6.5 40 -6.5
c30 0 59.667 4.66699 89 14s61.666 18.666 96.999 27.999z" />
    <glyph glyph-name="J" unicode="J" horiz-adv-x="525" 
d="M487 575c0 -6 -0.166992 -13.6719 -0.5 -23.0049s-0.833008 -19.166 -1.5 -29.499s-1.5 -20.666 -2.5 -30.999s-1.83301 -19.833 -2.5 -28.5c-2 -18.667 -4 -35.167 -6 -49.5s-3.66699 -28.166 -5 -41.499s-3 -27.166 -5 -41.499s-4 -30.833 -6 -49.5
c0 -1.33301 -0.166992 -2.16602 -0.5 -2.49902s-0.5 -1.16602 -0.5 -2.49902l-36 -176c-13.333 -47.333 -35.833 -84.333 -67.5 -111s-74.834 -47.334 -129.501 -62.001c18 20 34.333 39.167 49 57.5s25.334 39.166 32.001 62.499
c12.667 44.667 23.334 84.834 32.001 120.501s15.834 70.5 21.501 104.5s10.167 69 13.5 105s6.33301 76.333 9 121c0 14.667 -5 22 -15 22c-2.66699 0 -5.33398 -0.333008 -8.00098 -1s-5.66699 -1.66699 -9 -3c-19.333 -7.33301 -40.5 -13.666 -63.5 -18.999
s-44.167 -8 -63.5 -8c-5.33301 0 -15.166 1.33301 -29.499 4s-29.333 6 -45 10s-29.5 8.5 -41.5 13.5s-18 9.83301 -18 14.5c0 6 4.5 12 13.5 18s19.167 11.5 30.5 16.5s22 9 32 12s15.667 4.5 17 4.5c11.333 0 22.666 -6.66699 33.999 -20
c10 -12.667 21.333 -21.167 34 -25.5s26 -6.5 40 -6.5c30 0 61.667 5.16699 95 15.5s67.666 20.166 102.999 29.499zM190 -91.0049c-2.66699 -7.33301 -7.66797 -13.9971 -15.001 -19.9971s-16.333 -9.66699 -27 -11c-4 -0.666992 -9.83301 -1.5 -17.5 -2.5l-23.5 -3
c-8 -1 -15.5 -1.83301 -22.5 -2.5s-12.167 -1 -15.5 -1c-4 0 -9 3.66699 -15 11s-11.5 16 -16.5 26s-9.33301 20 -13 30s-5.5 17.667 -5.5 23c0 9.33301 1.83301 18 5.5 26s8.16699 16 13.5 24c13.333 18 28.333 33.333 45 46s34 23.834 52 33.501s36.667 18.5 56 26.5
l58 25c-10.667 -4.66699 -23.667 -12.334 -39 -23.001s-30.166 -22.334 -44.499 -35.001s-26.5 -25.334 -36.5 -38.001s-15 -23.334 -15 -32.001c0 -29.333 5.33301 -51.5 16 -66.5s30.667 -27.167 60 -36.5z" />
    <glyph glyph-name="K" unicode="K" horiz-adv-x="642" 
d="M943 -253c-54 9.33301 -100.5 22.4951 -139.5 39.4951s-76.5 39.167 -112.5 66.5c-14.667 10.667 -28.5 26 -41.5 46s-24.667 41.833 -35 65.5s-18.833 47.834 -25.5 72.501s-10.667 47.334 -12 68.001c-8 38.667 -17.167 75.834 -27.5 111.501s-23.333 68 -39 97
s-34 53.833 -55 74.5s-45.833 35 -74.5 43l46 30l43 28c12 16 24.333 33.333 37 52c1.33301 2 2.5 4.5 3.5 7.5s1.33301 5.83301 1 8.5s-1.66602 4.5 -3.99902 5.5s-6.16602 1.16699 -11.499 0.5l-29 -4c-10 -1.33301 -19.667 -3.33301 -29 -6s-18 -6.16699 -26 -10.5
s-14.333 -10.166 -19 -17.499c-14.667 -24 -32.5 -45.667 -53.5 -65s-48.167 -35 -81.5 -47c34.667 -12 63.167 -25.5 85.5 -40.5s41.333 -34.333 57 -58s28.834 -52.834 39.501 -87.501s21.667 -77.334 33 -128.001c6 -21.333 13 -43.833 21 -67.5s16.667 -46.5 26 -68.5
s19.166 -42.333 29.499 -61s21.166 -33.667 32.499 -45c105.333 -109.333 244.666 -151.666 417.999 -126.999c6 0.666992 12.167 0.833984 18.5 0.500977s12.666 -0.166016 18.999 0.500977s12.833 2.16699 19.5 4.5s13.334 6.5 20.001 12.5c-26 -2 -49.667 -3.5 -71 -4.5
s-42.333 0.166992 -63 3.5zM264 576.995c0 -12.667 -1.16504 -25.833 -3.49805 -39.5s-4.16602 -26.167 -5.49902 -37.5c-4 -40.667 -7.83301 -77.834 -11.5 -111.501s-7.83398 -69.5 -12.501 -107.5c0 -0.666992 -0.166992 -2.66699 -0.5 -6s-1.5 -10.666 -3.5 -21.999
s-5.33301 -28.166 -10 -50.499s-11.667 -52.5 -21 -90.5c-6.66699 -24 -13.334 -43.333 -20.001 -58s-15.167 -26 -25.5 -34s-24 -13.333 -41 -16s-38.833 -4 -65.5 -4c8.66699 12 15.334 21.833 20.001 29.5s8.16699 14.834 10.5 21.501s4.16602 13.667 5.49902 21
s3.66602 16.666 6.99902 27.999c6 22 12.833 48.5 20.5 79.5l23.5 99.5c8 35.333 15.667 71.833 23 109.5s13 74.167 17 109.5c0 14.667 -5 22 -15 22c-2.66699 0 -5.33398 -0.333008 -8.00098 -1s-5.66699 -1.66699 -9 -3c-19.333 -7.33301 -40.666 -12.833 -63.999 -16.5
s-44.666 -5.5 -63.999 -5.5c-5.33301 0 -15.166 1.33301 -29.499 4s-29.333 6 -45 10s-29.5 8.5 -41.5 13.5s-18 9.83301 -18 14.5c0 6 4.5 12 13.5 18s19.167 11.5 30.5 16.5s22 9 32 12s15.667 4.5 17 4.5c11.333 0 22.666 -6.66699 33.999 -20
c10 -12.667 21.333 -21.167 34 -25.5s26 -6.5 40 -6.5c30 0 59.667 4.66699 89 14s61.666 18.666 96.999 27.999z" />
    <glyph glyph-name="L" unicode="L" horiz-adv-x="524" 
d="M791 -114c-25.333 -4.66699 -50.332 -9.66211 -74.999 -14.9951s-50 -8 -76 -8c-30.667 0 -58.334 6.33301 -83.001 19s-47.667 27.667 -69 45c-42 34.667 -85.833 60 -131.5 76s-92.834 24 -141.501 24c-42 0 -84.667 -5.83301 -128 -17.5l-130 -34.5
c0 2 -2 2.33301 -6 1s-6.33301 -1.33301 -7 0l54.5 20.5c15.667 5.66699 29 12 40 19s20 15.667 27 26s12.5 23.833 16.5 40.5c7.33301 28 14.166 56.667 20.499 86s13 58.166 20 86.499s15.167 56.166 24.5 83.499s21 53.666 35 78.999
c2.66699 4.66699 5.16699 11.5 7.5 20.5s3.5 15.167 3.5 18.5c0 5.33301 -4 10.166 -12 14.499l-28.5 15.5c-11 6 -22 13.667 -33 23s-19.5 21.666 -25.5 36.999c0 4 3.33301 6.83301 10 8.5s14.334 2.5 23.001 2.5s17 -0.333008 25 -1s13.333 -1 16 -1
c8.66699 0 16.5 -2 23.5 -6s13.833 -8.5 20.5 -13.5s13 -9.5 19 -13.5s12 -6 18 -6c7.33301 0 15.666 3 24.999 9c22 13.333 45.167 22.833 69.5 28.5s48.166 12.167 71.499 19.5c6.66699 1.33301 12 2 16 2c11.333 0 22.333 -2.5 33 -7.5s16 -14.5 16 -28.5
c0 -7.33301 -1.66699 -13.833 -5 -19.5s-8.33301 -10.167 -15 -13.5c-21.333 -10 -42.5 -21 -63.5 -33s-43.167 -19 -66.5 -21c-22 -2 -38.333 -9.16699 -49 -21.5s-19.334 -27.5 -26.001 -45.5c-14.667 -40 -26.167 -80 -34.5 -120s-16.166 -80.667 -23.499 -122
c-2 -11.333 -5.16699 -22.666 -9.5 -33.999s-9.16602 -22.333 -14.499 -33c-1.33301 -2.66699 -3.16602 -5 -5.49902 -7s-3.5 -4.66699 -3.5 -8c0 -4.66699 1.66699 -7.83398 5 -9.50098s6 -2.5 8 -2.5c17.333 0 34.333 1.66699 51 5s33.334 5 50.001 5
c58.667 0 116.5 -11 173.5 -33s107.833 -50.667 152.5 -86c24 -19.333 49.333 -33.333 76 -42s54.667 -13 84 -13h13.5c4.33301 0 8.83301 0.333008 13.5 1zM323.001 503.005c0 -9.33301 2.16602 -15.167 6.49902 -17.5s10.5 -3.5 18.5 -3.5s15.167 2 21.5 6
s9.5 11.667 9.5 23c0 12.667 -6.33301 19 -19 19c-9.33301 0 -17.166 -2.5 -23.499 -7.5s-10.833 -11.5 -13.5 -19.5z" />
    <glyph glyph-name="M" unicode="M" horiz-adv-x="893" 
d="M840 42c-17.333 -14 -37.6729 -25 -61.0059 -33s-44 -12 -62 -12c-13.333 0 -22.666 4.83301 -27.999 14.5s-8 24.834 -8 45.501c0 15.333 2.33301 29.666 7 42.999c15.333 44 28.666 90.167 39.999 138.5s17 95.5 17 141.5c0 13.333 -1.16699 27.166 -3.5 41.499
s-6.33301 27.333 -12 39s-13 21.334 -22 29.001s-20.5 11.5 -34.5 11.5c-23.333 0 -44.833 -4.66699 -64.5 -14s-38.834 -19.333 -57.501 -30c-6 -3.33301 -9.66699 -7.5 -11 -12.5s-2 -10.5 -2 -16.5v-16c0 -54 -4 -107.333 -12 -160s-18.667 -105 -32 -157
c-5.33301 -20 -11.666 -35.833 -18.999 -47.5s-15.666 -20.5 -24.999 -26.5s-19.333 -10 -30 -12s-21.334 -3.66699 -32.001 -5h-2c-6 0 -9 2 -9 6c0 2 0.666992 4.33301 2 7c21.333 53.333 37 109.166 47 167.499s15 115.5 15 171.5c0 13.333 -1.33301 28.166 -4 44.499
s-7.33398 31.5 -14.001 45.5s-15.167 25.833 -25.5 35.5s-23.166 14.5 -38.499 14.5c-12 0 -23.667 -1.83301 -35 -5.5s-22.666 -8.16699 -33.999 -13.5s-22.333 -11.166 -33 -17.499s-21 -11.833 -31 -16.5c-6 -3.33301 -9.5 -7.83301 -10.5 -13.5s-1.5 -11.167 -1.5 -16.5
c0 -21.333 -1.16699 -43.5 -3.5 -66.5s-5.33301 -46.167 -9 -69.5s-7.5 -46.333 -11.5 -69s-8 -44 -12 -64c-6 -33.333 -13 -60 -21 -80s-17.5 -35.167 -28.5 -45.5s-24 -17.166 -39 -20.499s-32.5 -5 -52.5 -5c-3.33301 0 -6 1 -8 3c0 4.66699 1 8 3 10
c12 14 22.167 31.833 30.5 53.5s15.333 45.334 21 71.001s10.334 51.667 14.001 78s6.33398 51.166 8.00098 74.499s2.83398 43.666 3.50098 60.999s1 29.666 1 36.999c0 40 -6.33301 71.167 -19 93.5s-34 33.5 -64 33.5c-4.66699 0 -9.16699 -0.333008 -13.5 -1
s-8.83301 -1 -13.5 -1c-2.66699 0 -5.33398 0.666992 -8.00098 2s-4 4 -4 8c0 2.66699 1.66699 5 5 7s5.66602 4 6.99902 6c16 15.333 33.167 26.333 51.5 33s37.833 10 58.5 10c11.333 0 22.5 -1.5 33.5 -4.5s21 -7.83301 30 -14.5s16.667 -15.334 23 -26.001
s10.5 -24 12.5 -40c2.66699 -21.333 7.33398 -32 14.001 -32c3.33301 0 6.83301 1 10.5 3l16.5 9c15.333 8 31.5 17 48.5 27s34.333 19.333 52 28s35.334 15.834 53.001 21.501s34.5 8.5 50.5 8.5c29.333 0 52.666 -19.667 69.999 -59l10 -21.5
c2 -4.33301 5.33301 -6.5 10 -6.5c3.33301 0 7 1.16699 11 3.5l17 9.5l45 25c16 8.66699 32.333 16.834 49 24.501s33.334 13.834 50.001 18.501s32 7 46 7c23.333 0 42.833 -11.167 58.5 -33.5s23.5 -52.833 23.5 -91.5c0 -4 -0.166992 -7.83301 -0.5 -11.5
s-0.833008 -7.5 -1.5 -11.5c-5.33301 -43.333 -12.166 -85 -20.499 -125s-18.166 -81.333 -29.499 -124c-3.33301 -12 -5 -27.333 -5 -46c0 -8.66699 0.5 -17.167 1.5 -25.5s3 -15.833 6 -22.5s6.83301 -12.167 11.5 -16.5s10.667 -6.5 18 -6.5c4.66699 0 10 1 16 3z" />
    <glyph glyph-name="N" unicode="N" horiz-adv-x="541" 
d="M190 413c0 -21.333 -1.16797 -43.498 -3.50098 -66.498s-5.33301 -46.167 -9 -69.5s-7.5 -46.333 -11.5 -69s-8 -44 -12 -64c-6 -33.333 -13 -60 -21 -80s-17.5 -35.167 -28.5 -45.5s-24 -17.166 -39 -20.499s-32.5 -5 -52.5 -5c-3.33301 0 -6 1 -8 3c0 4.66699 1 8 3 10
c12 14 22.167 31.833 30.5 53.5s15.333 45.334 21 71.001s10.334 51.667 14.001 78s6.33398 51.166 8.00098 74.499s2.83398 43.666 3.50098 60.999s1 29.666 1 36.999c0 40 -6.33301 71.167 -19 93.5s-34 33.5 -64 33.5c-4.66699 0 -9.16699 -0.333008 -13.5 -1
s-8.83301 -1 -13.5 -1c-2.66699 0 -5.33398 0.666992 -8.00098 2s-4 4 -4 8c0 2.66699 1.66699 5 5 7s5.66602 4 6.99902 6c16 15.333 33.167 26.333 51.5 33s37.833 10 58.5 10c11.333 0 22.5 -1.5 33.5 -4.5s21 -7.83301 30 -14.5s16.667 -15.334 23 -26.001
s10.5 -24 12.5 -40zM518.999 40.002c-17.333 -14 -37.668 -25.002 -61.001 -33.002s-44 -12 -62 -12c-13.333 0 -22.666 4.83301 -27.999 14.5s-8 24.834 -8 45.501c0 15.333 2.33301 29.666 7 42.999c15.333 44 28.666 90.167 39.999 138.5s17 95.5 17 141.5
c0 13.333 -1.16699 27.166 -3.5 41.499s-6.33301 27.333 -12 39s-13 21.334 -22 29.001s-20.5 11.5 -34.5 11.5c-23.333 0 -44.833 -4.66699 -64.5 -14s-38.834 -19.333 -57.501 -30c-12 -6.66699 -18.5 -10 -19.5 -10s-0.166992 1.33301 2.5 4l9 9
c3.33301 3.33301 3.66602 5 0.999023 5c3.33301 0 7 1.16699 11 3.5l17 9.5l45 25c16 8.66699 32.333 16.834 49 24.501s33.334 13.834 50.001 18.501s32 7 46 7c23.333 0 42.833 -11.167 58.5 -33.5s23.5 -52.833 23.5 -91.5c0 -4 -0.166992 -7.83301 -0.5 -11.5
s-0.833008 -7.5 -1.5 -11.5c-5.33301 -43.333 -12.166 -85 -20.499 -125s-18.166 -81.333 -29.499 -124c-3.33301 -12 -5 -27.333 -5 -46c0 -8.66699 0.5 -17.167 1.5 -25.5s3 -15.833 6 -22.5s6.83301 -12.167 11.5 -16.5s10.667 -6.5 18 -6.5c4.66699 0 10 1 16 3z" />
    <glyph glyph-name="O" unicode="O" horiz-adv-x="622" 
d="M571 215c-19.333 -28.667 -39.4941 -54.168 -60.4941 -76.501s-44.333 -41.666 -70 -57.999s-54.334 -30 -86.001 -41s-67.834 -19.5 -108.501 -25.5c-31.333 -4.66699 -60.166 -5.16699 -86.499 -1.5s-49.333 12.334 -69 26.001s-35.5 32.334 -47.5 56.001
s-18.667 53.167 -20 88.5c-1.33301 32.667 2.66699 66.5 12 101.5s22.5 68.167 39.5 99.5s37.333 59.833 61 85.5s49.167 45.834 76.5 60.501c21.333 10 44.5 18.667 69.5 26s55.5 13.666 91.5 18.999c-28 -10 -52.833 -22.167 -74.5 -36.5s-41.167 -30 -58.5 -47
s-33 -35 -47 -54s-27.667 -38.5 -41 -58.5c-14.667 -24.667 -24.5 -49.334 -29.5 -74.001s-6.5 -50 -4.5 -76c2 -24 8.16699 -45.333 18.5 -64s23.166 -34.167 38.499 -46.5s32.5 -22 51.5 -29s37.5 -11.167 55.5 -12.5s38.167 2 60.5 10s43.666 18.5 63.999 31.5
s38.333 27.667 54 44s25.834 32.5 30.501 48.5c5.33301 15.333 10.166 30.666 14.499 45.999s7.5 30.666 9.5 45.999c2 18.667 1.16699 37.334 -2.5 56.001s-10.834 36.167 -21.501 52.5s-25.167 31.333 -43.5 45s-41.5 25.5 -69.5 35.5
c15.333 16.667 33.166 28.667 53.499 36s43.833 7.33301 70.5 0c27.333 -8 49.833 -22.833 67.5 -44.5s29.667 -47 36 -76s6.66602 -60.333 0.999023 -94s-17.5 -66.5 -35.5 -98.5z" />
    <glyph glyph-name="P" unicode="P" horiz-adv-x="469" 
d="M218 255c24 0 46.8301 4.16895 68.4971 12.502s40.667 19.5 57 33.5s29.333 30 39 48s14.5 36.667 14.5 56c0 23.333 -5.16699 43.333 -15.5 60s-23.333 30.5 -39 41.5s-33 19 -52 24s-37.167 7.5 -54.5 7.5c-20 0 -39.667 -2.66699 -59 -8s-38.5 -11.333 -57.5 -18
s-38 -12.667 -57 -18s-37.833 -8 -56.5 -8c-6.66699 0 -14.167 0.666992 -22.5 2s-16.333 3.66602 -24 6.99902s-14 7.66602 -19 12.999s-7.5 12.333 -7.5 21c0 2.66699 2.83301 6 8.5 10s12.334 8 20.001 12s15.5 7.33301 23.5 10s14.667 4 20 4c6 0 10.667 -4 14 -12
c4.66699 -12 11.334 -20 20.001 -24s18.667 -6 30 -6c16.667 0 32.334 2 47.001 6s29.667 8.66699 45 14c22 8 44 14.667 66 20s44.667 8 68 8c18.667 0 40 -2.33301 64 -7s46.333 -12.5 67 -23.5s38.167 -25.333 52.5 -43s21.5 -39.167 21.5 -64.5
c0 -31.333 -10 -58.333 -30 -81s-44.333 -41.5 -73 -56.5s-58.5 -26.5 -89.5 -34.5s-57.833 -12.667 -80.5 -14c-18.667 -1.33301 -28 -0.333008 -28 3s6.33301 5 19 5zM136.997 76.002c-8 -17.333 -16.5 -32.8291 -25.5 -46.4961s-19.5 -21.167 -31.5 -22.5
c-23.333 -2.66699 -39.333 -3.83398 -48 -3.50098s-13.334 2 -14.001 5s1.5 7.16699 6.5 12.5s9.83301 12 14.5 20c3.33301 6 7.33301 15.167 12 27.5s9.33398 25.333 14.001 39s8.66699 26.667 12 39s5.33301 21.166 6 26.499c4 13.333 8.66699 32.666 14 57.999
s10.166 51.166 14.499 77.499s8 50.5 11 72.5s4.5 36.333 4.5 43c0 4.66699 -1 8.83398 -3 12.501s-4.66699 7 -8 10s-6.5 5.66699 -9.5 8s-5.5 5.16602 -7.5 8.49902c2 2 6.5 5 13.5 9s15.167 7.66699 24.5 11s19.5 6 30.5 8s21.5 1.66699 31.5 -1
c7.33301 -1.33301 13.666 -7 18.999 -17s6.33301 -22.667 3 -38c-5.33301 -23.333 -11.166 -52.333 -17.499 -87s-13.166 -69.5 -20.499 -104.5s-14.833 -67.833 -22.5 -98.5s-15.5 -53.667 -23.5 -69z" />
    <glyph glyph-name="Q" unicode="Q" horiz-adv-x="622" 
d="M930 -223c-62.667 -5.33301 -120.829 -2.00293 -174.496 9.99707s-103.834 35.667 -150.501 71c-32 23.333 -59.5 49.5 -82.5 78.5l-68.5 88.5l-32 45c-25.333 -15.333 -51.333 -27.166 -78 -35.499s-59.334 -15.166 -98.001 -20.499
c-31.333 -4.66699 -60.166 -5.16699 -86.499 -1.5s-49.333 12.334 -69 26.001s-35.5 32.334 -47.5 56.001s-18.667 53.167 -20 88.5c-1.33301 32.667 2.66699 66.5 12 101.5s22.5 68.167 39.5 99.5s37.333 59.833 61 85.5s49.167 45.834 76.5 60.501
c21.333 10 44.5 18.667 69.5 26s55.5 13.666 91.5 18.999c-28 -10 -52.833 -22.167 -74.5 -36.5s-41.167 -30 -58.5 -47s-33 -35 -47 -54s-27.667 -38.5 -41 -58.5c-14.667 -24.667 -24.5 -49.334 -29.5 -74.001s-6.5 -50 -4.5 -76c2 -24 8.16699 -45.333 18.5 -64
s23.166 -34.167 38.499 -46.5s32.5 -22 51.5 -29s37.5 -11.167 55.5 -12.5c17.333 -1.33301 34 0.666992 50 6s34 14.333 54 27l-16 17l-37.5 32.5c-11.667 10.333 -23.667 19.666 -36 27.999s-26 15.333 -41 21s-31.833 9.16699 -50.5 10.5
c50 9.33301 94.667 7.83301 134 -4.5s76.333 -33.166 111 -62.499c10 9.33301 18.5 19 25.5 29s12.167 20 15.5 30c5.33301 15.333 10.166 30.666 14.499 45.999s7.5 30.666 9.5 45.999c2 18.667 1.16699 37.334 -2.5 56.001s-10.834 36.167 -21.501 52.5
s-25.167 31.333 -43.5 45s-41.5 25.5 -69.5 35.5c15.333 16.667 33.166 28.667 53.499 36s43.833 7.33301 70.5 0c27.333 -8 49.833 -22.833 67.5 -44.5s29.667 -47 36 -76s6.66602 -60.333 0.999023 -94s-17.5 -66.5 -35.5 -98.5
c-13.333 -19.333 -26.666 -37.333 -39.999 -54s-27.666 -31.667 -42.999 -45c20.667 -22.667 39 -46.5 55 -71.5l49 -73.5c28 -41.333 60.5 -76.166 97.5 -104.499s78.5 -52.5 124.5 -72.5c12.667 -4.66699 26 -5.66699 40 -3c13.333 1.33301 26.833 1.83301 40.5 1.5
s29.167 -3.5 46.5 -9.5z" />
    <glyph glyph-name="R" unicode="R" horiz-adv-x="571" 
d="M218 255l6.99609 0.00488281c3.33301 0 6.16602 0.166992 8.49902 0.5s5.16602 0.5 8.49902 0.5c21.333 2.66699 41.5 8.66699 60.5 18s35.5 20.666 49.5 33.999s25 28.333 33 45s12 34 12 52c0 23.333 -5.16699 43.333 -15.5 60s-23.333 30.5 -39 41.5s-33 19 -52 24
s-37.167 7.5 -54.5 7.5c-20 0 -39.667 -2.66699 -59 -8s-38.5 -11.333 -57.5 -18s-38 -12.667 -57 -18s-37.833 -8 -56.5 -8c-6.66699 0 -14.167 0.666992 -22.5 2s-16.333 3.66602 -24 6.99902s-14 7.66602 -19 12.999s-7.5 12.333 -7.5 21c0 2.66699 2.83301 6 8.5 10
s12.334 8 20.001 12s15.5 7.33301 23.5 10s14.667 4 20 4c6 0 10.667 -4 14 -12c4.66699 -12 11.334 -20 20.001 -24s18.667 -6 30 -6c16.667 0 32.334 2 47.001 6s29.667 8.66699 45 14c22 8 44 14.667 66 20s44.667 8 68 8c18.667 0 40 -2.33301 64 -7
s46.333 -12.5 67 -23.5s38.167 -25.333 52.5 -43s21.5 -39.167 21.5 -64.5s-6.83301 -47.833 -20.5 -67.5s-31 -36.834 -52 -51.501s-44.167 -26.834 -69.5 -36.501s-49.666 -17.167 -72.999 -22.5c32.667 -3.33301 63 -12 91 -26s54.667 -32.333 80 -55
c28 -25.333 51.667 -52.833 71 -82.5l58 -88.5c28 -41.333 60.5 -76.166 97.5 -104.499s78.5 -52.5 124.5 -72.5c12.667 -4.66699 26 -5.66699 40 -3c13.333 1.33301 26.833 1.83301 40.5 1.5s29.167 -3.5 46.5 -9.5c-31.333 -2.66699 -62 -3.66699 -92 -3s-59 3.5 -87 8.5
s-55 12.667 -81 23s-50.667 24.5 -74 42.5c-32 23.333 -59.5 49.5 -82.5 78.5l-68.5 88.5c-12.667 17.333 -25.167 33.5 -37.5 48.5s-26.166 32.833 -41.499 53.5c-21.333 27.333 -42.833 48 -64.5 62s-47.5 24 -77.5 30h-1c-11.333 -1.33301 -19.166 -1.33301 -23.499 0
s-5.83301 2.66602 -4.5 3.99902h-1h1c2.66699 2.66699 9 4 19 4zM136.996 76.0049c-8 -17.333 -16.5 -32.8291 -25.5 -46.4961s-19.5 -21.167 -31.5 -22.5c-23.333 -2.66699 -39.333 -3.83398 -48 -3.50098s-13.334 2 -14.001 5s1.5 7.16699 6.5 12.5s9.83301 12 14.5 20
c3.33301 6 7.33301 15.167 12 27.5s9.33398 25.333 14.001 39s8.66699 26.667 12 39s5.33301 21.166 6 26.499c4 13.333 8.66699 32.666 14 57.999s10.166 51.166 14.499 77.499s8 50.5 11 72.5s4.5 36.333 4.5 43c0 4.66699 -1 8.83398 -3 12.501s-4.66699 7 -8 10
s-6.5 5.66699 -9.5 8s-5.5 5.16602 -7.5 8.49902c2 2 6.5 5 13.5 9s15.167 7.66699 24.5 11s19.5 6 30.5 8s21.5 1.66699 31.5 -1c7.33301 -1.33301 13.666 -7 18.999 -17s6.33301 -22.667 3 -38c-5.33301 -23.333 -11.166 -52.333 -17.499 -87
s-13.166 -69.5 -20.499 -104.5s-14.833 -67.833 -22.5 -98.5s-15.5 -53.667 -23.5 -69z" />
    <glyph glyph-name="S" unicode="S" horiz-adv-x="667" 
d="M280 2c-22.667 1.33301 -46.9932 3.83594 -72.9932 7.50293s-51.167 10.167 -75.5 19.5s-46.5 22.333 -66.5 39s-35 38.334 -45 65.001c-2.66699 6.66699 -4 12.334 -4 17.001c0 19.333 5 37 15 53s22.833 30.167 38.5 42.5s33 23.166 52 32.499s37.667 16.833 56 22.5
s35.333 10 51 13s27.5 4.5 35.5 4.5c11.333 0 22.5 -1.33301 33.5 -4s20.667 -6.33398 29 -11.001s15 -9.83398 20 -15.501s7.5 -11.834 7.5 -18.501c0 -6 -2.83301 -11 -8.5 -15s-12.5 -7.33301 -20.5 -10s-16.667 -4.66699 -26 -6s-18 -2 -26 -2
c-16 0 -26.5 0.666992 -31.5 2s-8.5 4.66602 -10.5 9.99902c-4 12 -8.66699 21.167 -14 27.5s-10.333 9.5 -15 9.5c-9.33301 0 -17.833 -3.83301 -25.5 -11.5s-14.334 -16.834 -20.001 -27.501s-10 -22 -13 -34s-4.5 -22.333 -4.5 -31c0 -22.667 7 -43.334 21 -62.001
s31.333 -34.834 52 -48.501s43 -24.334 67 -32.001s46 -11.5 66 -11.5c36.667 0 66.834 4.33301 90.501 13s43.167 19.5 58.5 32.5s27.166 27.333 35.499 43s15.166 30.5 20.499 44.5c1.33301 3.33301 2.33301 7.33301 3 12s1 9.33398 1 14.001
c0 17.333 -3.83301 33 -11.5 47s-16.167 26.667 -25.5 38c-14 17.333 -30.667 30.833 -50 40.5s-37.666 17.834 -54.999 24.501l-45.5 18c-15 6 -28.5 13 -40.5 21s-21.667 16.833 -29 26.5s-11 21.167 -11 34.5c0 2.66699 0.666992 6.16699 2 10.5
s2.66602 9.16602 3.99902 14.499c0.666992 0.666992 1.16699 0.833984 1.5 0.500977s0.666016 -0.166016 0.999023 0.500977s0.666016 2.33398 0.999023 5.00098s0.5 7.66699 0.5 15s-2 12.666 -6 15.999l-18 18.5c-6 6.33301 -9 11.166 -9 14.499
c0 8.66699 9 16.334 27 23.001s39 10 63 10c13.333 0 21.5 -1.5 24.5 -4.5s5.5 -6.16699 7.5 -9.5c1.33301 -2.66699 2.66602 -5.16699 3.99902 -7.5s1.66602 -4.16602 0.999023 -5.49902l2 1c17.333 7.33301 37.666 14.833 60.999 22.5s45 11.5 65 11.5
c11.333 0 22.333 -2 33 -6s16 -11 16 -21c0 -7.33301 -5.33301 -14.833 -16 -22.5s-23.667 -14.834 -39 -21.501s-31.833 -12.667 -49.5 -18s-33.5 -9 -47.5 -11c-6 -1.33301 -9 -7 -9 -17c0 -11.333 3 -21.666 9 -30.999s13.333 -17.5 22 -24.5
s17.834 -12.833 27.501 -17.5s18.5 -8 26.5 -10c18.667 -5.33301 38.334 -13 59.001 -23s39.667 -22.167 57 -36.5s31.666 -30.833 42.999 -49.5s17 -39.334 17 -62.001c0 -7.33301 -1.33301 -15.5 -4 -24.5s-7 -17.5 -13 -25.5h2c-16.667 -31.333 -38 -56.333 -64 -75
s-53.5 -33.167 -82.5 -43.5s-58 -17.333 -87 -21s-54.5 -5.5 -76.5 -5.5c-6 -1.33301 -12.833 -2.16602 -20.5 -2.49902s-15.5 -0.5 -23.5 -0.5c-2.66699 0 -5.33398 -0.166992 -8.00098 -0.5s-5.66699 -0.5 -9 -0.5h-1zM447.007 505.003c2 -0.666992 4.33301 -1 7 -1h-8
c0.666992 0 1 0.333008 1 1zM439.007 506.003c1.33301 -0.666992 4 -1 8 -1l30 15c2.66699 2.66699 3 5.16699 1 7.5s-4.66699 4.33301 -8 6s-6.5 3 -9.5 4s-4.16699 1.5 -3.5 1.5c-3.33301 0 -8.16602 -1.83301 -14.499 -5.5s-9.5 -9.16699 -9.5 -16.5
c0 -5.33301 0.666992 -8.5 2 -9.5s2.66602 -1.5 3.99902 -1.5z" />
    <glyph glyph-name="T" unicode="T" horiz-adv-x="660" 
d="M479 80c-8 -17.333 -16.502 -32.832 -25.502 -46.499s-19.5 -21.167 -31.5 -22.5c-10.667 -1.33301 -19.5 -2.33301 -26.5 -3s-13.167 -1 -18.5 -1c-11.333 0 -17 2 -17 6c0 3.33301 2.33301 7.66602 7 12.999s9.33398 11.666 14.001 18.999
c3.33301 6 7.33301 15.167 12 27.5s9.33398 25.333 14.001 39s8.66699 26.667 12 39s5.33301 21.166 6 26.499c7.33301 25.333 14.5 53.833 21.5 85.5s10.5 63.5 10.5 95.5c0 21.333 -2.16699 41.333 -6.5 60s-11.833 35.667 -22.5 51c-0.666992 0.666992 -1 1.66699 -1 3
c0 4 3.66699 6 11 6c10 0 24 -4 42 -12s33.333 -19 46 -33c4 -4.66699 7.5 -14.334 10.5 -29.001s4.5 -29.667 4.5 -45c0 -3.33301 -0.166992 -6.16602 -0.5 -8.49902s-0.5 -4.83301 -0.5 -7.5c-2 -23.333 -5 -47.166 -9 -71.499s-8.5 -48.166 -13.5 -71.499
s-10.667 -45.333 -17 -66s-13.5 -38.667 -21.5 -54zM156.998 359.001c-18.667 0 -37.0029 2.6709 -55.0029 8.00391s-34 13.5 -48 24.5s-25.167 25 -33.5 42s-12.5 36.833 -12.5 59.5c0 24.667 6.16699 45 18.5 61s27.333 28.833 45 38.5s36.334 16.5 56.001 20.5
s37.167 6 52.5 6c39.333 0 76.333 -6.66699 111 -20s68.667 -28 102 -44s66.833 -30.667 100.5 -44s69.167 -20 106.5 -20c12 0 23.833 0.666992 35.5 2s22.5 4.16602 32.5 8.49902s18.5 10.333 25.5 18s11.5 17.5 13.5 29.5v4c0 9.33301 -3 17 -9 23s-9 10 -9 12
c0 0.666992 1 1 3 1h6c2.66699 0 5.66699 -0.666992 9 -2c1.33301 0 7.66602 -3 18.999 -9s23.666 -13.833 36.999 -23.5s25.333 -20.334 36 -32.001s16 -23.5 16 -35.5c0 -17.333 -2.33301 -30.833 -7 -40.5s-10.667 -17 -18 -22s-16 -8.16699 -26 -9.5s-20.333 -2 -31 -2
c-4 0 -9.33301 0.833008 -16 2.5l-21 5.5c-7.33301 2 -14.666 4.16699 -21.999 6.5s-13.333 4.5 -18 6.5c-49.333 17.333 -95.666 34.666 -138.999 51.999l-138 57c-23.333 10 -48 18.333 -74 25s-51.667 10 -77 10c-29.333 0 -53.166 -3.83301 -71.499 -11.5
s-32.666 -17.334 -42.999 -29.001s-17.333 -24 -21 -37s-5.5 -24.833 -5.5 -35.5c0 -19.333 5.33301 -38 16 -56s28.667 -34.667 54 -50z" />
    <glyph glyph-name="U" unicode="U" horiz-adv-x="577" 
d="M363 147c0 21.333 1.16797 43.5 3.50098 66.5s5.33301 46.167 9 69.5s7.5 46.333 11.5 69s8 44 12 64c6 33.333 13 60 21 80s17.5 35.167 28.5 45.5s24 17.166 39 20.499s32.5 5 52.5 5c3.33301 0 6 -1 8 -3c0 -4.66699 -1 -8 -3 -10
c-12 -14 -22.167 -31.833 -30.5 -53.5s-15.333 -45.334 -21 -71.001s-10.334 -51.667 -14.001 -78s-6.33398 -51.166 -8.00098 -74.499s-2.83398 -43.666 -3.50098 -60.999s-1 -29.666 -1 -36.999c0 -40 6.33301 -71.167 19 -93.5s34 -33.5 64 -33.5
c4.66699 0 9.16699 0.333008 13.5 1s8.83301 1 13.5 1c2.66699 0 5.33398 -0.666992 8.00098 -2s4 -4 4 -8c0 -2.66699 -1.66699 -5 -5 -7s-5.66602 -4 -6.99902 -6c-15.333 -8.66699 -32.666 -16 -51.999 -22s-39.333 -9 -60 -9c-11.333 0 -22.333 0.833008 -33 2.5
s-20.334 5.16699 -29.001 10.5s-16.167 12.666 -22.5 21.999s-10.5 22 -12.5 38zM34.001 520c17.333 14 37.668 25.002 61.001 33.002s44 12 62 12c13.333 0 22.666 -4.83301 27.999 -14.5s8 -24.834 8 -45.501c0 -15.333 -2.33301 -29.666 -7 -42.999
c-15.333 -44 -28.666 -90.167 -39.999 -138.5s-17 -95.5 -17 -141.5c0 -13.333 1.16699 -27.166 3.5 -41.499s6.33301 -27.333 12 -39s13 -21.334 22 -29.001s20.5 -11.5 34.5 -11.5c23.333 0 44.833 4.66699 64.5 14s38.834 19.333 57.501 30c12 6.66699 18.5 10 19.5 10
s0.166992 -1.33301 -2.5 -4l-9 -9c-3.33301 -3.33301 -3.66602 -5 -0.999023 -5c-3.33301 0 -7 -1.16699 -11 -3.5l-17 -9.5l-45 -25c-16 -8.66699 -32.333 -16.834 -49 -24.501s-33.334 -13.834 -50.001 -18.501s-32 -7 -46 -7c-23.333 0 -42.833 11.167 -58.5 33.5
s-23.5 52.833 -23.5 91.5c0 4 0.166992 7.83301 0.5 11.5s0.833008 7.5 1.5 11.5c5.33301 43.333 12.166 85 20.499 125s18.166 81.333 29.499 124c3.33301 12 5 27.333 5 46c0 8.66699 -0.5 17.167 -1.5 25.5s-3 15.833 -6 22.5s-6.83301 12.167 -11.5 16.5
s-10.667 6.5 -18 6.5c-4.66699 0 -10 -1 -16 -3z" />
    <glyph glyph-name="V" unicode="V" horiz-adv-x="488" 
d="M54 -2c17.333 44 30.6631 87.8311 39.9961 131.498s14 87.834 14 132.501c0 23.333 -1.5 50.166 -4.5 80.499s-9 59.166 -18 86.499s-21.833 50.333 -38.5 69s-38.334 28 -65.001 28c16.667 7.33301 36 14.833 58 22.5s42 11.5 60 11.5c23.333 0 42.5 -9.66699 57.5 -29
s26.833 -42.666 35.5 -69.999s14.667 -56 18 -86s5 -55.667 5 -77c0 -32 -2.83301 -63 -8.5 -93s-12.167 -61.667 -19.5 -95l-5 -22c0 -2.66699 0.166992 -4.66699 0.5 -6s0.5 -2.66602 0.5 -3.99902c7.33301 1.33301 13.5 3 18.5 5s9.83301 5 14.5 9
c20.667 16.667 41.834 37.167 63.501 61.5s41.834 49.333 60.501 75s35.167 50 49.5 73s24.833 41.833 31.5 56.5s13 31.334 19 50.001s9 35.334 9 50.001c0 6.66699 -0.333008 13.834 -1 21.501s-2 15 -4 22s-5 13.333 -9 19s-9.66699 10.167 -17 13.5
c-7.33301 4 -11 7.66699 -11 11s3.33301 6.83301 10 10.5s14.334 7.16699 23.001 10.5s17.334 6.16602 26.001 8.49902s15 3.5 19 3.5c8.66699 0 16.834 -2.66699 24.501 -8s14.334 -11.833 20.001 -19.5s9.83398 -15.834 12.501 -24.501s3.66699 -16.334 3 -23.001
c-3.33301 -26 -10.5 -50.167 -21.5 -72.5s-23.5 -44 -37.5 -65s-28.833 -41.333 -44.5 -61s-29.834 -39.5 -42.501 -59.5c-17.333 -27.333 -37.666 -54.333 -60.999 -81s-48.833 -51 -76.5 -73s-57.334 -41.167 -89.001 -57.5s-64.834 -28.166 -99.501 -35.499h-20z" />
    <glyph glyph-name="W" unicode="W" horiz-adv-x="915" 
d="M49 521c17.333 14 35.0029 25.498 53.0029 34.498s37.333 13.5 58 13.5c12.667 0 21.167 -5.16699 25.5 -15.5s6.5 -21.5 6.5 -33.5c0 -6.66699 -0.833008 -13.334 -2.5 -20.001s-3.16699 -13.334 -4.5 -20.001c-6 -23.333 -12.5 -47 -19.5 -71s-13.5 -48 -19.5 -72
s-11 -48 -15 -72s-6 -47.333 -6 -70c0 -16.667 1.66699 -34 5 -52s9.33301 -34.333 18 -49s20.5 -26.667 35.5 -36s33.833 -14 56.5 -14c16 0 32.333 3.33301 49 10s32.5 15.5 47.5 26.5s28.5 23.833 40.5 38.5s21.667 29.667 29 45c4.66699 11.333 11.5 20.5 20.5 27.5
s18.833 12.833 29.5 17.5s21.667 8.5 33 11.5s22.333 6.5 33 10.5c-16.667 -27.333 -25 -55 -25 -83c0 -12.667 1 -24.5 3 -35.5s5.66699 -20.5 11 -28.5s13 -14.333 23 -19s23 -7 39 -7c14 0 27.5 2.5 40.5 7.5s25.167 11.333 36.5 19s22.166 16.167 32.499 25.5
s19.5 18.333 27.5 27c30 32 50.833 62.833 62.5 92.5s17.5 54.5 17.5 74.5c0 10.667 -0.666992 21.5 -2 32.5s-4 21.167 -8 30.5s-10 18 -18 26s-18.667 14.667 -32 20c13.333 7.33301 29.166 14 47.499 20s34.166 9 47.499 9c21.333 0 36.833 -6.66699 46.5 -20
s16.167 -31.666 19.5 -54.999c8 -53.333 -8.66699 -109 -50 -167c-21.333 -30 -45.166 -55.5 -71.499 -76.5s-53.166 -38.667 -80.499 -53s-54.333 -25.5 -81 -33.5s-50.334 -13.667 -71.001 -17c-6 -1.33301 -12 -2.5 -18 -3.5s-12 -1.5 -18 -1.5
c-22.667 0 -43.834 6 -63.501 18s-32.167 29.667 -37.5 53c-2 7.33301 -4.66699 11 -8 11c-2.66699 0 -6.66699 -2 -12 -6c-34 -24 -69.667 -43.667 -107 -59s-77 -25.666 -119 -30.999c-0.666992 0 -2.5 -0.166992 -5.5 -0.5s-6.16699 -0.5 -9.5 -0.5h-9.5h-5.5
c-16 0 -30.5 4.5 -43.5 13.5s-24 21 -33 36s-16 32 -21 51s-7.5 38.5 -7.5 58.5c0 24 2.16699 48.5 6.5 73.5s9.5 50 15.5 75s12.333 50 19 75s12.667 49.833 18 74.5l3.5 20.5c1 5.66699 1.5 10.5 1.5 14.5c0 10.667 -4 16.834 -12 18.501s-21.667 0.833984 -41 -2.49902z
" />
    <glyph glyph-name="X" unicode="X" horiz-adv-x="692" 
d="M89 533l53.9971 24.9951c18 8.66699 36.667 13 56 13c18.667 0 35.167 -4.5 49.5 -13.5s27 -20.167 38 -33.5s20.833 -27.833 29.5 -43.5s17 -29.834 25 -42.501c6.66699 -12 12.334 -18 17.001 -18c2 0 6.66699 2.66699 14 8s15.5 12 24.5 20l28 25
c9.66699 8.66699 17.5 16.334 23.5 23.001c14 14.667 29.667 23 47 25s35.333 3.66699 54 5c-2.66699 -7.33301 -5.83398 -12.666 -9.50098 -15.999s-7.5 -6.33301 -11.5 -9l-61 -40c-20 -13.333 -39 -28.666 -57 -45.999c-9.33301 -9.33301 -16.833 -15.166 -22.5 -17.499
s-8.5 -6.16602 -8.5 -11.499c0 -4 1.33301 -9 4 -15s6 -13 10 -21c13.333 -25.333 30.666 -54.166 51.999 -86.499l67 -102.5l27 -41.5c10 -15 20.833 -30.333 32.5 -46s24 -30.667 37 -45s26.5 -27.5 40.5 -39.5c20 -16.667 41 -29.834 63 -39.501s50 -13.167 84 -10.5
c14.667 1.33301 28.834 4.5 42.501 9.5s27.5 7.5 41.5 7.5c4.66699 0 7 -2.66699 7 -8c0 -2 -5.5 -5.16699 -16.5 -9.5s-24.333 -8.83301 -40 -13.5s-32.334 -9 -50.001 -13s-33.167 -6 -46.5 -6c-35.333 -0.666992 -68.166 4.83301 -98.499 16.5s-58.666 27.5 -84.999 47.5
s-50.666 43.167 -72.999 69.5s-43.166 53.833 -62.499 82.5s-37.5 57.834 -54.5 87.501l-47.5 83.5c-5.33301 9.33301 -10.333 14 -15 14c-3.33301 0 -9.5 -4.83301 -18.5 -14.5l-28.5 -29.5c-37.333 -37.333 -73 -75.666 -107 -114.999l-103 -119l-26.5 -30
c-7.66699 -8.66699 -17.834 -21.334 -30.501 -38.001c-4 -6.66699 -8.83301 -13.334 -14.5 -20.001s-11.167 -11 -16.5 -13c-3.33301 -1.33301 -6.33301 -0.5 -9 2.5s-4 5.83301 -4 8.5c0 4 1.83301 8.16699 5.5 12.5l9.5 11.5c49.333 70 101.333 135.167 156 195.5
l168 184.5l-8 22l-30.5 51c-11 18 -22.833 34.667 -35.5 50s-26.167 28.166 -40.5 38.499s-28.833 15.5 -43.5 15.5c-7.33301 0 -15.166 -1.16699 -23.499 -3.5s-16.833 -4.16602 -25.5 -5.49902c-3.33301 2 -4.33301 4.16699 -3 6.5s3.5 4.5 6.5 6.5s6 3.83301 9 5.5
s4.5 2.83398 4.5 3.50098z" />
    <glyph glyph-name="Y" unicode="Y" horiz-adv-x="497" 
d="M0 14c11.333 8 22.833 14.3369 34.5 19.0039s23.5 7 35.5 7c12.667 0 26 -3 40 -9c6 -2.66699 12.667 -4.83398 20 -6.50098s14.666 -3 21.999 -4s14.166 -1.66699 20.499 -2s11.5 -0.5 15.5 -0.5c48 -0.666992 84.667 11.333 110 36s40.666 59 45.999 103
c2 17.333 5.16699 34.5 9.5 51.5s6.83301 34.167 7.5 51.5c0 11.333 -2.66699 17 -8 17c-2.66699 0 -7 -1.66699 -13 -5s-12.5 -7.16602 -19.5 -11.499l-22 -14c-7.66699 -5 -14.5 -8.83301 -20.5 -11.5c-8 -4 -17.5 -7.5 -28.5 -10.5s-22.333 -5.5 -34 -7.5
s-23 -3.5 -34 -4.5s-20.5 -1.5 -28.5 -1.5c-26 0 -47.167 3.16699 -63.5 9.5s-29.166 14.833 -38.499 25.5s-15.833 23.167 -19.5 37.5s-5.5 29.833 -5.5 46.5c0 12.667 1.33301 25.334 4 38.001s5.83398 25.5 9.50098 38.5s6.83398 25.833 9.50098 38.5s4 25.334 4 38.001
c0 14 -3.33301 24.333 -10 31s-18 11.667 -34 15c2.66699 4.66699 9.16699 9.5 19.5 14.5s21.5 9.5 33.5 13.5s24 7.16699 36 9.5s21.667 3.5 29 3.5c10.667 0 19.5 -4.83301 26.5 -14.5s10.5 -21.834 10.5 -36.501c0 -13.333 -1.5 -26.833 -4.5 -40.5
s-6.5 -27.334 -10.5 -41.001s-7.5 -27.334 -10.5 -41.001s-4.5 -27.167 -4.5 -40.5c0 -38 11.5 -64.167 34.5 -78.5s52.833 -21.5 89.5 -21.5c33.333 0 58.166 7.5 74.499 22.5s28.833 34.333 37.5 58s15.5 49.667 20.5 78s12.833 55.833 23.5 82.5
c4.66699 11.333 12.167 22.5 22.5 33.5s26.5 16.5 48.5 16.5c2 0 4.83301 -0.333008 8.5 -1l11 -2c3.66699 -0.666992 7.16699 -1.5 10.5 -2.5s5.33301 -1.83301 6 -2.5c1.33301 -2 2 -4.5 2 -7.5s-0.5 -6.16699 -1.5 -9.5s-2 -6.16602 -3 -8.49902s-1.5 -3.83301 -1.5 -4.5
c-4.66699 -20.667 -8.66699 -40.334 -12 -59.001l-9.5 -55l-9.5 -55.5c-3.33301 -19 -7.33301 -39.167 -12 -60.5l-17.5 -85.5c-5.66699 -27.667 -13.667 -53.334 -24 -77.001s-24.166 -44.334 -41.499 -62.001s-41 -30.834 -71 -39.501c-13.333 -4 -29 -7.83301 -47 -11.5
s-36.5 -7 -55.5 -10s-37.833 -5.16699 -56.5 -6.5s-35.334 -2 -50.001 -2c-19.333 0 -38.166 2.66699 -56.499 8s-36.5 12.333 -54.5 21z" />
    <glyph glyph-name="Z" unicode="Z" horiz-adv-x="533" 
d="M594 533c-50 -27.333 -95.499 -56.332 -136.499 -86.999s-79.667 -63.667 -116 -99s-70.833 -73.5 -103.5 -114.5s-65.334 -85.5 -98.001 -133.5c4.66699 0 10.5 1.16699 17.5 3.5s12.167 4.16602 15.5 5.49902c20.667 5.33301 38.5 8 53.5 8h52.5
c43.333 0 82 -10.167 116 -30.5s69 -51.5 105 -93.5l52 -65.5c14 -18.333 28.5 -33.5 43.5 -45.5s32.667 -20.833 53 -26.5s47.5 -8.5 81.5 -8.5c12.667 0 25.5 1 38.5 3s25.5 3 37.5 3c3.33301 0 7 -1 11 -3c-4 -5.33301 -12.5 -9.83301 -25.5 -13.5s-28 -6.66699 -45 -9
s-34.167 -4 -51.5 -5s-32.333 -1.5 -45 -1.5c-14 0 -28.5 0.5 -43.5 1.5s-29.833 3 -44.5 6s-28.834 7.16699 -42.501 12.5s-25.5 12.666 -35.5 21.999c-19.333 17.333 -37.5 35 -54.5 53s-32.833 37.667 -47.5 59c-23.333 34 -52.666 58.333 -87.999 73s-73 22 -113 22
c-33.333 0 -59.333 -5.16699 -78 -15.5s-36.667 -23.166 -54 -38.499c-8.66699 -7.33301 -17.167 -10.666 -25.5 -9.99902s-15.5 1 -21.5 1c55.333 86.667 117.166 166.667 185.499 240s141.833 141.333 220.5 204c-15.333 -4 -29.5 -7 -42.5 -9s-27.167 -3 -42.5 -3
c-26 0 -51.167 4.66699 -75.5 14s-47.833 22.666 -70.5 39.999c-8.66699 6 -16.667 10.5 -24 13.5s-15 4.5 -23 4.5c-4.66699 0 -9.66699 -1 -15 -3s-10.666 -4.16699 -15.999 -6.5l-15 -6.5c-4.66699 -2 -8.33398 -3 -11.001 -3c-1.33301 0 -3 0.5 -5 1.5
s-3 3.16699 -3 6.5s2.16699 7.33301 6.5 12s9.83301 9.5 16.5 14.5s13.667 9.66699 21 14s14 7.83301 20 10.5c5.33301 2 13.666 3.5 24.999 4.5s19.666 1.5 24.999 1.5c12.667 0 24.834 -2.16699 36.501 -6.5s23.334 -9.5 35.001 -15.5l35 -18.5
c11.667 -6.33301 24.5 -11.5 38.5 -15.5c10 -3.33301 22.667 -6.83301 38 -10.5s28 -5.5 38 -5.5c27.333 0 51.666 3.33301 72.999 10s45.333 16 72 28c2.66699 1.33301 5.33398 2.5 8.00098 3.5s5.33398 2.16699 8.00098 3.5c4 1.33301 8 2.5 12 3.5s8 1.5 12 1.5
s7 -0.333008 9 -1z" />
    <glyph glyph-name="a" unicode="a" horiz-adv-x="472" 
d="M366 282c-11.333 -3.33301 -22.3311 -7.16602 -32.998 -11.499s-21.667 -6.5 -33 -6.5s-23.666 3.16699 -36.999 9.5s-25.666 9.5 -36.999 9.5c-13.333 0 -26.333 -3.66699 -39 -11s-24.334 -17 -35.001 -29s-19.167 -25.333 -25.5 -40s-9.5 -29.334 -9.5 -44.001
c0 -19.333 3.33301 -35.166 10 -47.499s15.167 -22 25.5 -29s21.666 -11.667 33.999 -14s24.166 -3.5 35.499 -3.5h14h8.5c2.33301 0 5.16602 0.333008 8.49902 1c-14 -21.333 -31.833 -37.333 -53.5 -48s-44.167 -16 -67.5 -16c-12.667 0 -26 1.83301 -40 5.5
s-27 9.16699 -39 16.5s-22 16.666 -30 27.999s-12 25 -12 41c0 29.333 7 55.833 21 79.5s30.667 46.834 50 69.501c16.667 8 34.5 17.333 53.5 28l57 30.5c19 9.66699 37.667 17.667 56 24s35.5 9.5 51.5 9.5c6.66699 0 15.167 -0.166992 25.5 -0.5s20.333 -1.5 30 -3.5
s18 -5.33301 25 -10s10.5 -11.334 10.5 -20.001c0 -5.33301 -2.83301 -9.5 -8.5 -12.5s-11.167 -4.83301 -16.5 -5.5zM478.002 42c-41.333 -32 -74.334 -48.001 -99.001 -48.001c-28.667 0 -48 21.333 -58 64c1.33301 3.33301 2 6.16602 2 8.49902v7.5
c0 6.66699 -2.33301 10 -7 10c-2 0 -5 -1.16699 -9 -3.5s-9.33301 -3.5 -16 -3.5c-4.66699 0 -7 1.66699 -7 5c0 2.66699 0.666992 5 2 7l8 11l28.5 37.5c9.66699 12.333 20.334 23.5 32.001 33.5s24.667 18.667 39 26s30.5 12.333 48.5 15
c0 -15.333 -2.16699 -32.166 -6.5 -50.499s-6.5 -36.166 -6.5 -53.499c0 -13.333 3.33301 -25.5 10 -36.5s19.667 -20.833 39 -29.5z" />
    <glyph glyph-name="b" unicode="b" horiz-adv-x="457" 
d="M282 41c-24.667 -8 -49.168 -16.8311 -73.501 -26.498s-49.5 -14.5 -75.5 -14.5c-16 0 -31.333 2.33301 -46 7l-6 6c-0.666992 0.666992 -1.16699 1.33398 -1.5 2.00098s-1.16602 1.33398 -2.49902 2.00098l-12 17c-2.66699 4 -4.83398 8 -6.50098 12l-5.5 13l-5 13
c0 2 -0.666992 4.66699 -2 8s-2 6 -2 8l-5 17v18c0 6 -0.333008 12 -1 18l4 38l33.5 172.5c11 57 21.5 114.5 31.5 172.5c0 4.66699 0.666992 9.16699 2 13.5s2 8.83301 2 13.5c0 9.33301 -3.33301 17.666 -10 24.999s-20.667 11 -42 11h-4l65.5 37.5
c18.333 11 34.833 16.5 49.5 16.5c12.667 0 23.5 -6.83301 32.5 -20.5s13.5 -27.5 13.5 -41.5c0 -6.66699 -1 -13.334 -3 -20.001c-19.333 -66 -34.666 -132 -45.999 -198s-20.333 -133 -27 -201c0 -2.66699 -0.166992 -5 -0.5 -7s-0.5 -4.33301 -0.5 -7
c0 -12.667 2.16699 -25 6.5 -37s10.333 -22.667 18 -32s16.5 -16.833 26.5 -22.5s21 -8.5 33 -8.5c16 0 30.333 4.83301 43 14.5s23.5 21.5 32.5 35.5s16 29 21 45s7.5 30.667 7.5 44c0 30 -6.16699 52.833 -18.5 68.5s-31.5 23.5 -57.5 23.5c-13.333 0 -27.333 -2 -42 -6
l-4 6l29 21c10 7.33301 20.333 14 31 20s21.5 11 32.5 15s22.167 6 33.5 6c26.667 0 48.834 -10 66.501 -30s26.5 -46.667 26.5 -80c0 -21.333 -3.5 -41.833 -10.5 -61.5s-16.667 -37.834 -29 -54.501s-27.333 -31.334 -45 -44.001s-36.834 -22 -57.501 -28z" />
    <glyph glyph-name="c" unicode="c" horiz-adv-x="382" 
d="M366 282c-11.333 -3.33301 -22.332 -7.16699 -32.999 -11.5s-21.667 -6.5 -33 -6.5s-23.666 3.16699 -36.999 9.5s-25.666 9.5 -36.999 9.5c-13.333 0 -26.333 -3.66699 -39 -11s-24.334 -17 -35.001 -29s-19.167 -25.333 -25.5 -40s-9.5 -29.334 -9.5 -44.001
c0 -19.333 3.33301 -35.166 10 -47.499s15.167 -22 25.5 -29s21.666 -11.667 33.999 -14s24.166 -3.5 35.499 -3.5h14c1.33301 0 5.33301 0.333008 12 1s14 1.33398 22 2.00098s15.333 1.33398 22 2.00098s10.667 1 12 1c-7.33301 -10.667 -18.166 -20.334 -32.499 -29.001
s-29.833 -16 -46.5 -22s-33.334 -10.5 -50.001 -13.5s-31 -4.5 -43 -4.5c-12.667 0 -26 1.83301 -40 5.5s-27 9.16699 -39 16.5s-22 16.666 -30 27.999s-12 25 -12 41c0 29.333 7 55.833 21 79.5s30.667 46.834 50 69.501c16.667 8 34.5 17.333 53.5 28l57 30.5
c19 9.66699 37.667 17.667 56 24s35.5 9.5 51.5 9.5c6.66699 0 15.167 -0.166992 25.5 -0.5s20.333 -1.5 30 -3.5s18 -5.33301 25 -10s10.5 -11.334 10.5 -20.001c0 -5.33301 -2.83301 -9.5 -8.5 -12.5s-11.167 -4.83301 -16.5 -5.5z" />
    <glyph glyph-name="d" unicode="d" horiz-adv-x="548" 
d="M501 42c-5.33301 -7.33301 -12.1689 -11.8359 -20.502 -13.5029s-16.166 -3.83398 -23.499 -6.50098c-19.333 -7.33301 -35 -11.833 -47 -13.5s-21.667 -0.166992 -29 4.5s-12.5 12.834 -15.5 24.501s-4.83301 27.5 -5.5 47.5c0 5.33301 0.166992 10.333 0.5 15
s0.5 9.66699 0.5 15c-0.666992 5.33301 -0.333984 10.5 0.999023 15.5s-1 9.16699 -7 12.5c-5.33301 2.66699 -9.83301 1 -13.5 -5s-7.83398 -10 -12.501 -12c-7.33301 -4.66699 -14.166 -9.5 -20.499 -14.5s-14.5 -8.83301 -24.5 -11.5
c30.667 31.333 55.334 65.833 74.001 103.5s33.667 76.5 45 116.5s20.666 80.5 27.999 121.5s15 80.5 23 118.5c-4.66699 2.66699 -9 3.83398 -13 3.50098s-7.83301 -1.16602 -11.5 -2.49902s-7.5 -2.5 -11.5 -3.5s-8.33301 -0.166992 -13 2.5
c16.667 22.667 36 40.667 58 54s46 24 72 32l36 -3l-52 -234l-49 -223c-7.33301 -34 -9.16602 -63.167 -5.49902 -87.5s15.834 -43.166 36.501 -56.499zM365.997 281.997c-11.333 -3.33301 -22.3311 -7.16602 -32.998 -11.499s-21.667 -6.5 -33 -6.5
s-23.666 3.16699 -36.999 9.5s-25.666 9.5 -36.999 9.5c-13.333 0 -26.333 -3.66699 -39 -11s-24.334 -17 -35.001 -29s-19.167 -25.333 -25.5 -40s-9.5 -29.334 -9.5 -44.001c0 -19.333 3.33301 -35.166 10 -47.499s15.167 -22 25.5 -29s21.666 -11.667 33.999 -14
s24.166 -3.5 35.499 -3.5h14h8.5c2.33301 0 5.16602 0.333008 8.49902 1c-14 -21.333 -31.833 -37.333 -53.5 -48s-44.167 -16 -67.5 -16c-12.667 0 -26 1.83301 -40 5.5s-27 9.16699 -39 16.5s-22 16.666 -30 27.999s-12 25 -12 41c0 29.333 7 55.833 21 79.5
s30.667 46.834 50 69.501c16.667 8 34.5 17.333 53.5 28l57 30.5c19 9.66699 37.667 17.667 56 24s35.5 9.5 51.5 9.5c6.66699 0 15.167 -0.166992 25.5 -0.5s20.333 -1.5 30 -3.5s18 -5.33301 25 -10s10.5 -11.334 10.5 -20.001c0 -5.33301 -2.83301 -9.5 -8.5 -12.5
s-11.167 -4.83301 -16.5 -5.5z" />
    <glyph glyph-name="e" unicode="e" horiz-adv-x="370" 
d="M296 224l-7.99609 0.00585938l-34 -12c-11.333 -4 -22.166 -7.5 -32.499 -10.5s-20.833 -4.5 -31.5 -4.5c-1.33301 -0.666992 -2.5 -0.833984 -3.5 -0.500977s-2.5 0.166016 -4.5 -0.500977c0 -0.666992 -0.333008 -1.33398 -1 -2.00098s-1.33398 -1 -2.00098 -1
s-1.33398 -0.666992 -2.00098 -2c-4 -3.33301 -8.83301 -5.33301 -14.5 -6s-11.167 -1.5 -16.5 -2.5s-10 -2.66699 -14 -5s-6.33301 -6.83301 -7 -13.5l-3 -6c0 -19.333 3.33301 -35.166 10 -47.499s15.167 -22 25.5 -29s21.666 -11.667 33.999 -14s24.166 -3.5 35.499 -3.5
h14c1.33301 0 5.66602 0.333008 12.999 1s15.333 1.5 24 2.5s16.667 2 24 3s11.666 1.5 12.999 1.5c-7.33301 -10.667 -18.5 -20.334 -33.5 -29.001s-31.167 -16.167 -48.5 -22.5s-34.666 -11.166 -51.999 -14.499s-32 -5 -44 -5c-12.667 0 -26 1.83301 -40 5.5
s-27 9.16699 -39 16.5s-22 16.666 -30 27.999s-12 25 -12 41c0 14 2.5 29.667 7.5 47s13 35.166 24 53.499s25.333 36.666 43 54.999s39.5 35.5 65.5 51.5c16 6.66699 30.167 11.834 42.5 15.501s24.333 6 36 7s23 0.333008 34 -2s22.833 -6.5 35.5 -12.5
c11.333 -5.33301 21.333 -12 30 -20s12.667 -18.667 12 -32c0 -6.66699 -1.66699 -11.834 -5 -15.501s-7.5 -6.33398 -12.5 -8.00098s-10.333 -3 -16 -4s-11.167 -2.16699 -16.5 -3.5zM184.004 197.006h-1c2 4.66699 4.5 8.16699 7.5 10.5s6.33301 4 10 5
s7.5 1.83301 11.5 2.5s8 1.66699 12 3c12.667 4.66699 20 11.334 22 20.001s-0.333008 17.667 -7 27c-4.66699 7.33301 -10.334 13.333 -17.001 18c-28.667 4.66699 -50 1.33398 -64 -9.99902s-23.333 -26 -28 -44v-14c0.666992 -10 3 -15.833 7 -17.5
s8.5 -1.83398 13.5 -0.500977l15.5 4c5.33301 1.33301 9.66602 0.666016 12.999 -2.00098c0.666992 0 1.33398 -0.333008 2.00098 -1s1.33398 -1 2.00098 -1l-1 -1c0.666992 0 1 0.166992 1 0.5s0.333008 0.5 1 0.5z" />
    <glyph glyph-name="f" unicode="f" horiz-adv-x="241" 
d="M266 607c10 1.33301 17.168 1.16699 21.501 -0.5s6.5 -3.83398 6.5 -6.50098s-2.33301 -5.5 -7 -8.5s-11 -5.5 -19 -7.5c-14 -1.33301 -26.5 -11.833 -37.5 -31.5s-20.5 -42.834 -28.5 -69.501s-14.5 -54 -19.5 -82s-8.5 -51 -10.5 -69
c-0.666992 -11.333 2.16602 -16.666 8.49902 -15.999s12.833 1.66699 19.5 3c6 2 12.833 4 20.5 6s15.167 3.66699 22.5 5s14.5 2.33301 21.5 3s12.5 0.666992 16.5 0c-10.667 -15.333 -23.834 -26.166 -39.501 -32.499l-40.5 -16.5l-20.5 -8c-5 -2 -9 -4.5 -12 -7.5
s-5.33301 -7 -7 -12s-3.16699 -11.833 -4.5 -20.5c-11.333 -72.667 -26.833 -143.5 -46.5 -212.5s-43.167 -137.833 -70.5 -206.5c-21.333 -56 -49.5 -106.167 -84.5 -150.5s-79.5 -81.5 -133.5 -111.5c-5.33301 -1.33301 -10.166 -3.16602 -14.499 -5.49902
s-9.16602 -4.5 -14.499 -6.5c-1.33301 -1.33301 -3 -2.33301 -5 -3s-4 -1.66699 -6 -3c-2.66699 -1.33301 -5 -2.66602 -7 -3.99902c-7.33301 2 -11 4.5 -11 7.5s1.5 6 4.5 9s6.33301 5.66699 10 8s6.16699 4.16602 7.5 5.49902c32.667 26.667 60.834 55.834 84.501 87.501
s44 65 61 100s31 71.5 42 109.5s20.5 77 28.5 117c12 42 21.333 81.333 28 118l21 112l4 21c2 10.667 4 22.334 6 35.001l6 37.5c2 12.333 3.66699 22.166 5 29.499c3.33301 23.333 7.83301 46.333 13.5 69s12.167 45 19.5 67c4.66699 15.333 11.167 30.333 19.5 45
s18 28.167 29 40.5s23.167 22.666 36.5 30.999s27.666 14.166 42.999 17.499c7.33301 1.33301 13.666 2.83301 18.999 4.5s10 2.5 14 2.5z" />
    <glyph glyph-name="g" unicode="g" horiz-adv-x="432" 
d="M406 162c4.66699 -4 7.00293 -7.99707 7.00293 -11.9971c0 -4.66699 -1.5 -9.33398 -4.5 -14.001s-5.16699 -9.33398 -6.5 -14.001c-3.33301 -12.667 -6.83301 -24.834 -10.5 -36.501l-11.5 -35.5c-14.667 -54 -30.834 -103.667 -48.501 -149
s-37.334 -84.5 -59.001 -117.5s-45.334 -59.333 -71.001 -79s-54 -30.5 -85 -32.5s-64.833 5.5 -101.5 22.5s-76.667 45.167 -120 84.5l-3.5 3.5l-3.5 3.5c-0.666992 8 2 10.167 8 6.5s14.667 -9.83398 26 -18.501s25.5 -17.834 42.5 -27.501s36.167 -16.5 57.5 -20.5
c16 -3.33301 35 -4.16602 57 -2.49902s42.667 8.83398 62 21.501c21.333 14 39.333 33.333 54 58s27.5 51.834 38.5 81.501s21.333 59.667 31 90s20.5 58.166 32.5 83.499c-3.33301 5.33301 -8.33301 8 -15 8h-7c8.66699 5.33301 16.5 11.833 23.5 19.5s13.667 15.5 20 23.5
s13.333 15.5 21 22.5s16.5 12.5 26.5 16.5c5.33301 2 10.833 5.16699 16.5 9.5s11.167 6.5 16.5 6.5c0.666992 0 3 -0.666992 7 -2zM164.003 12.0029c-5.33301 -1.33301 -10.165 -2.00293 -14.498 -2.00293h-12.5c-29.333 0 -53.166 7.83301 -71.499 23.5
s-30.833 39.5 -37.5 71.5c4 29.333 13.833 57.833 29.5 85.5s35.167 52.334 58.5 74.001s49.5 39 78.5 52s58.833 19.5 89.5 19.5c4 0 10.333 -0.5 19 -1.5s17.167 -2.66699 25.5 -5s15.833 -5.83301 22.5 -10.5s10 -11 10 -19c0 -2 -2.83301 -5.16699 -8.5 -9.5
s-12.5 -8.83301 -20.5 -13.5s-16.5 -8.83398 -25.5 -12.501s-16.5 -5.5 -22.5 -5.5c-5.33301 0 -12.333 1.66699 -21 5c-24 10 -44 15 -60 15c-10.667 0 -20.5 -3.33301 -29.5 -10s-16.833 -15.167 -23.5 -25.5s-11.834 -22.166 -15.501 -35.499s-5.5 -26.666 -5.5 -39.999
c0 -23.333 5.5 -42.166 16.5 -56.499s27.167 -27.166 48.5 -38.499c9.33301 -2.66699 21.166 -4 35.499 -4s29.166 -1.33301 44.499 -4c0 -6 -4.5 -11.833 -13.5 -17.5s-19.5 -11 -31.5 -16s-24.167 -9.33301 -36.5 -13s-21.833 -5.83398 -28.5 -6.50098z" />
    <glyph glyph-name="h" unicode="h" horiz-adv-x="444" 
d="M423 -160l-47.4932 -13.002c-14.333 -4 -27.5 -6 -39.5 -6c-23.333 0 -41.833 7.16699 -55.5 21.5s-20.5 33.833 -20.5 58.5c0 16.667 1.33301 31.334 4 44.001c9.33301 39.333 16.666 78.833 21.999 118.5l16 119.5c0.666992 4 1.16699 8 1.5 12s0.5 8.33301 0.5 13
c0 5.33301 -0.666992 12.833 -2 22.5s-4 19.334 -8 29.001s-9.33301 18 -16 25s-15.334 10.5 -26.001 10.5c-4.66699 0 -8.33398 -0.333008 -11.001 -1c-7.33301 -2 -13.666 -4.33301 -18.999 -7c-4.66699 -2.66699 -9 -5.5 -13 -8.5s-6 -6.16699 -6 -9.5
c6.66699 24.667 18.167 42.834 34.5 54.501s34.166 17.5 53.499 17.5c13.333 0 26.666 -2.83301 39.999 -8.5s25.166 -14 35.499 -25s18.833 -24.667 25.5 -41s10 -35.166 10 -56.499s-1.66699 -43.5 -5 -66.5s-7.33301 -46.333 -12 -70s-9.83398 -47.334 -15.501 -71.001
s-10.5 -46.834 -14.5 -69.501c-0.666992 -3.33301 -1 -8.33301 -1 -15c0 -10 2 -18.667 6 -26s9.16699 -14 15.5 -20s13.666 -11.5 21.999 -16.5zM229.007 570.998c-9.33301 -57.333 -19.3311 -114.17 -29.998 -170.503l-31 -170.5
c-7.33301 -41.333 -12.5 -74.666 -15.5 -99.999s-7.66699 -46.166 -14 -62.499s-16.833 -29.333 -31.5 -39s-37.334 -19.167 -68.001 -28.5c-3.33301 8.66699 -5 16.334 -5 23.001c0 13.333 2.66699 26 8 38s8.33301 24.333 9 37c16 68.667 28.667 137.5 38 206.5
s20.666 138.167 33.999 207.5c0.666992 3.33301 1.16699 6.83301 1.5 10.5s0.5 7.16699 0.5 10.5c0 12 -3.33301 22.333 -10 31s-19.334 13.667 -38.001 15c6.66699 8 14.667 15.5 24 22.5s18.833 12.833 28.5 17.5s18.834 8.33398 27.501 11.001s15.667 4 21 4
c13.333 0 25.333 -5.33301 36 -16s16 -23.334 16 -38.001c0 -1.33301 -0.166992 -2.83301 -0.5 -4.5s-0.5 -3.16699 -0.5 -4.5z" />
    <glyph glyph-name="i" unicode="i" 
d="M129 85l0.00292969 -6.99707c0 -10.667 2 -20 6 -28s12.667 -13 26 -15c-2 -3.33301 -6.83301 -7 -14.5 -11s-16.167 -7.66699 -25.5 -11s-18.833 -6.16602 -28.5 -8.49902s-17.167 -3.5 -22.5 -3.5c-9.33301 0 -17.333 1.83301 -24 5.5s-12.167 8.16699 -16.5 13.5
s-7.66602 11.166 -9.99902 17.499s-3.5 12.5 -3.5 18.5c0 13.333 2.66699 27.333 8 42s8.66602 28.667 9.99902 42c20.667 48 31 89.333 31 124c0 23.333 -5 42.666 -15 57.999c12 3.33301 23.667 6.16602 35 8.49902s22.333 6.16602 33 11.499
c5.33301 2.66699 10.166 4.83398 14.499 6.50098s9.16602 2.5 14.499 2.5c9.33301 0 18.166 -5.33301 26.499 -16s12.5 -22.334 12.5 -35.001c0 -6 -1 -12 -3 -18c-9.33301 -32.667 -19.5 -65.167 -30.5 -97.5s-18.833 -65.5 -23.5 -99.5zM189.003 450.003
c2.66699 -1.33301 1.16699 -3.50293 -4.5 -6.50293s-13 -6 -22 -9s-18 -5.66699 -27 -8s-15.833 -3.5 -20.5 -3.5c-20 -1.33301 -32.5 2.66699 -37.5 12s-7 19.833 -6 31.5s2.16699 22.334 3.5 32.001s-1.66699 14.167 -9 13.5c9.33301 2.66699 18.666 5.16699 27.999 7.5
s18.333 5.5 27 9.5c4 1.33301 7.83301 2.83301 11.5 4.5s7.83398 2.83398 12.501 3.50098c13.333 0.666992 21 -2.33301 23 -9s2.5 -14.667 1.5 -24s-1 -19.166 0 -29.499s7.5 -18.5 19.5 -24.5z" />
    <glyph glyph-name="j" unicode="j" horiz-adv-x="189" 
d="M189 440c0 -2 -3.16895 -4.33105 -9.50195 -6.99805s-13.833 -5.5 -22.5 -8.5s-17.167 -5.66699 -25.5 -8s-14.833 -3.5 -19.5 -3.5h-7c-15.333 0 -25.333 3.66699 -30 11s-7 16 -7 26c0 8 0.666992 16 2 24s2 14.667 2 20c0 7.33301 -2.33301 11 -7 11h-2
c9.33301 2.66699 18.833 5 28.5 7s19.167 5 28.5 9c3.33301 1.33301 6.83301 2.83301 10.5 4.5s7.83398 3.16699 12.501 4.5h3c9.33301 0 15.5 -2.16699 18.5 -6.5s4.5 -9.5 4.5 -15.5c0 -4.66699 -0.333008 -9.33398 -1 -14.001s-1 -9.66699 -1 -15
c0 -7.33301 1.33301 -14.333 4 -21s8.33398 -12.334 17.001 -17.001zM182.998 297.002c1.33301 -7.33301 0.330078 -13.999 -3.00293 -19.999c-5.33301 -25.333 -12.166 -52.333 -20.499 -81s-16.833 -56.5 -25.5 -83.5l-23.5 -74.5
c-7 -22.667 -11.833 -40.334 -14.5 -53.001c-10.667 -37.333 -23.667 -71.166 -39 -101.499s-32.666 -56.5 -51.999 -78.5s-40.166 -39.333 -62.499 -52s-45.5 -19.334 -69.5 -20.001c-30 -1.33301 -64.833 6 -104.5 22s-81.167 44 -124.5 84c0 5.33301 1.33301 8 4 8
c4 0 10.833 -3.66699 20.5 -11s21.834 -15.166 36.501 -23.499s31.834 -15.833 51.501 -22.5s41.167 -9.33398 64.5 -8.00098c34.667 2 62.667 11 84 27s39 36.833 53 62.5s25.5 54.5 34.5 86.5s18.833 64.667 29.5 98c4 23.333 8.5 44.333 13.5 63l13.5 51.5
c4 15.667 7.16699 30.334 9.5 44.001s3.16602 26.834 2.49902 39.501c-0.666992 11.333 -2.33398 22 -5.00098 32s-7 18.667 -13 26c9.33301 3.33301 19 7 29 11l28.5 11c9 3.33301 17 6.16602 24 8.49902s12.5 3.5 16.5 3.5c4.66699 0 9.5 -1.33301 14.5 -4
s9.5 -6.33398 13.5 -11.001s7.33301 -10 10 -16s4 -12 4 -18z" />
    <glyph glyph-name="k" unicode="k" horiz-adv-x="422" 
d="M700 -263c-40.667 9.33301 -74.9971 26.498 -102.997 51.498s-54 53.167 -78 84.5c-9.33301 12 -18 24.667 -26 38s-15.667 26.833 -23 40.5s-15.166 27 -23.499 40s-17.5 25.5 -27.5 37.5c-10.667 17.333 -20.834 35.166 -30.501 53.499s-20.167 35.666 -31.5 51.999
s-24.5 31.5 -39.5 45.5s-33.5 25 -55.5 33l34.5 29.5l32.5 27.5c5.33301 8.66699 10.166 17.167 14.499 25.5l13.5 26.5c2 4.66699 3.16699 10 3.5 16s-3.5 8 -11.5 6l-22.5 -4c-7.66699 -1.33301 -15 -3.33301 -22 -6s-13.333 -6.16699 -19 -10.5
s-10.5 -10.166 -14.5 -17.499c-11.333 -24 -24.833 -45.5 -40.5 -64.5s-36.167 -34.5 -61.5 -46.5c6 -6 12.667 -10.667 20 -14s14.5 -7 21.5 -11s13.333 -8.5 19 -13.5s9.83398 -11.833 12.501 -20.5v-2c10.667 -2 16 -8.66699 16 -20
c17.333 -17.333 31.666 -36.666 42.999 -57.999s23.666 -42.333 36.999 -63c11.333 -26.667 24.666 -52 39.999 -76s31.666 -47.667 48.999 -71c79.333 -108.667 184.666 -150.667 315.999 -126c4 0.666992 8.33301 0.833984 13 0.500977s9.5 -0.166016 14.5 0.500977
s10 2.16699 15 4.5s10.167 6.5 15.5 12.5c-19.333 -2 -37.166 -3.5 -53.499 -4.5s-32.166 0.166992 -47.499 3.5zM229.003 570.998c-9.33301 -57.333 -19.3311 -114.17 -29.998 -170.503l-31 -170.5c-7.33301 -41.333 -12.5 -74.666 -15.5 -99.999
s-7.66699 -46.166 -14 -62.499s-16.833 -29.333 -31.5 -39s-37.334 -19.167 -68.001 -28.5c-3.33301 8.66699 -5 16.334 -5 23.001c0 13.333 2.66699 26 8 38s8.33301 24.333 9 37c16 68.667 28.667 137.5 38 206.5s20.666 138.167 33.999 207.5
c0.666992 3.33301 1.16699 6.83301 1.5 10.5s0.5 7.16699 0.5 10.5c0 12 -3.33301 22.333 -10 31s-19.334 13.667 -38.001 15c6.66699 8 14.667 15.5 24 22.5s18.833 12.833 28.5 17.5s18.834 8.33398 27.501 11.001s15.667 4 21 4c13.333 0 25.333 -5.33301 36 -16
s16 -23.334 16 -38.001c0 -1.33301 -0.166992 -2.83301 -0.5 -4.5s-0.5 -3.16699 -0.5 -4.5z" />
    <glyph glyph-name="l" unicode="l" 
d="M127 86l0.00195312 -6.99902c0 -10.667 1.83301 -20 5.5 -28s12.167 -13.333 25.5 -16c-2 -3.33301 -6.83301 -6.83301 -14.5 -10.5s-16.334 -7.16699 -26.001 -10.5s-19.334 -6 -29.001 -8s-17.167 -3 -22.5 -3c-9.33301 0 -17.166 2 -23.499 6
s-11.666 8.83301 -15.999 14.5s-7.5 11.667 -9.5 18s-3 12.5 -3 18.5c0 13.333 2.83301 27.166 8.5 41.499s9.5 28.166 11.5 41.499c3.33301 8 7.66602 22.667 12.999 44s10.666 46 15.999 74l16 88l14.5 86.5c4.33301 27 7.83301 50.333 10.5 70s4 32.5 4 38.5
s-1.33301 11.333 -4 16s-5.83398 8.83398 -9.50098 12.501s-7.5 7.16699 -11.5 10.5s-7 7 -9 11c2.66699 2 8.16699 5.66699 16.5 11s18 10.333 29 15s23 8.16699 36 10.5s25.5 1.83301 37.5 -1.5c8.66699 -2 16.334 -9.33301 23.001 -22s8 -29 4 -49l-13 -64.5l-17.5 -86
l-19.5 -96l-18.5 -93.5l-15 -79c-4.33301 -23.333 -7.5 -41 -9.5 -53z" />
    <glyph glyph-name="m" unicode="m" horiz-adv-x="603" 
d="M914 -240c4 0.666992 9.17285 1.99609 15.5059 3.99609l19.5 6l19 5.5c6 1.66699 10.667 2.5 14 2.5s5 -0.666992 5 -2c0 -3.33301 -1.66699 -5.66602 -5 -6.99902c-32.667 -14 -65.667 -24.833 -99 -32.5s-67 -11.5 -101 -11.5c-36 0 -74.5 6.16699 -115.5 18.5
s-78.667 30.5 -113 54.5s-63 53.5 -86 88.5s-34.5 75.167 -34.5 120.5c0 20 2.16699 39.833 6.5 59.5s9.33301 39.334 15 59.001s10.667 39.334 15 59.001s6.5 39.834 6.5 60.501c0 12 -2.83301 22.5 -8.5 31.5s-17.834 13.5 -36.501 13.5c-10.667 0 -19.334 -2 -26.001 -6
s-12.334 -9.66699 -17.001 -17s-9 -16.333 -13 -27s-8.33301 -23 -13 -37l-9 -34.5l-10.5 -40.5l-10.5 -41.5c-3.33301 -13.667 -6 -26.5 -8 -38.5c-3.33301 -19.333 -13 -31 -29 -35c-8 -1.33301 -16.167 -4 -24.5 -8s-16.166 -6 -23.499 -6c-6 0 -11.5 1.83301 -16.5 5.5
s-6.83301 7.5 -5.5 11.5l12.5 56l13.5 60.5l14 59c4.66699 19 9.33398 36.167 14.001 51.5h-3c0 12 -2.83301 22.5 -8.5 31.5s-17.834 13.5 -36.501 13.5c-10.667 0 -19.334 -2 -26.001 -6s-12.334 -9.66699 -17.001 -17s-9 -16.333 -13 -27s-8.33301 -23 -13 -37l-9 -34.5
l-10.5 -40.5l-10.5 -41.5c-3.33301 -13.667 -6 -26.5 -8 -38.5c-3.33301 -19.333 -13 -31 -29 -35c-8 -1.33301 -16.167 -4 -24.5 -8s-16.166 -6 -23.499 -6c-6 0 -11.5 1.83301 -16.5 5.5s-6.83301 7.5 -5.5 11.5c4.66699 18.667 9.5 39.167 14.5 61.5l15 66.5l15 63
c5 20 9.83301 37.333 14.5 52c3.33301 11.333 5 19.666 5 24.999c0 6 -2 10.667 -6 14s-11 5 -21 5c-3.33301 0 -6.83301 -0.166992 -10.5 -0.5s-7.5 -0.833008 -11.5 -1.5c10.667 10 21.667 18 33 24s22.5 10.667 33.5 14s22 6 33 8s21.833 4.33301 32.5 7h4
c6.66699 0 11.5 -2.33301 14.5 -7s5.33301 -10 7 -16s3.83398 -11.333 6.50098 -16s7 -7 13 -7c5.33301 0 11.166 1.16699 17.499 3.5s12.166 4.16602 17.499 5.49902c10.667 1.33301 21.167 2.83301 31.5 4.5s21.166 2.5 32.499 2.5c17.333 0 31 -3 41 -9
c3.33301 2 5.16602 2.5 5.49902 1.5s0.166016 -2.83301 -0.500977 -5.5c2 -1.33301 3.66699 -2.83301 5 -4.5s2.66602 -3.16699 3.99902 -4.5c3.33301 0 8.5 1 15.5 3s14.167 4.16699 21.5 6.5l21 6.5c6.66699 2 11.334 3.33301 14.001 4
c9.33301 2.66699 19.5 4.83398 30.5 6.50098s25.167 0.833984 42.5 -2.49902c22.667 -4.66699 39.167 -11 49.5 -19s15.5 -24 15.5 -48c0 -20 -2.33301 -40 -7 -60s-9.66699 -40 -15 -60l-15 -58.5c-4.66699 -19 -7 -37.5 -7 -55.5c0 -44 12.333 -84.167 37 -120.5
s61.667 -70.5 111 -102.5c24.667 -16 48.834 -28.167 72.501 -36.5s49.5 -12.5 77.5 -12.5c24.667 0 51 3 79 9z" />
    <glyph glyph-name="n" unicode="n" horiz-adv-x="425" 
d="M714 -242c4 0.666992 9.16992 1.99805 15.5029 3.99805l19.5 6l19 5.5c6 1.66699 10.667 2.5 14 2.5s5 -0.666992 5 -2c0 -3.33301 -1.66699 -5.66602 -5 -6.99902c-32.667 -14 -65.667 -24.833 -99 -32.5s-67 -11.5 -101 -11.5c-36 0 -74.5 6.16699 -115.5 18.5
s-78.667 30.5 -113 54.5s-63 53.5 -86 88.5s-34.5 75.167 -34.5 120.5c0 20 2.16699 39.833 6.5 59.5s9.33301 39.334 15 59.001s10.667 39.334 15 59.001s6.5 39.834 6.5 60.501c0 12 -2.83301 22.5 -8.5 31.5s-17.834 13.5 -36.501 13.5c-10.667 0 -19.334 -2 -26.001 -6
s-12.334 -9.66699 -17.001 -17s-9 -16.333 -13 -27s-8.33301 -23 -13 -37l-9 -34.5l-10.5 -40.5l-10.5 -41.5c-3.33301 -13.667 -6 -26.5 -8 -38.5c-3.33301 -19.333 -13 -31 -29 -35c-8 -1.33301 -16.167 -4 -24.5 -8s-16.166 -6 -23.499 -6c-6 0 -11.5 1.83301 -16.5 5.5
s-6.83301 7.5 -5.5 11.5c4.66699 18.667 9.5 39.167 14.5 61.5l15 66.5l15 63c5 20 9.83301 37.333 14.5 52c3.33301 11.333 5 19.666 5 24.999c0 6 -2 10.667 -6 14s-11 5 -21 5c-3.33301 0 -6.83301 -0.166992 -10.5 -0.5s-7.5 -0.833008 -11.5 -1.5
c10.667 10 21.667 18 33 24s22.5 10.667 33.5 14s22 6 33 8s21.833 4.33301 32.5 7h4c6.66699 0 11.5 -2.33301 14.5 -7s5.33301 -10 7 -16s3.83398 -11.333 6.50098 -16s7 -7 13 -7c5.33301 0 11.166 1.16699 17.499 3.5s12.166 4.16602 17.499 5.49902
c10.667 1.33301 21.167 2.83301 31.5 4.5s21.166 2.5 32.499 2.5c23.333 0 40 -5.16699 50 -15.5s15 -27.5 15 -51.5c0 -20 -2.33301 -40 -7 -60s-9.66699 -40 -15 -60l-15 -58.5c-4.66699 -19 -7 -37.5 -7 -55.5c0 -44 12.333 -84.167 37 -120.5s61.667 -70.5 111 -102.5
c24.667 -16 48.834 -28.167 72.501 -36.5s49.5 -12.5 77.5 -12.5c24.667 0 51 3 79 9z" />
    <glyph glyph-name="o" unicode="o" horiz-adv-x="427" 
d="M381 126c-20 -31.333 -45.3281 -53.8389 -75.9951 -67.5059s-62.667 -24.834 -96 -33.501c-6 -1.33301 -12.333 -2.66602 -19 -3.99902s-13.334 -3.66602 -20.001 -6.99902c-18.667 -8.66699 -36.834 -12.5 -54.501 -11.5s-33.334 5.66699 -47.001 14
s-24.834 20.333 -33.501 36s-13.334 33.834 -14.001 54.501c-1.33301 19.333 1.16699 39.166 7.5 59.499s15 39.833 26 58.5s24.333 35.5 40 50.5s32.5 26.5 50.5 34.5c14 6 28.667 11.333 44 16s31.666 8.66699 48.999 12c-26.667 -12 -47.667 -28.333 -63 -49
s-29.333 -42.667 -42 -66c-14 -28.667 -19.333 -58 -16 -88c1.33301 -11.333 4.5 -22.166 9.5 -32.499s11.167 -19.666 18.5 -27.999s15.333 -15.166 24 -20.499s17.334 -8.33301 26.001 -9s18.334 1.33301 29.001 6s20.834 10.834 30.501 18.501s18.167 16.334 25.5 26.001
s12.333 19.167 15 28.5l6 27c2 8.66699 3.33301 17.667 4 27c0.666992 11.333 0.166992 21.5 -1.5 30.5s-5 17.833 -10 26.5s-11.833 17.334 -20.5 26.001s-19.667 18 -33 28c8 2.66699 16 5.5 24 8.5l23.5 8.5c7.66699 2.66699 15.5 4.33398 23.5 5.00098s16.333 0 25 -2
c18 -4.66699 32.667 -13.334 44 -26.001s19.166 -27.5 23.499 -44.5s4.66602 -35.333 0.999023 -55s-11.5 -38.834 -23.5 -57.501z" />
    <glyph glyph-name="p" unicode="p" horiz-adv-x="462" 
d="M185 285c2 -0.666992 4.00391 -0.994141 6.00391 -0.994141l-3 -5c-2.66699 -0.666992 -4.33398 -2 -5.00098 -4l-3 -4l-2 -3c-0.666992 -0.666992 -1.33398 -1.16699 -2.00098 -1.5s-1.33398 -0.833008 -2.00098 -1.5l-3 -4l-6 -13l-1.5 -3l-1.5 -3l-2 -3
c0 -0.666992 -0.666992 -3 -2 -7c-0.666992 -2.66699 -1.16699 -5.16699 -1.5 -7.5s-1.16602 -4.16602 -2.49902 -5.49902c0 -1.33301 -0.166992 -2.5 -0.5 -3.5s-0.5 -2.16699 -0.5 -3.5c-1.33301 -4 -1.66602 -8 -0.999023 -12c-6 -36.667 -13.667 -72.834 -23 -108.501
s-19.5 -71.334 -30.5 -107.001l-33 -106.5c-11 -35.333 -20.833 -71 -29.5 -107l-8 -31c-5.33301 -22 -11 -39.167 -17 -51.5s-13.333 -21.833 -22 -28.5s-19.5 -11.334 -32.5 -14.001s-29.5 -5.66699 -49.5 -9l26.5 98c8.33301 32 17.166 64 26.499 96l55 194
c18.667 64 33 129.333 43 196l4 37c0.666992 3.33301 1.16699 6.66602 1.5 9.99902s0.5 6.66602 0.5 9.99902c0 19.333 -6.66699 28.666 -20 27.999c-4 0.666992 -8.5 0.166992 -13.5 -1.5s-11.167 -3.83398 -18.5 -6.50098c15.333 11.333 30.666 20.166 45.999 26.499
s30.666 11.5 45.999 15.5c2.66699 0 6 0.666992 10 2c0.666992 0 1.16699 0.166992 1.5 0.5s1.16602 0.5 2.49902 0.5l15.5 4c5 1.33301 9.83301 1.66602 14.5 0.999023c6.66699 0 12.167 -2.16699 16.5 -6.5s6.5 -12.5 6.5 -24.5
c0.666992 -3.33301 0.833984 -6.16602 0.500977 -8.49902s-0.833008 -5.16602 -1.5 -8.49902v-2v-5c1.33301 -4 4 -6.33301 8 -7c2.66699 -0.666992 5 -1 7 -1zM451.004 155.006c-11.333 -26 -28.6689 -48.3369 -52.002 -67.0039s-49 -34.167 -77 -46.5
s-56.5 -21.833 -85.5 -28.5s-54.833 -11 -77.5 -13c-1.33301 0 -3.16602 1.16699 -5.49902 3.5s-5.16602 4.83301 -8.49902 7.5c11.333 9.33301 23.5 15.833 36.5 19.5s26.167 6.16699 39.5 7.5c19.333 2 37.166 7.66699 53.499 17s30.5 21 42.5 35s21.5 29.5 28.5 46.5
s10.5 34.5 10.5 52.5c0 10 -0.833008 20 -2.5 30s-5.16699 19.667 -10.5 29c-9.33301 16.667 -19.666 28.834 -30.999 36.501s-26.666 11.5 -45.999 11.5c-8.66699 0.666992 -17.834 0.333984 -27.501 -0.999023s-20.5 -3.33301 -32.5 -6
c0.666992 2.66699 1 6.33398 1 11.001c15.333 12.667 32.166 20.5 50.499 23.5s36.5 6.16699 54.5 9.5c16.667 4 32.334 6 47.001 6c15.333 0 29.5 -3.16699 42.5 -9.5s24.833 -17.166 35.5 -32.499c10 -13.333 17.167 -26.833 21.5 -40.5s6.5 -28.167 6.5 -43.5
c0 -20.667 -4.66699 -40 -14 -58z" />
    <glyph glyph-name="q" unicode="q" horiz-adv-x="432" 
d="M406 162c4.66699 -4 7.00195 -7.99805 7.00195 -11.998c0 -4.66699 -1.5 -9.33398 -4.5 -14.001s-5.16699 -9.33398 -6.5 -14.001c-3.33301 -12.667 -6.83301 -24.834 -10.5 -36.501l-11.5 -35.5l-37.5 -155.5l-37.5 -155.5c-7.33301 -11.333 -19.333 -19.5 -36 -24.5
l-47 -14.5c-4 -1.33301 -7.16699 -0.5 -9.5 2.5s-4.5 7.16699 -6.5 12.5s-4 11.333 -6 18s-4.33301 13.667 -7 21c-5.33301 13.333 -12.833 24.166 -22.5 32.499s-20.834 14.833 -33.501 19.5s-26.5 7.83398 -41.5 9.50098s-30.833 2.5 -47.5 2.5
c-24.667 0 -49.667 -4 -75 -12s-51.333 -17 -78 -27l-3.5 3.5l-3.5 3.5c37.333 24 75.5 44.5 114.5 61.5s80.5 25.5 124.5 25.5c21.333 0 44.666 -2.66699 69.999 -8c6 -1.33301 11.667 -3.83301 17 -7.5s11 -5.5 17 -5.5c10.667 0 17 6 19 18c2 16 5.5 31.667 10.5 47
l15 46c5 15.333 9.66699 30.833 14 46.5s6.83301 31.834 7.5 48.501c-3.33301 5.33301 -8.33301 8 -15 8h-7c8.66699 5.33301 16.5 11.833 23.5 19.5s13.667 15.5 20 23.5s13.333 15.5 21 22.5s16.5 12.5 26.5 16.5c5.33301 2 10.833 5.16699 16.5 9.5s11.167 6.5 16.5 6.5
c0.666992 0 3 -0.666992 7 -2zM164.002 12.002c-5.33301 -1.33301 -10.165 -2.00293 -14.498 -2.00293h-12.5c-29.333 0 -53.166 7.83301 -71.499 23.5s-30.833 39.5 -37.5 71.5c4 29.333 13.833 57.833 29.5 85.5s35.167 52.334 58.5 74.001s49.5 39 78.5 52
s58.833 19.5 89.5 19.5c4 0 10.333 -0.5 19 -1.5s17.167 -2.66699 25.5 -5s15.833 -5.83301 22.5 -10.5s10 -11 10 -19c0 -2 -2.83301 -5.16699 -8.5 -9.5s-12.5 -8.83301 -20.5 -13.5s-16.5 -8.83398 -25.5 -12.501s-16.5 -5.5 -22.5 -5.5
c-5.33301 0 -12.333 1.66699 -21 5c-24 10 -44 15 -60 15c-10.667 0 -20.5 -3.33301 -29.5 -10s-16.833 -15.167 -23.5 -25.5s-11.834 -22.166 -15.501 -35.499s-5.5 -26.666 -5.5 -39.999c0 -23.333 5.5 -42.166 16.5 -56.499s27.167 -27.166 48.5 -38.499
c9.33301 -2.66699 21.166 -4 35.499 -4s29.166 -1.33301 44.499 -4c0 -6 -4.5 -11.833 -13.5 -17.5s-19.5 -11 -31.5 -16s-24.167 -9.33301 -36.5 -13s-21.833 -5.83398 -28.5 -6.50098z" />
    <glyph glyph-name="r" unicode="r" horiz-adv-x="360" 
d="M408 302c-5.33301 -14 -12.8271 -26 -22.4941 -36s-20.667 -18 -33 -24s-25.5 -9.66699 -39.5 -11s-28 0.333984 -42 5.00098c-17.333 6.66699 -31.666 11.834 -42.999 15.501s-21 4.5 -29 2.5s-14.833 -7.16699 -20.5 -15.5s-11.834 -21.5 -18.501 -39.5
c-0.666992 -2.66699 -1.66699 -7.33398 -3 -14.001c-7.33301 -20 -12.333 -40.333 -15 -61l-8 -62c-1.33301 -8 -6.83301 -16 -16.5 -24s-20.5 -15 -32.5 -21s-24 -10 -36 -12s-21.333 -1 -28 3s-9.5 9 -8.5 15s2.16699 11.667 3.5 17l22 93.5l22 94.5
c6 12 13.5 21.667 22.5 29s18.667 13.333 29 18s21.166 8.66699 32.499 12s22.666 7 33.999 11c12.667 1.33301 27 1 43 -1s30.333 -2 43 0c8.66699 4 16.667 8.33301 24 13s14.666 9 21.999 13s15.166 7.16699 23.499 9.5s18.166 3.16602 29.499 2.49902
c8 -0.666992 15.5 -1 22.5 -1s12.667 -0.666992 17 -2s7.16602 -4.33301 8.49902 -9s0.333008 -11.667 -3 -21z" />
    <glyph glyph-name="s" unicode="s" horiz-adv-x="463" 
d="M335 281c-11.333 5.33301 -20.832 5.83301 -28.499 1.5s-13.834 -11.5 -18.501 -21.5c-5.33301 -10.667 -5.33301 -19.167 0 -25.5s12.333 -11.833 21 -16.5l44.5 -24c15 -8 29.5 -16.667 43.5 -26c10.667 -7.33301 20.667 -15.666 30 -24.999
s12.666 -21.666 9.99902 -36.999c-3.33301 -16.667 -9.5 -30.5 -18.5 -41.5s-22.167 -18.833 -39.5 -23.5c-3.33301 -0.666992 -6.66602 -1.66699 -9.99902 -3l-10 -4c-2 -0.666992 -3.66699 -1.33398 -5 -2.00098s-2.66602 -1 -3.99902 -1
c-7.33301 1.33301 -14.166 1.5 -20.499 0.5s-12.5 -2.83301 -18.5 -5.5v5l-1 3c13.333 11.333 21.666 22 24.999 32s3 19.667 -1 29s-11.333 18.666 -22 27.999s-23.334 19 -38.001 29c-12.667 8.66699 -26.167 16.334 -40.5 23.001s-28.166 13.667 -41.499 21
c-9.33301 5.33301 -14.833 11 -16.5 17s-0.666992 12 3 18s9.16699 12.333 16.5 19s15.666 13.334 24.999 20.001c8 6 16.5 10.5 25.5 13.5s18.5 5.5 28.5 7.5c8.66699 2 17.334 3.83301 26.001 5.5s17 3.83398 25 6.50098s15.667 6.5 23 11.5s14 11.5 20 19.5
c4 5.33301 9 8.66602 15 9.99902s11.667 2.66602 17 3.99902c4 0.666992 8.33301 1.66699 13 3s9.33398 2 14.001 2s8.5 -1 11.5 -3s5.16699 -6 6.5 -12c0.666992 -5.33301 1.16699 -11.166 1.5 -17.499s-0.333984 -12.333 -2.00098 -18s-4.83398 -10.334 -9.50098 -14.001
s-12 -5.83398 -22 -6.50098l-39 -8c-12.667 -2.66699 -25.667 -0.666992 -39 6zM116.001 129c-2.66699 -18 -3.83301 -32.666 -3.5 -43.999s2.83301 -20.5 7.5 -27.5s12 -12.667 22 -17s23 -8.5 39 -12.5c21.333 -5.33301 42.5 -7.5 63.5 -6.5s41.833 -2.16699 62.5 -9.5
c-47.333 -8.66699 -94.166 -13 -140.499 -13s-92.833 7 -139.5 21c-9.33301 2.66699 -16.833 7.66699 -22.5 15s-8.16699 15.666 -7.5 24.999c0 23.333 10.667 40.333 32 51c13.333 7.33301 27.166 11.833 41.499 13.5s29.5 3.16699 45.5 4.5z" />
    <glyph glyph-name="t" unicode="t" horiz-adv-x="219" 
d="M124 81l-0.000976562 -7.00195c0 -10.667 1.83301 -20 5.5 -28s12.167 -13.333 25.5 -16c-2 -3.33301 -6.83301 -6.83301 -14.5 -10.5s-16.334 -7.16699 -26.001 -10.5s-19.334 -6 -29.001 -8s-17.167 -3 -22.5 -3c-9.33301 0 -17.166 2 -23.499 6
s-11.666 8.83301 -15.999 14.5s-7.5 11.667 -9.5 18s-3 12.5 -3 18.5c0 6.66699 1 14.667 3 24s4.33301 19 7 29s5.16699 19.833 7.5 29.5s4.16602 17.834 5.49902 24.501c2.66699 6 5.83398 15.5 9.50098 28.5s7.33398 28.167 11.001 45.5s7.5 36.666 11.5 57.999l12 65h-1
v5c0 9.33301 -3.5 16 -10.5 20l-24.5 14l46 18c5.33301 34.667 10 63.834 14 87.501s6.33301 39.167 7 46.5c0 6 -1.33301 11.333 -4 16s-5.83398 8.83398 -9.50098 12.501s-7.5 7.16699 -11.5 10.5s-7 7 -9 11c2.66699 2 8.16699 5.66699 16.5 11s18 10.333 29 15
s23 8.16699 36 10.5s25.5 1.83301 37.5 -1.5c8.66699 -2 16.334 -9.33301 23.001 -22s8 -29 4 -49l-28 -123c2.66699 -6.66699 10 -10 22 -10c9.33301 0 19 1.16699 29 3.5s20.333 3.5 31 3.5c8 0 17 -1.66699 27 -5c-9.33301 -11.333 -19.5 -19.333 -30.5 -24
s-22.833 -7 -35.5 -7h-15c-14 0 -23.833 -3.66699 -29.5 -11s-10.167 -18.333 -13.5 -33h-2l-16 -83.5l-15.5 -81l-13 -68c-3.66699 -19.667 -6.16699 -34.5 -7.5 -44.5z" />
    <glyph glyph-name="u" unicode="u" horiz-adv-x="446" 
d="M444 40c-41.333 -31.333 -74.332 -46.999 -98.999 -46.999c-26.667 0 -45.334 18 -56.001 54c-11.333 -5.33301 -21.166 -9.16602 -29.499 -11.499s-11.833 -3.5 -10.5 -3.5c-5.33301 0 -11 -1.33301 -17 -4l-4 2l-7 5c0 1.33301 -0.666992 2 -2 2
c-0.666992 1.33301 -1 2.66602 -1 3.99902s0.333008 2.83301 1 4.5s2 3.16699 4 4.5c24 15.333 41.5 41.666 52.5 78.999s21.833 84.666 32.5 141.999c3.33301 16.667 12.833 29.834 28.5 39.501s31.834 14.5 48.501 14.5c10 0 19 -2 27 -6c6.66699 -3.33301 11 -7 13 -11
s3 -8.33301 3 -13c0 -3.33301 -0.333008 -7 -1 -11s-1.33398 -7.66699 -2.00098 -11c-4.66699 -28.667 -10.834 -56.667 -18.501 -84s-11.5 -55.333 -11.5 -84c0 -12.667 3.33301 -24.5 10 -35.5s19.667 -20.833 39 -29.5zM199.001 34.001
c-4.66699 -5.33301 -9.66602 -9.33594 -14.999 -12.0029s-10.833 -4.83398 -16.5 -6.50098l-16.5 -5c-5.33301 -1.66699 -10.333 -4.16699 -15 -7.5c-3.33301 -0.666992 -6.33301 -1.16699 -9 -1.5s-5.33398 -0.5 -8.00098 -0.5c-19.333 0 -35.166 5.33301 -47.499 16
l-38.5 35c-4 13.333 -6.83301 25.833 -8.5 37.5s-0.833984 27.5 2.49902 47.5c2.66699 14.667 6.16699 29.334 10.5 44.001s8 29.167 11 43.5s4.66699 28.666 5 42.999s-1.83398 28.5 -6.50098 42.5c-0.666992 2 2.83301 4.83301 10.5 8.5s17 7.33398 28 11.001
s22.167 6.66699 33.5 9s20.333 3.5 27 3.5c4 0 6.66699 -0.333008 8 -1c11.333 -5.33301 17 -12.666 17 -21.999c0 -4.66699 -1.16699 -9.83398 -3.5 -15.501s-4.16602 -11.167 -5.49902 -16.5c-3.33301 -16.667 -8 -34.5 -14 -53.5s-9.66699 -36.833 -11 -53.5
c0 -2 -0.333008 -5.16699 -1 -9.5s-1.16699 -8.83301 -1.5 -13.5s-0.666016 -9 -0.999023 -13s-0.5 -7 -0.5 -9c0 -13.333 1 -24.666 3 -33.999s5.5 -17.666 10.5 -24.999s11.667 -14.166 20 -20.499s19.166 -13.5 32.499 -21.5z" />
    <glyph glyph-name="v" unicode="v" horiz-adv-x="451" 
d="M15 264c7.33301 7.33301 17.332 15.333 29.999 24s25.5 16.834 38.5 24.501s25 14 36 19s18.833 7.5 23.5 7.5c11.333 0 17 -10.333 17 -31c0 -30.667 5.5 -59.334 16.5 -86.001s22.833 -52.334 35.5 -77.001l8 -16c4.66699 -9.33301 9.5 -16.666 14.5 -21.999
s11.167 -8 18.5 -8c10.667 0 21.334 5.33301 32.001 16s20.167 23.5 28.5 38.5s15.5 31 21.5 48s9.66699 31.833 11 44.5c3.33301 25.333 12.333 44.333 27 57s31.667 23.667 51 33c6.66699 4 12.667 6 18 6c7.33301 0 11 -4 11 -12c0 -6 -1.66699 -15.667 -5 -29
s-7.33301 -24.333 -12 -33c-24 -48 -52.833 -92 -86.5 -132s-69.5 -78.333 -107.5 -115c-16.667 -15.333 -31.667 -23 -45 -23c-14.667 0 -29.5 7.83301 -44.5 23.5s-29 35 -42 58s-24.167 47.667 -33.5 74s-16 49.833 -20 70.5c0 7.33301 -1.5 14.333 -4.5 21
s-8.5 10 -16.5 10c-4 0 -7 -0.333008 -9 -1c-2 1.33301 -4 2.83301 -6 4.5s-4 3.5 -6 5.5z" />
    <glyph glyph-name="w" unicode="w" horiz-adv-x="639" 
d="M630 293c-5.33301 -50 -20.999 -96.0039 -46.999 -138.004s-59 -79.667 -99 -113c-14.667 -12 -30.334 -20.167 -47.001 -24.5s-33.334 -8.16602 -50.001 -11.499h-6c-14.667 0 -27.5 3.66699 -38.5 11s-20.833 15.5 -29.5 24.5l-24 25
c-7.33301 7.66699 -14.333 11.5 -21 11.5c-4.66699 0 -11 -3 -19 -9c-19.333 -16 -40.666 -28.333 -63.999 -37s-46.666 -18 -69.999 -28c-8.66699 -3.33301 -16 -5 -22 -5c-12 0 -21.667 6.83301 -29 20.5s-13 30.167 -17 49.5s-6.66699 39.5 -8 60.5s-2 38.833 -2 53.5v54
c0 4.66699 0.333008 9.33398 1 14.001s1 9.33398 1 14.001c0 6.66699 -1.33301 12.5 -4 17.5s-8 10.5 -16 16.5c13.333 14 28.666 24 45.999 30s34.666 10.667 51.999 14c8.66699 0 14.334 -8.83301 17.001 -26.5s4 -37.5 4 -59.5c0 -12.667 -0.166992 -25 -0.5 -37
s-0.5 -22.667 -0.5 -32c-1.33301 -2.66699 -2 -5.33398 -2 -8.00098v-8c0 -8 1.33301 -15.667 4 -23l12 -57c4 -21.333 10.667 -32 20 -32c2 0 6.66699 2.66699 14 8s15 12.5 23 21.5s15.833 19 23.5 30s13.167 22.167 16.5 33.5
c3.33301 6.66699 7.66602 13.334 12.999 20.001s8.33301 13.667 9 21c0 14.667 2.83301 25.5 8.5 32.5s12.5 12.167 20.5 15.5s16.833 5.66602 26.5 6.99902s18.834 3.66602 27.501 6.99902c4 1.33301 6.66699 2 8 2c6 0 9 -4.66699 9 -14
c0 -7.33301 -0.5 -14.833 -1.5 -22.5s-1.5 -15.167 -1.5 -22.5c0 -25.333 1.16699 -46.166 3.5 -62.499s5.5 -29.333 9.5 -39s8.5 -16.5 13.5 -20.5s10.167 -6 15.5 -6s10.833 1.5 16.5 4.5s11 6.83301 16 11.5s9.66699 9.5 14 14.5s7.83301 9.5 10.5 13.5
c18.667 28.667 32 58.667 40 90s13 63.333 15 96c0.666992 10 2.83398 17.833 6.50098 23.5s8.5 9.83398 14.5 12.501s12.5 4.33398 19.5 5.00098s14.167 1 21.5 1h4h9c15.333 -0.666992 25.166 -3.5 29.499 -8.5s6.5 -11.5 6.5 -19.5
c0 -3.33301 -0.166992 -6.83301 -0.5 -10.5s-0.833008 -7.5 -1.5 -11.5z" />
    <glyph glyph-name="x" unicode="x" horiz-adv-x="432" 
d="M271 153c20.667 -36 44.668 -65.5029 72.001 -88.5029s62 -34.5 104 -34.5h10.5c3.66699 0 7.5 0.333008 11.5 1c-34.667 -22.667 -69.667 -34 -105 -34c-14.667 0 -28.5 0.833008 -41.5 2.5s-25.333 5.33398 -37 11.001s-22.667 13.334 -33 23.001
s-20.5 22.5 -30.5 38.5c-12 18.667 -23.333 28 -34 28c-5.33301 0 -10.5 -1.33301 -15.5 -4s-11.167 -6.66699 -18.5 -12l-41.5 -31.5l-49 -39l-51 -40.5l-47.5 -36c-14.667 -10.667 -27.5 -19.167 -38.5 -25.5s-19.167 -9.16602 -24.5 -8.49902
c-4.66699 3.33301 1 12.666 17 27.999s37 34.333 63 57l84 73.5c30 26.333 57 52.166 81 77.499c6 6 10.667 11.333 14 16s5 9.66699 5 15c0 6 -2.66699 13.667 -8 23c-6 11.333 -11.667 23.5 -17 36.5s-11.333 25.167 -18 36.5s-14.334 20.833 -23.001 28.5
s-19 11.5 -31 11.5c-4 0 -8.33301 -0.333008 -13 -1s-9.66699 -2 -15 -4c6.66699 6 14.667 11.833 24 17.5s18.666 10.834 27.999 15.501s18.5 8.33398 27.5 11.001s16.833 4 23.5 4c12 0 22.833 -6.33301 32.5 -19s18.334 -26.5 26.001 -41.5l21.5 -41
c6.66699 -12.333 13.334 -18.5 20.001 -18.5c4 0 9 3 15 9l21 25.5c7.33301 9 15 17.333 23 25s16.167 14 24.5 19s16.833 7.5 25.5 7.5c3.33301 0 6.66602 -1.16699 9.99902 -3.5s5 -5.83301 5 -10.5c0 -4 -1.5 -7.66699 -4.5 -11s-5.83301 -6.33301 -8.5 -9l-20 -20
c-7.33301 -7.33301 -15.333 -14.5 -24 -21.5s-16.667 -14 -24 -21s-13.5 -13.5 -18.5 -19.5s-7.5 -11.333 -7.5 -16c0 -8 3.33301 -18 10 -30z" />
    <glyph glyph-name="y" unicode="y" horiz-adv-x="417" 
d="M427 296c0 -8 -1.33105 -14.667 -3.99805 -20c-5.33301 -25.333 -12.5 -52.166 -21.5 -80.499l-27 -83l-24.5 -74.5c-7.33301 -22.667 -12.333 -40.334 -15 -53.001l-2 -6v3c-12.667 -36.667 -26.667 -70 -42 -100s-32.333 -55.667 -51 -77
s-38.834 -38.166 -60.501 -50.499s-45.167 -18.833 -70.5 -19.5c-30 -1.33301 -64.5 6.5 -103.5 23.5s-80.167 45.5 -123.5 85.5c0 4.66699 1.33301 7 4 7c4 0 10.667 -3.5 20 -10.5s21.333 -14.833 36 -23.5s31.667 -16.334 51 -23.001s41 -9.66699 65 -9
c34 1.33301 62.5 10.666 85.5 27.999s42 38.666 57 63.999s26.333 52.5 34 81.5s13.167 55.5 16.5 79.5c1.33301 8.66699 3.5 18.834 6.5 30.501s6.33301 23.5 10 35.5s7.5 23.333 11.5 34s7.66699 19 11 25c10 36 14.667 66.667 14 92
c-0.666992 11.333 -2.33398 21.833 -5.00098 31.5s-7 18.167 -13 25.5l29 10.5c10 3.66699 19.5 7.33398 28.5 11.001s17.167 6.66699 24.5 9s13 3.5 17 3.5c9.33301 0 18.5 -5.16699 27.5 -15.5s13.833 -21.833 14.5 -34.5v0zM234.002 36
c-8.66699 -12 -19.334 -20.501 -32.001 -25.501s-25.167 -8.33301 -37.5 -10s-22.833 -2 -31.5 -1s-13.334 1.5 -14.001 1.5c-13.333 0 -26 3.16699 -38 9.5s-22.667 14.666 -32 24.999s-16.666 21.833 -21.999 34.5s-8 25.334 -8 38.001c0 14 1.83301 28.167 5.5 42.5
l11.5 43l11.5 42.5c3.66699 14 5.5 27.667 5.5 41c0 6.66699 -1 13.167 -3 19.5s-3 12.5 -3 18.5c0 2.66699 4 5.83398 12 9.50098s17.333 7.33398 28 11.001s21.5 6.66699 32.5 9s19.833 3.5 26.5 3.5c9.33301 0 15.833 -3 19.5 -9s5.5 -10.667 5.5 -14
c0 -5.33301 -1.16699 -10.833 -3.5 -16.5s-4.16602 -11.167 -5.49902 -16.5c-4 -21.333 -7.5 -42 -10.5 -62s-6.5 -41 -10.5 -63c-8 -45.333 -3.5 -78.833 13.5 -100.5s43.5 -31.834 79.5 -30.501z" />
    <glyph glyph-name="z" unicode="z" horiz-adv-x="406" 
d="M948 -289c-24 -16 -47.1611 -26.167 -69.4941 -30.5s-44.166 -7.83301 -65.499 -10.5c-92 -7.33301 -175.167 5.66699 -249.5 39s-143.166 81.333 -206.499 144c-18.667 18.667 -36.5 37.667 -53.5 57l-50.5 58c-54.667 69.333 -130.334 83.666 -227.001 42.999
c19.333 22 39.166 42.167 59.499 60.5s40.666 35.5 60.999 51.5l60.5 47.5c20 15.667 39.667 32.167 59 49.5c-3.33301 -0.666992 -6.66602 -1 -9.99902 -1h-10c-16 0 -31.333 2.83301 -46 8.5s-29.167 11.667 -43.5 18s-28.833 12 -43.5 17s-30 7.16699 -46 6.5
c-2.66699 0 -4.66699 -0.333008 -6 -1c2.66699 3.33301 5.16699 6.66602 7.5 9.99902s4.83301 6.33301 7.5 9c1.33301 1.33301 2.66602 2.33301 3.99902 3c14 15.333 29 26.666 45 33.999c1.33301 0.666992 2.33301 1 3 1s1.66699 0.333008 3 1
c2.66699 1.33301 4.66699 2 6 2c1.33301 0.666992 2.33301 1 3 1s1.66699 0.333008 3 1c1.33301 0 2.5 0.166992 3.5 0.5s2.5 0.5 4.5 0.5c1.33301 0 2.5 0.166992 3.5 0.5s2.16699 0.5 3.5 0.5h1h8c23.333 0 47.333 -6.66699 72 -20c27.333 -14 55.5 -21.5 84.5 -22.5
s61.5 2.16699 97.5 9.5c-22 -20 -44.833 -37.833 -68.5 -53.5l-70 -46.5c-23 -15.333 -45.333 -31.666 -67 -48.999s-41.834 -37.666 -60.501 -60.999c30 6.66699 57 7.83398 81 3.50098s45.667 -12.5 65 -24.5s37.166 -26.833 53.499 -44.5s32.166 -36.834 47.499 -57.501
c36 -49.333 76.5 -92.333 121.5 -129s94.5 -67.334 148.5 -92.001c30 -14.667 62.167 -24.667 96.5 -30s69.166 -6.66602 104.499 -3.99902c10 0.666992 20.667 0.833984 32 0.500977s25.666 -0.5 42.999 -0.5z" />
    <glyph glyph-name="dieresis" unicode="&#xa8;" horiz-adv-x="334" 
d="M164 359c2.66699 -1.33301 1.16699 -3.50293 -4.5 -6.50293s-13 -6 -22 -9s-18 -5.66699 -27 -8s-15.833 -3.5 -20.5 -3.5c-20 -1.33301 -32.5 2.66699 -37.5 12s-7 19.833 -6 31.5s2.16699 22.334 3.5 32.001s-1.66699 14.167 -9 13.5
c9.33301 2.66699 18.666 5.16699 27.999 7.5s18.333 5.5 27 9.5c4 1.33301 7.83301 2.83301 11.5 4.5s7.83398 2.83398 12.501 3.50098c13.333 0.666992 21 -2.33301 23 -9s2.5 -14.667 1.5 -24s-1 -19.166 0 -29.499s7.5 -18.5 19.5 -24.5zM310 372.997
c2.66699 -1.33301 1.16699 -3.50293 -4.5 -6.50293s-13 -6 -22 -9s-18 -5.66699 -27 -8s-15.833 -3.5 -20.5 -3.5c-20 -1.33301 -32.5 2.66699 -37.5 12s-7 19.833 -6 31.5s2.16699 22.334 3.5 32.001s-1.66699 14.167 -9 13.5c9.33301 2.66699 18.666 5.16699 27.999 7.5
s18.333 5.5 27 9.5c4 1.33301 7.83301 2.83301 11.5 4.5s7.83398 2.83398 12.501 3.50098c13.333 0.666992 21 -2.33301 23 -9s2.5 -14.667 1.5 -24s-1 -19.166 0 -29.499s7.5 -18.5 19.5 -24.5z" />
    <glyph glyph-name="acute" unicode="&#xb4;" horiz-adv-x="609" 
d="M320 421c1.33301 0 -0.999023 -1.33105 -6.99902 -3.99805s-13.333 -5.66699 -22 -9s-17.334 -6.5 -26.001 -9.5s-15 -4.5 -19 -4.5h-4c-15.333 0 -23 6.66699 -23 20c0 8.66699 2.66699 19.167 8 31.5s11.333 24.5 18 36.5l18 33c5.33301 10 8 17 8 21
c0 1.33301 -0.833008 3 -2.5 5s-3.16699 3 -4.5 3c4.66699 1.33301 8 2.66602 10 3.99902s4.16699 2.66602 6.5 3.99902s6.16602 3 11.499 5s14 4.66699 26 8c2.66699 0.666992 6.33398 1.5 11.001 2.5l14.5 3c5 1 9.66699 1.66699 14 2s7.5 0.5 9.5 0.5
c9.33301 0 14 -3 14 -9s-3.66699 -14.333 -11 -25l-24.5 -34c-9 -12 -17.167 -24 -24.5 -36s-11 -22.333 -11 -31c0 -7.33301 3.33301 -13 10 -17z" />
    <glyph glyph-name="Aacute" unicode="&#xc1;" horiz-adv-x="563" 
d="M485 530c-5.33301 -10 -16.3301 -20.1719 -32.9971 -30.5049s-35.834 -25 -57.501 -44s-44 -44.5 -67 -76.5s-43.833 -74 -62.5 -126c0 -6 4.33301 -10 13 -12c26.667 -6 51.5 -15 74.5 -27l69.5 -38l12 -8c4 -2.66699 8 -4 12 -4c5.33301 0 9 1.5 11 4.5
s3 6.16699 3 9.5c0 15.333 -0.666992 34.5 -2 57.5s-3.33301 46.667 -6 71s-5.83398 47.833 -9.50098 70.5s-7.5 41.334 -11.5 56.001c-0.666992 2 -1 4.33301 -1 7c0 5.33301 3 10.5 9 15.5s12.833 9.5 20.5 13.5s15.334 7.33301 23.001 10s13.5 4 17.5 4
c7.33301 0 12.666 -4 15.999 -12l9 -22c9.33301 -27.333 15.333 -59 18 -95s4 -73 4 -111c0 -32 -0.5 -63.333 -1.5 -94s-1.5 -57.667 -1.5 -81c0 -6.66699 -2.83301 -13.167 -8.5 -19.5s-12.5 -12 -20.5 -17s-16.167 -9 -24.5 -12s-14.833 -4.5 -19.5 -4.5
c-6 0 -11 2.83301 -15 8.5s-10.667 14.167 -20 25.5c-12 15.333 -25.333 28.833 -40 40.5s-30 22.167 -46 31.5s-32.5 17.833 -49.5 25.5l-51.5 22.5l-18 8c-6.66699 2.66699 -11.667 4 -15 4c-6 0 -13.667 -7.16699 -23 -21.5s-19 -31.333 -29 -51s-19.333 -39.667 -28 -60
s-14.667 -36.833 -18 -49.5c-2.66699 -9.33301 -4.83398 -18.666 -6.50098 -27.999s-2.5 -18.666 -2.5 -27.999c0 -13.333 2.33301 -25.833 7 -37.5s13.667 -22.5 27 -32.5c4 -4 6 -7.33301 6 -10c0 -4 -3.83301 -8.66699 -11.5 -14s-16.167 -10.5 -25.5 -15.5
s-18.5 -9.16699 -27.5 -12.5s-14.5 -5 -16.5 -5c-15.333 0 -26 8.66699 -32 26s-9 37.666 -9 60.999c0 19.333 3.16699 40.166 9.5 62.499s14.5 44.833 24.5 67.5s21.167 44.834 33.5 66.501s24.5 41.5 36.5 59.5l9.5 16c2.33301 4 3.5 7.66699 3.5 11
s-3.83301 6.16602 -11.5 8.49902s-17 4.33301 -28 6s-23.167 2.83398 -36.5 3.50098s-25.333 1 -36 1h-5c-2 0 -4 0.5 -6 1.5s-3 3.5 -3 7.5c0 4.66699 2.83301 9.33398 8.5 14.001s12.5 9 20.5 13s16.333 7.16699 25 9.5s16.334 3.5 23.001 3.5c8 0 16 -0.666992 24 -2
s15.667 -2 23 -2c12 0 23.333 4.16699 34 12.5s20.667 18.666 30 30.999s18.333 25.333 27 39s17 25.834 25 36.501c11.333 16 25.666 33.333 42.999 52s36 35.834 56 51.501s41 28.834 63 39.501s43.667 16.667 65 18zM532.003 604.995
c1.33301 0 -0.999023 -1.33105 -6.99902 -3.99805s-13.333 -5.66699 -22 -9s-17.334 -6.5 -26.001 -9.5s-15 -4.5 -19 -4.5h-4c-15.333 0 -23 6.66699 -23 20c0 8.66699 2.66699 19.167 8 31.5s11.333 24.5 18 36.5l18 33c5.33301 10 8 17 8 21
c0 1.33301 -0.833008 3 -2.5 5s-3.16699 3 -4.5 3c4.66699 1.33301 8 2.66602 10 3.99902s4.16699 2.66602 6.5 3.99902s6.16602 3 11.499 5s14 4.66699 26 8c2.66699 0.666992 6.33398 1.5 11.001 2.5l14.5 3c5 1 9.66699 1.66699 14 2s7.5 0.5 9.5 0.5
c9.33301 0 14 -3 14 -9s-3.66699 -14.333 -11 -25l-24.5 -34c-9 -12 -17.167 -24 -24.5 -36s-11 -22.333 -11 -31c0 -7.33301 3.33301 -13 10 -17z" />
    <glyph glyph-name="Eacute" unicode="&#xc9;" horiz-adv-x="620" 
d="M298 530c-12 0 -23.6689 -2.33594 -35.002 -7.00293s-21.666 -11 -30.999 -19s-16.833 -17.167 -22.5 -27.5s-8.5 -21.166 -8.5 -32.499c0 -6.66699 0.333008 -12.667 1 -18s2.66699 -12.666 6 -21.999c1.33301 -2.66699 1 -4.5 -1 -5.5s-4.33301 -1.5 -7 -1.5
c-8 0 -15.833 3.33301 -23.5 10s-14.667 15 -21 25s-11.333 20.333 -15 31s-5.5 20 -5.5 28c0 22 4 39 12 51s18.5 20.667 31.5 26s27.667 7.83301 44 7.5s32.5 -1.83301 48.5 -4.5c12.667 -2 25.834 -6 39.501 -12l40.5 -18c13.333 -6 26.5 -11.333 39.5 -16
s25.167 -7 36.5 -7c5.33301 0 10 1.66699 14 5s7.5 6.83301 10.5 10.5l8.5 10.5c2.66699 3.33301 5.66699 5 9 5c0.666992 0 4.5 -1.5 11.5 -4.5s14.5 -7 22.5 -12s15.333 -10.333 22 -16s10 -11.5 10 -17.5c0 -11.333 -3.66699 -19.166 -11 -23.499s-17 -6.5 -29 -6.5
c-3.33301 0 -7.66602 0.333008 -12.999 1s-10.833 1.5 -16.5 2.5s-10.834 2.5 -15.501 4.5s-8 4 -10 6c-10 4 -20 8.5 -30 13.5l-31.5 15c-11 5 -23 9.33301 -36 13s-27.833 5.5 -44.5 5.5zM545.998 143.997c9.33301 -1.33301 18.832 -2.83105 28.499 -4.49805
s20.167 -4.83398 31.5 -9.50098c-6.66699 -12 -13 -22.833 -19 -32.5s-12.667 -18.167 -20 -25.5s-15.666 -13.833 -24.999 -19.5s-20.333 -10.834 -33 -15.501c-4 -1.33301 -9.5 -3 -16.5 -5s-14.5 -3.83301 -22.5 -5.5s-16 -3.16699 -24 -4.5s-15 -2 -21 -2h-6
c10.667 16.667 20.167 32.5 28.5 47.5s16.833 28.167 25.5 39.5s18.167 20.333 28.5 27s22.5 10 36.5 10h8zM362.997 374.999h-8.99609c-34 0 -65.833 -3.66699 -95.5 -11s-55.5 -18 -77.5 -32s-39.333 -31.167 -52 -51.5s-19 -43.5 -19 -69.5s5.66699 -48.333 17 -67
s26.666 -34.334 45.999 -47.001s41.666 -22 66.999 -28s52.333 -9 81 -9c20 0 40.833 1.5 62.5 4.5s42.834 7.83301 63.501 14.5c-7.33301 -12 -20.833 -22.333 -40.5 -31s-41.5 -16 -65.5 -22s-48 -10.5 -72 -13.5s-44.333 -4.5 -61 -4.5c-20 0 -41.333 2.66699 -64 8
s-43.667 13.333 -63 24s-35.333 24.334 -48 41.001s-19 36.667 -19 60c0 21.333 1.66699 39.666 5 54.999s8.66602 29.5 15.999 42.5s16.666 26.167 27.999 39.5l41 47c8 6.66699 19 14.334 33 23.001s30.333 16.667 49 24s39.5 13.5 62.5 18.5s47.5 7.5 73.5 7.5
c30 0 50.667 -2.5 62 -7.5s17 -8.83301 17 -11.5c-0.666992 -0.666992 -1.33398 -1 -2.00098 -1zM395.001 647.999c1.33301 0 -0.999023 -1.33105 -6.99902 -3.99805s-13.333 -5.66699 -22 -9s-17.334 -6.5 -26.001 -9.5s-15 -4.5 -19 -4.5h-4c-15.333 0 -23 6.66699 -23 20
c0 8.66699 2.66699 19.167 8 31.5s11.333 24.5 18 36.5l18 33c5.33301 10 8 17 8 21c0 1.33301 -0.833008 3 -2.5 5s-3.16699 3 -4.5 3c4.66699 1.33301 8 2.66602 10 3.99902s4.16699 2.66602 6.5 3.99902s6.16602 3 11.499 5s14 4.66699 26 8
c2.66699 0.666992 6.33398 1.5 11.001 2.5l14.5 3c5 1 9.66699 1.66699 14 2s7.5 0.5 9.5 0.5c9.33301 0 14 -3 14 -9s-3.66699 -14.333 -11 -25l-24.5 -34c-9 -12 -17.167 -24 -24.5 -36s-11 -22.333 -11 -31c0 -7.33301 3.33301 -13 10 -17z" />
    <glyph glyph-name="Iacute" unicode="&#xcd;" horiz-adv-x="252" 
d="M224 639c1.33301 0 -0.999023 -1.33105 -6.99902 -3.99805s-13.333 -5.66699 -22 -9s-17.334 -6.5 -26.001 -9.5s-15 -4.5 -19 -4.5h-4c-15.333 0 -23 6.66699 -23 20c0 8.66699 2.66699 19.167 8 31.5s11.333 24.5 18 36.5l18 33c5.33301 10 8 17 8 21
c0 1.33301 -0.833008 3 -2.5 5s-3.16699 3 -4.5 3c4.66699 1.33301 8 2.66602 10 3.99902s4.16699 2.66602 6.5 3.99902s6.16602 3 11.499 5s14 4.66699 26 8c2.66699 0.666992 6.33398 1.5 11.001 2.5l14.5 3c5 1 9.66699 1.66699 14 2s7.5 0.5 9.5 0.5
c9.33301 0 14 -3 14 -9s-3.66699 -14.333 -11 -25l-24.5 -34c-9 -12 -17.167 -24 -24.5 -36s-11 -22.333 -11 -31c0 -7.33301 3.33301 -13 10 -17zM256.001 577.002c0 -12.667 -1.16406 -25.833 -3.49707 -39.5s-4.16602 -26.167 -5.49902 -37.5
c-4 -40.667 -7.83301 -77.834 -11.5 -111.501s-7.83398 -69.5 -12.501 -107.5c0 -0.666992 -0.166992 -2.66699 -0.5 -6s-1.5 -10.666 -3.5 -21.999s-5.33301 -28.166 -10 -50.499s-11.667 -52.5 -21 -90.5c-6.66699 -24 -13.834 -43.333 -21.501 -58
s-17.334 -26 -29.001 -34s-26.334 -13.333 -44.001 -16s-39.834 -4 -66.501 -4c8.66699 10 16.334 18.167 23.001 24.5s12.167 12.5 16.5 18.5s8 12.5 11 19.5s5.5 16.5 7.5 28.5c4 23.333 9.5 51 16.5 83l22 102.5l22.5 111.5c7.33301 38 13 74.667 17 110
c0 14.667 -5 22 -15 22c-2.66699 0 -5.33398 -0.333008 -8.00098 -1s-5.66699 -1.66699 -9 -3c-19.333 -7.33301 -40.666 -12.833 -63.999 -16.5s-44.666 -5.5 -63.999 -5.5c-5.33301 0 -15.166 1.33301 -29.499 4s-29.333 6 -45 10s-29.5 8.5 -41.5 13.5
s-18 9.83301 -18 14.5c0 6 4.5 12 13.5 18s19.167 11.5 30.5 16.5s22 9 32 12s15.667 4.5 17 4.5c11.333 0 22.666 -6.66699 33.999 -20c10 -12.667 21.333 -21.167 34 -25.5s26 -6.5 40 -6.5c30 0 59.667 4.66699 89 14s61.666 18.666 96.999 27.999z" />
    <glyph glyph-name="Oacute" unicode="&#xd3;" horiz-adv-x="666" 
d="M435 649c1.33301 0 -0.999023 -1.33105 -6.99902 -3.99805s-13.333 -5.66699 -22 -9s-17.334 -6.5 -26.001 -9.5s-15 -4.5 -19 -4.5h-4c-15.333 0 -23 6.66699 -23 20c0 8.66699 2.66699 19.167 8 31.5s11.333 24.5 18 36.5l18 33c5.33301 10 8 17 8 21
c0 1.33301 -0.833008 3 -2.5 5s-3.16699 3 -4.5 3c4.66699 1.33301 8 2.66602 10 3.99902s4.16699 2.66602 6.5 3.99902s6.16602 3 11.499 5s14 4.66699 26 8c2.66699 0.666992 6.33398 1.5 11.001 2.5l14.5 3c5 1 9.66699 1.66699 14 2s7.5 0.5 9.5 0.5
c9.33301 0 14 -3 14 -9s-3.66699 -14.333 -11 -25l-24.5 -34c-9 -12 -17.167 -24 -24.5 -36s-11 -22.333 -11 -31c0 -7.33301 3.33301 -13 10 -17zM571.001 215.002c-19.333 -28.667 -39.4941 -54.168 -60.4941 -76.501s-44.333 -41.666 -70 -57.999
s-54.334 -30 -86.001 -41s-67.834 -19.5 -108.501 -25.5c-31.333 -4.66699 -60.166 -5.16699 -86.499 -1.5s-49.333 12.334 -69 26.001s-35.5 32.334 -47.5 56.001s-18.667 53.167 -20 88.5c-1.33301 32.667 2.66699 66.5 12 101.5s22.5 68.167 39.5 99.5
s37.333 59.833 61 85.5s49.167 45.834 76.5 60.501c21.333 10 44.5 18.667 69.5 26s55.5 13.666 91.5 18.999c-28 -10 -52.833 -22.167 -74.5 -36.5s-41.167 -30 -58.5 -47s-33 -35 -47 -54s-27.667 -38.5 -41 -58.5c-14.667 -24.667 -24.5 -49.334 -29.5 -74.001
s-6.5 -50 -4.5 -76c2 -24 8.16699 -45.333 18.5 -64s23.166 -34.167 38.499 -46.5s32.5 -22 51.5 -29s37.5 -11.167 55.5 -12.5s38.167 2 60.5 10s43.666 18.5 63.999 31.5s38.333 27.667 54 44s25.834 32.5 30.501 48.5c5.33301 15.333 10.166 30.666 14.499 45.999
s7.5 30.666 9.5 45.999c2 18.667 1.16699 37.334 -2.5 56.001s-10.834 36.167 -21.501 52.5s-25.167 31.333 -43.5 45s-41.5 25.5 -69.5 35.5c15.333 16.667 33.166 28.667 53.499 36s43.833 7.33301 70.5 0c27.333 -8 49.833 -22.833 67.5 -44.5s29.667 -47 36 -76
s6.66602 -60.333 0.999023 -94s-17.5 -66.5 -35.5 -98.5z" />
    <glyph glyph-name="Odieresis" unicode="&#xd6;" horiz-adv-x="622" 
d="M571 215c-19.333 -28.667 -39.4941 -54.168 -60.4941 -76.501s-44.333 -41.666 -70 -57.999s-54.334 -30 -86.001 -41s-67.834 -19.5 -108.501 -25.5c-31.333 -4.66699 -60.166 -5.16699 -86.499 -1.5s-49.333 12.334 -69 26.001s-35.5 32.334 -47.5 56.001
s-18.667 53.167 -20 88.5c-1.33301 32.667 2.66699 66.5 12 101.5s22.5 68.167 39.5 99.5s37.333 59.833 61 85.5s49.167 45.834 76.5 60.501c21.333 10 44.5 18.667 69.5 26s55.5 13.666 91.5 18.999c-28 -10 -52.833 -22.167 -74.5 -36.5s-41.167 -30 -58.5 -47
s-33 -35 -47 -54s-27.667 -38.5 -41 -58.5c-14.667 -24.667 -24.5 -49.334 -29.5 -74.001s-6.5 -50 -4.5 -76c2 -24 8.16699 -45.333 18.5 -64s23.166 -34.167 38.499 -46.5s32.5 -22 51.5 -29s37.5 -11.167 55.5 -12.5s38.167 2 60.5 10s43.666 18.5 63.999 31.5
s38.333 27.667 54 44s25.834 32.5 30.501 48.5c5.33301 15.333 10.166 30.666 14.499 45.999s7.5 30.666 9.5 45.999c2 18.667 1.16699 37.334 -2.5 56.001s-10.834 36.167 -21.501 52.5s-25.167 31.333 -43.5 45s-41.5 25.5 -69.5 35.5
c15.333 16.667 33.166 28.667 53.499 36s43.833 7.33301 70.5 0c27.333 -8 49.833 -22.833 67.5 -44.5s29.667 -47 36 -76s6.66602 -60.333 0.999023 -94s-17.5 -66.5 -35.5 -98.5zM389.006 621.999c2.66699 -1.33301 1.16699 -3.50293 -4.5 -6.50293s-13 -6 -22 -9
s-18 -5.66699 -27 -8s-15.833 -3.5 -20.5 -3.5c-20 -1.33301 -32.5 2.66699 -37.5 12s-7 19.833 -6 31.5s2.16699 22.334 3.5 32.001s-1.66699 14.167 -9 13.5c9.33301 2.66699 18.666 5.16699 27.999 7.5s18.333 5.5 27 9.5c4 1.33301 7.83301 2.83301 11.5 4.5
s7.83398 2.83398 12.501 3.50098c13.333 0.666992 21 -2.33301 23 -9s2.5 -14.667 1.5 -24s-1 -19.166 0 -29.499s7.5 -18.5 19.5 -24.5zM535.006 635.996c2.66699 -1.33301 1.16699 -3.50293 -4.5 -6.50293s-13 -6 -22 -9s-18 -5.66699 -27 -8s-15.833 -3.5 -20.5 -3.5
c-20 -1.33301 -32.5 2.66699 -37.5 12s-7 19.833 -6 31.5s2.16699 22.334 3.5 32.001s-1.66699 14.167 -9 13.5c9.33301 2.66699 18.666 5.16699 27.999 7.5s18.333 5.5 27 9.5c4 1.33301 7.83301 2.83301 11.5 4.5s7.83398 2.83398 12.501 3.50098
c13.333 0.666992 21 -2.33301 23 -9s2.5 -14.667 1.5 -24s-1 -19.166 0 -29.499s7.5 -18.5 19.5 -24.5z" />
    <glyph glyph-name="Uacute" unicode="&#xda;" horiz-adv-x="541" 
d="M363 147c0 21.333 1.16797 43.5 3.50098 66.5s5.33301 46.167 9 69.5s7.5 46.333 11.5 69s8 44 12 64c6 33.333 13 60 21 80s17.5 35.167 28.5 45.5s24 17.166 39 20.499s32.5 5 52.5 5c3.33301 0 6 -1 8 -3c0 -4.66699 -1 -8 -3 -10
c-12 -14 -22.167 -31.833 -30.5 -53.5s-15.333 -45.334 -21 -71.001s-10.334 -51.667 -14.001 -78s-6.33398 -51.166 -8.00098 -74.499s-2.83398 -43.666 -3.50098 -60.999s-1 -29.666 -1 -36.999c0 -40 6.33301 -71.167 19 -93.5s34 -33.5 64 -33.5
c4.66699 0 9.16699 0.333008 13.5 1s8.83301 1 13.5 1c2.66699 0 5.33398 -0.666992 8.00098 -2s4 -4 4 -8c0 -2.66699 -1.66699 -5 -5 -7s-5.66602 -4 -6.99902 -6c-15.333 -8.66699 -32.666 -16 -51.999 -22s-39.333 -9 -60 -9c-11.333 0 -22.333 0.833008 -33 2.5
s-20.334 5.16699 -29.001 10.5s-16.167 12.666 -22.5 21.999s-10.5 22 -12.5 38zM34.001 520c17.333 14 37.668 25.002 61.001 33.002s44 12 62 12c13.333 0 22.666 -4.83301 27.999 -14.5s8 -24.834 8 -45.501c0 -15.333 -2.33301 -29.666 -7 -42.999
c-15.333 -44 -28.666 -90.167 -39.999 -138.5s-17 -95.5 -17 -141.5c0 -13.333 1.16699 -27.166 3.5 -41.499s6.33301 -27.333 12 -39s13 -21.334 22 -29.001s20.5 -11.5 34.5 -11.5c23.333 0 44.833 4.66699 64.5 14s38.834 19.333 57.501 30c12 6.66699 18.5 10 19.5 10
s0.166992 -1.33301 -2.5 -4l-9 -9c-3.33301 -3.33301 -3.66602 -5 -0.999023 -5c-3.33301 0 -7 -1.16699 -11 -3.5l-17 -9.5l-45 -25c-16 -8.66699 -32.333 -16.834 -49 -24.501s-33.334 -13.834 -50.001 -18.501s-32 -7 -46 -7c-23.333 0 -42.833 11.167 -58.5 33.5
s-23.5 52.833 -23.5 91.5c0 4 0.166992 7.83301 0.5 11.5s0.833008 7.5 1.5 11.5c5.33301 43.333 12.166 85 20.499 125s18.166 81.333 29.499 124c3.33301 12 5 27.333 5 46c0 8.66699 -0.5 17.167 -1.5 25.5s-3 15.833 -6 22.5s-6.83301 12.167 -11.5 16.5
s-10.667 6.5 -18 6.5c-4.66699 0 -10 -1 -16 -3zM393.003 650.002c1.33301 0 -0.999023 -1.33105 -6.99902 -3.99805s-13.333 -5.66699 -22 -9s-17.334 -6.5 -26.001 -9.5s-15 -4.5 -19 -4.5h-4c-15.333 0 -23 6.66699 -23 20c0 8.66699 2.66699 19.167 8 31.5
s11.333 24.5 18 36.5l18 33c5.33301 10 8 17 8 21c0 1.33301 -0.833008 3 -2.5 5s-3.16699 3 -4.5 3c4.66699 1.33301 8 2.66602 10 3.99902s4.16699 2.66602 6.5 3.99902s6.16602 3 11.499 5s14 4.66699 26 8c2.66699 0.666992 6.33398 1.5 11.001 2.5l14.5 3
c5 1 9.66699 1.66699 14 2s7.5 0.5 9.5 0.5c9.33301 0 14 -3 14 -9s-3.66699 -14.333 -11 -25l-24.5 -34c-9 -12 -17.167 -24 -24.5 -36s-11 -22.333 -11 -31c0 -7.33301 3.33301 -13 10 -17z" />
    <glyph glyph-name="Udieresis" unicode="&#xdc;" horiz-adv-x="541" 
d="M363 147c0 21.333 1.16797 43.5 3.50098 66.5s5.33301 46.167 9 69.5s7.5 46.333 11.5 69s8 44 12 64c6 33.333 13 60 21 80s17.5 35.167 28.5 45.5s24 17.166 39 20.499s32.5 5 52.5 5c3.33301 0 6 -1 8 -3c0 -4.66699 -1 -8 -3 -10
c-12 -14 -22.167 -31.833 -30.5 -53.5s-15.333 -45.334 -21 -71.001s-10.334 -51.667 -14.001 -78s-6.33398 -51.166 -8.00098 -74.499s-2.83398 -43.666 -3.50098 -60.999s-1 -29.666 -1 -36.999c0 -40 6.33301 -71.167 19 -93.5s34 -33.5 64 -33.5
c4.66699 0 9.16699 0.333008 13.5 1s8.83301 1 13.5 1c2.66699 0 5.33398 -0.666992 8.00098 -2s4 -4 4 -8c0 -2.66699 -1.66699 -5 -5 -7s-5.66602 -4 -6.99902 -6c-15.333 -8.66699 -32.666 -16 -51.999 -22s-39.333 -9 -60 -9c-11.333 0 -22.333 0.833008 -33 2.5
s-20.334 5.16699 -29.001 10.5s-16.167 12.666 -22.5 21.999s-10.5 22 -12.5 38zM34.001 520c17.333 14 37.668 25.002 61.001 33.002s44 12 62 12c13.333 0 22.666 -4.83301 27.999 -14.5s8 -24.834 8 -45.501c0 -15.333 -2.33301 -29.666 -7 -42.999
c-15.333 -44 -28.666 -90.167 -39.999 -138.5s-17 -95.5 -17 -141.5c0 -13.333 1.16699 -27.166 3.5 -41.499s6.33301 -27.333 12 -39s13 -21.334 22 -29.001s20.5 -11.5 34.5 -11.5c23.333 0 44.833 4.66699 64.5 14s38.834 19.333 57.501 30c12 6.66699 18.5 10 19.5 10
s0.166992 -1.33301 -2.5 -4l-9 -9c-3.33301 -3.33301 -3.66602 -5 -0.999023 -5c-3.33301 0 -7 -1.16699 -11 -3.5l-17 -9.5l-45 -25c-16 -8.66699 -32.333 -16.834 -49 -24.501s-33.334 -13.834 -50.001 -18.501s-32 -7 -46 -7c-23.333 0 -42.833 11.167 -58.5 33.5
s-23.5 52.833 -23.5 91.5c0 4 0.166992 7.83301 0.5 11.5s0.833008 7.5 1.5 11.5c5.33301 43.333 12.166 85 20.499 125s18.166 81.333 29.499 124c3.33301 12 5 27.333 5 46c0 8.66699 -0.5 17.167 -1.5 25.5s-3 15.833 -6 22.5s-6.83301 12.167 -11.5 16.5
s-10.667 6.5 -18 6.5c-4.66699 0 -10 -1 -16 -3zM317.003 628.002c2.66699 -1.33301 1.16699 -3.50293 -4.5 -6.50293s-13 -6 -22 -9s-18 -5.66699 -27 -8s-15.833 -3.5 -20.5 -3.5c-20 -1.33301 -32.5 2.66699 -37.5 12s-7 19.833 -6 31.5s2.16699 22.334 3.5 32.001
s-1.66699 14.167 -9 13.5c9.33301 2.66699 18.666 5.16699 27.999 7.5s18.333 5.5 27 9.5c4 1.33301 7.83301 2.83301 11.5 4.5s7.83398 2.83398 12.501 3.50098c13.333 0.666992 21 -2.33301 23 -9s2.5 -14.667 1.5 -24s-1 -19.166 0 -29.499s7.5 -18.5 19.5 -24.5z
M463.003 641.999c2.66699 -1.33301 1.16699 -3.50293 -4.5 -6.50293s-13 -6 -22 -9s-18 -5.66699 -27 -8s-15.833 -3.5 -20.5 -3.5c-20 -1.33301 -32.5 2.66699 -37.5 12s-7 19.833 -6 31.5s2.16699 22.334 3.5 32.001s-1.66699 14.167 -9 13.5
c9.33301 2.66699 18.666 5.16699 27.999 7.5s18.333 5.5 27 9.5c4 1.33301 7.83301 2.83301 11.5 4.5s7.83398 2.83398 12.501 3.50098c13.333 0.666992 21 -2.33301 23 -9s2.5 -14.667 1.5 -24s-1 -19.166 0 -29.499s7.5 -18.5 19.5 -24.5z" />
    <glyph glyph-name="aacute" unicode="&#xe1;" horiz-adv-x="472" 
d="M366 282c-11.333 -3.33301 -22.3311 -7.16602 -32.998 -11.499s-21.667 -6.5 -33 -6.5s-23.666 3.16699 -36.999 9.5s-25.666 9.5 -36.999 9.5c-13.333 0 -26.333 -3.66699 -39 -11s-24.334 -17 -35.001 -29s-19.167 -25.333 -25.5 -40s-9.5 -29.334 -9.5 -44.001
c0 -19.333 3.33301 -35.166 10 -47.499s15.167 -22 25.5 -29s21.666 -11.667 33.999 -14s24.166 -3.5 35.499 -3.5h14h8.5c2.33301 0 5.16602 0.333008 8.49902 1c-14 -21.333 -31.833 -37.333 -53.5 -48s-44.167 -16 -67.5 -16c-12.667 0 -26 1.83301 -40 5.5
s-27 9.16699 -39 16.5s-22 16.666 -30 27.999s-12 25 -12 41c0 29.333 7 55.833 21 79.5s30.667 46.834 50 69.501c16.667 8 34.5 17.333 53.5 28l57 30.5c19 9.66699 37.667 17.667 56 24s35.5 9.5 51.5 9.5c6.66699 0 15.167 -0.166992 25.5 -0.5s20.333 -1.5 30 -3.5
s18 -5.33301 25 -10s10.5 -11.334 10.5 -20.001c0 -5.33301 -2.83301 -9.5 -8.5 -12.5s-11.167 -4.83301 -16.5 -5.5zM478.002 42c-41.333 -32 -74.334 -48.001 -99.001 -48.001c-28.667 0 -48 21.333 -58 64c1.33301 3.33301 2 6.16602 2 8.49902v7.5
c0 6.66699 -2.33301 10 -7 10c-2 0 -5 -1.16699 -9 -3.5s-9.33301 -3.5 -16 -3.5c-4.66699 0 -7 1.66699 -7 5c0 2.66699 0.666992 5 2 7l8 11l28.5 37.5c9.66699 12.333 20.334 23.5 32.001 33.5s24.667 18.667 39 26s30.5 12.333 48.5 15
c0 -15.333 -2.16699 -32.166 -6.5 -50.499s-6.5 -36.166 -6.5 -53.499c0 -13.333 3.33301 -25.5 10 -36.5s19.667 -20.833 39 -29.5zM376.001 413.999c1.33301 0 -0.999023 -1.33105 -6.99902 -3.99805s-13.333 -5.66699 -22 -9s-17.334 -6.5 -26.001 -9.5
s-15 -4.5 -19 -4.5h-4c-15.333 0 -23 6.66699 -23 20c0 8.66699 2.66699 19.167 8 31.5s11.333 24.5 18 36.5l18 33c5.33301 10 8 17 8 21c0 1.33301 -0.833008 3 -2.5 5s-3.16699 3 -4.5 3c4.66699 1.33301 8 2.66602 10 3.99902s4.16699 2.66602 6.5 3.99902
s6.16602 3 11.499 5s14 4.66699 26 8c2.66699 0.666992 6.33398 1.5 11.001 2.5l14.5 3c5 1 9.66699 1.66699 14 2s7.5 0.5 9.5 0.5c9.33301 0 14 -3 14 -9s-3.66699 -14.333 -11 -25l-24.5 -34c-9 -12 -17.167 -24 -24.5 -36s-11 -22.333 -11 -31
c0 -7.33301 3.33301 -13 10 -17z" />
    <glyph glyph-name="eacute" unicode="&#xe9;" horiz-adv-x="370" 
d="M296 224l-7.99609 0.00585938l-34 -12c-11.333 -4 -22.166 -7.5 -32.499 -10.5s-20.833 -4.5 -31.5 -4.5c-1.33301 -0.666992 -2.5 -0.833984 -3.5 -0.500977s-2.5 0.166016 -4.5 -0.500977c0 -0.666992 -0.333008 -1.33398 -1 -2.00098s-1.33398 -1 -2.00098 -1
s-1.33398 -0.666992 -2.00098 -2c-4 -3.33301 -8.83301 -5.33301 -14.5 -6s-11.167 -1.5 -16.5 -2.5s-10 -2.66699 -14 -5s-6.33301 -6.83301 -7 -13.5l-3 -6c0 -19.333 3.33301 -35.166 10 -47.499s15.167 -22 25.5 -29s21.666 -11.667 33.999 -14s24.166 -3.5 35.499 -3.5
h14c1.33301 0 5.66602 0.333008 12.999 1s15.333 1.5 24 2.5s16.667 2 24 3s11.666 1.5 12.999 1.5c-7.33301 -10.667 -18.5 -20.334 -33.5 -29.001s-31.167 -16.167 -48.5 -22.5s-34.666 -11.166 -51.999 -14.499s-32 -5 -44 -5c-12.667 0 -26 1.83301 -40 5.5
s-27 9.16699 -39 16.5s-22 16.666 -30 27.999s-12 25 -12 41c0 14 2.5 29.667 7.5 47s13 35.166 24 53.499s25.333 36.666 43 54.999s39.5 35.5 65.5 51.5c16 6.66699 30.167 11.834 42.5 15.501s24.333 6 36 7s23 0.333008 34 -2s22.833 -6.5 35.5 -12.5
c11.333 -5.33301 21.333 -12 30 -20s12.667 -18.667 12 -32c0 -6.66699 -1.66699 -11.834 -5 -15.501s-7.5 -6.33398 -12.5 -8.00098s-10.333 -3 -16 -4s-11.167 -2.16699 -16.5 -3.5zM184.004 197.006h-1c2 4.66699 4.5 8.16699 7.5 10.5s6.33301 4 10 5
s7.5 1.83301 11.5 2.5s8 1.66699 12 3c12.667 4.66699 20 11.334 22 20.001s-0.333008 17.667 -7 27c-4.66699 7.33301 -10.334 13.333 -17.001 18c-28.667 4.66699 -50 1.33398 -64 -9.99902s-23.333 -26 -28 -44v-14c0.666992 -10 3 -15.833 7 -17.5
s8.5 -1.83398 13.5 -0.500977l15.5 4c5.33301 1.33301 9.66602 0.666016 12.999 -2.00098c0.666992 0 1.33398 -0.333008 2.00098 -1s1.33398 -1 2.00098 -1l-1 -1c0.666992 0 1 0.166992 1 0.5s0.333008 0.5 1 0.5zM309.004 402.006
c1.33301 0 -0.999023 -1.33105 -6.99902 -3.99805s-13.333 -5.66699 -22 -9s-17.334 -6.5 -26.001 -9.5s-15 -4.5 -19 -4.5h-4c-15.333 0 -23 6.66699 -23 20c0 8.66699 2.66699 19.167 8 31.5s11.333 24.5 18 36.5l18 33c5.33301 10 8 17 8 21
c0 1.33301 -0.833008 3 -2.5 5s-3.16699 3 -4.5 3c4.66699 1.33301 8 2.66602 10 3.99902s4.16699 2.66602 6.5 3.99902s6.16602 3 11.499 5s14 4.66699 26 8c2.66699 0.666992 6.33398 1.5 11.001 2.5l14.5 3c5 1 9.66699 1.66699 14 2s7.5 0.5 9.5 0.5
c9.33301 0 14 -3 14 -9s-3.66699 -14.333 -11 -25l-24.5 -34c-9 -12 -17.167 -24 -24.5 -36s-11 -22.333 -11 -31c0 -7.33301 3.33301 -13 10 -17z" />
    <glyph glyph-name="iacute" unicode="&#xed;" 
d="M129 85l0.00292969 -6.99707c0 -10.667 2 -20 6 -28s12.667 -13 26 -15c-2 -3.33301 -6.83301 -7 -14.5 -11s-16.167 -7.66699 -25.5 -11s-18.833 -6.16602 -28.5 -8.49902s-17.167 -3.5 -22.5 -3.5c-9.33301 0 -17.333 1.83301 -24 5.5s-12.167 8.16699 -16.5 13.5
s-7.66602 11.166 -9.99902 17.499s-3.5 12.5 -3.5 18.5c0 13.333 2.66699 27.333 8 42s8.66602 28.667 9.99902 42c20.667 48 31 89.333 31 124c0 23.333 -5 42.666 -15 57.999c12 3.33301 23.667 6.16602 35 8.49902s22.333 6.16602 33 11.499
c5.33301 2.66699 10.166 4.83398 14.499 6.50098s9.16602 2.5 14.499 2.5c9.33301 0 18.166 -5.33301 26.499 -16s12.5 -22.334 12.5 -35.001c0 -6 -1 -12 -3 -18c-9.33301 -32.667 -19.5 -65.167 -30.5 -97.5s-18.833 -65.5 -23.5 -99.5zM168.003 411.003
c1.33301 0 -0.999023 -1.33105 -6.99902 -3.99805s-13.333 -5.66699 -22 -9s-17.334 -6.5 -26.001 -9.5s-15 -4.5 -19 -4.5h-4c-15.333 0 -23 6.66699 -23 20c0 8.66699 2.66699 19.167 8 31.5s11.333 24.5 18 36.5l18 33c5.33301 10 8 17 8 21
c0 1.33301 -0.833008 3 -2.5 5s-3.16699 3 -4.5 3c4.66699 1.33301 8 2.66602 10 3.99902s4.16699 2.66602 6.5 3.99902s6.16602 3 11.499 5s14 4.66699 26 8c2.66699 0.666992 6.33398 1.5 11.001 2.5l14.5 3c5 1 9.66699 1.66699 14 2s7.5 0.5 9.5 0.5
c9.33301 0 14 -3 14 -9s-3.66699 -14.333 -11 -25l-24.5 -34c-9 -12 -17.167 -24 -24.5 -36s-11 -22.333 -11 -31c0 -7.33301 3.33301 -13 10 -17z" />
    <glyph glyph-name="oacute" unicode="&#xf3;" horiz-adv-x="427" 
d="M381 126c-20 -31.333 -45.3281 -53.8389 -75.9951 -67.5059s-62.667 -24.834 -96 -33.501c-6 -1.33301 -12.333 -2.66602 -19 -3.99902s-13.334 -3.66602 -20.001 -6.99902c-18.667 -8.66699 -36.834 -12.5 -54.501 -11.5s-33.334 5.66699 -47.001 14
s-24.834 20.333 -33.501 36s-13.334 33.834 -14.001 54.501c-1.33301 19.333 1.16699 39.166 7.5 59.499s15 39.833 26 58.5s24.333 35.5 40 50.5s32.5 26.5 50.5 34.5c14 6 28.667 11.333 44 16s31.666 8.66699 48.999 12c-26.667 -12 -47.667 -28.333 -63 -49
s-29.333 -42.667 -42 -66c-14 -28.667 -19.333 -58 -16 -88c1.33301 -11.333 4.5 -22.166 9.5 -32.499s11.167 -19.666 18.5 -27.999s15.333 -15.166 24 -20.499s17.334 -8.33301 26.001 -9s18.334 1.33301 29.001 6s20.834 10.834 30.501 18.501s18.167 16.334 25.5 26.001
s12.333 19.167 15 28.5l6 27c2 8.66699 3.33301 17.667 4 27c0.666992 11.333 0.166992 21.5 -1.5 30.5s-5 17.833 -10 26.5s-11.833 17.334 -20.5 26.001s-19.667 18 -33 28c8 2.66699 16 5.5 24 8.5l23.5 8.5c7.66699 2.66699 15.5 4.33398 23.5 5.00098s16.333 0 25 -2
c18 -4.66699 32.667 -13.334 44 -26.001s19.166 -27.5 23.499 -44.5s4.66602 -35.333 0.999023 -55s-11.5 -38.834 -23.5 -57.501zM299.005 414.994c1.33301 0 -0.999023 -1.33105 -6.99902 -3.99805s-13.333 -5.66699 -22 -9s-17.334 -6.5 -26.001 -9.5s-15 -4.5 -19 -4.5
h-4c-15.333 0 -23 6.66699 -23 20c0 8.66699 2.66699 19.167 8 31.5s11.333 24.5 18 36.5l18 33c5.33301 10 8 17 8 21c0 1.33301 -0.833008 3 -2.5 5s-3.16699 3 -4.5 3c4.66699 1.33301 8 2.66602 10 3.99902s4.16699 2.66602 6.5 3.99902s6.16602 3 11.499 5
s14 4.66699 26 8c2.66699 0.666992 6.33398 1.5 11.001 2.5l14.5 3c5 1 9.66699 1.66699 14 2s7.5 0.5 9.5 0.5c9.33301 0 14 -3 14 -9s-3.66699 -14.333 -11 -25l-24.5 -34c-9 -12 -17.167 -24 -24.5 -36s-11 -22.333 -11 -31c0 -7.33301 3.33301 -13 10 -17z" />
    <glyph glyph-name="odieresis" unicode="&#xf6;" horiz-adv-x="427" 
d="M381 126c-20 -31.333 -45.3281 -53.8389 -75.9951 -67.5059s-62.667 -24.834 -96 -33.501c-6 -1.33301 -12.333 -2.66602 -19 -3.99902s-13.334 -3.66602 -20.001 -6.99902c-18.667 -8.66699 -36.834 -12.5 -54.501 -11.5s-33.334 5.66699 -47.001 14
s-24.834 20.333 -33.501 36s-13.334 33.834 -14.001 54.501c-1.33301 19.333 1.16699 39.166 7.5 59.499s15 39.833 26 58.5s24.333 35.5 40 50.5s32.5 26.5 50.5 34.5c14 6 28.667 11.333 44 16s31.666 8.66699 48.999 12c-26.667 -12 -47.667 -28.333 -63 -49
s-29.333 -42.667 -42 -66c-14 -28.667 -19.333 -58 -16 -88c1.33301 -11.333 4.5 -22.166 9.5 -32.499s11.167 -19.666 18.5 -27.999s15.333 -15.166 24 -20.499s17.334 -8.33301 26.001 -9s18.334 1.33301 29.001 6s20.834 10.834 30.501 18.501s18.167 16.334 25.5 26.001
s12.333 19.167 15 28.5l6 27c2 8.66699 3.33301 17.667 4 27c0.666992 11.333 0.166992 21.5 -1.5 30.5s-5 17.833 -10 26.5s-11.833 17.334 -20.5 26.001s-19.667 18 -33 28c8 2.66699 16 5.5 24 8.5l23.5 8.5c7.66699 2.66699 15.5 4.33398 23.5 5.00098s16.333 0 25 -2
c18 -4.66699 32.667 -13.334 44 -26.001s19.166 -27.5 23.499 -44.5s4.66602 -35.333 0.999023 -55s-11.5 -38.834 -23.5 -57.501zM273.005 387.994c2.66699 -1.33301 1.16699 -3.50293 -4.5 -6.50293s-13 -6 -22 -9s-18 -5.66699 -27 -8s-15.833 -3.5 -20.5 -3.5
c-20 -1.33301 -32.5 2.66699 -37.5 12s-7 19.833 -6 31.5s2.16699 22.334 3.5 32.001s-1.66699 14.167 -9 13.5c9.33301 2.66699 18.666 5.16699 27.999 7.5s18.333 5.5 27 9.5c4 1.33301 7.83301 2.83301 11.5 4.5s7.83398 2.83398 12.501 3.50098
c13.333 0.666992 21 -2.33301 23 -9s2.5 -14.667 1.5 -24s-1 -19.166 0 -29.499s7.5 -18.5 19.5 -24.5zM419.005 401.991c2.66699 -1.33301 1.16699 -3.50293 -4.5 -6.50293s-13 -6 -22 -9s-18 -5.66699 -27 -8s-15.833 -3.5 -20.5 -3.5
c-20 -1.33301 -32.5 2.66699 -37.5 12s-7 19.833 -6 31.5s2.16699 22.334 3.5 32.001s-1.66699 14.167 -9 13.5c9.33301 2.66699 18.666 5.16699 27.999 7.5s18.333 5.5 27 9.5c4 1.33301 7.83301 2.83301 11.5 4.5s7.83398 2.83398 12.501 3.50098
c13.333 0.666992 21 -2.33301 23 -9s2.5 -14.667 1.5 -24s-1 -19.166 0 -29.499s7.5 -18.5 19.5 -24.5z" />
    <glyph glyph-name="uacute" unicode="&#xfa;" horiz-adv-x="446" 
d="M444 40c-41.333 -31.333 -74.332 -46.999 -98.999 -46.999c-26.667 0 -45.334 18 -56.001 54c-11.333 -5.33301 -21.166 -9.16602 -29.499 -11.499s-11.833 -3.5 -10.5 -3.5c-5.33301 0 -11 -1.33301 -17 -4l-4 2l-7 5c0 1.33301 -0.666992 2 -2 2
c-0.666992 1.33301 -1 2.66602 -1 3.99902s0.333008 2.83301 1 4.5s2 3.16699 4 4.5c24 15.333 41.5 41.666 52.5 78.999s21.833 84.666 32.5 141.999c3.33301 16.667 12.833 29.834 28.5 39.501s31.834 14.5 48.501 14.5c10 0 19 -2 27 -6c6.66699 -3.33301 11 -7 13 -11
s3 -8.33301 3 -13c0 -3.33301 -0.333008 -7 -1 -11s-1.33398 -7.66699 -2.00098 -11c-4.66699 -28.667 -10.834 -56.667 -18.501 -84s-11.5 -55.333 -11.5 -84c0 -12.667 3.33301 -24.5 10 -35.5s19.667 -20.833 39 -29.5zM199.001 34.001
c-4.66699 -5.33301 -9.66602 -9.33594 -14.999 -12.0029s-10.833 -4.83398 -16.5 -6.50098l-16.5 -5c-5.33301 -1.66699 -10.333 -4.16699 -15 -7.5c-3.33301 -0.666992 -6.33301 -1.16699 -9 -1.5s-5.33398 -0.5 -8.00098 -0.5c-19.333 0 -35.166 5.33301 -47.499 16
l-38.5 35c-4 13.333 -6.83301 25.833 -8.5 37.5s-0.833984 27.5 2.49902 47.5c2.66699 14.667 6.16699 29.334 10.5 44.001s8 29.167 11 43.5s4.66699 28.666 5 42.999s-1.83398 28.5 -6.50098 42.5c-0.666992 2 2.83301 4.83301 10.5 8.5s17 7.33398 28 11.001
s22.167 6.66699 33.5 9s20.333 3.5 27 3.5c4 0 6.66699 -0.333008 8 -1c11.333 -5.33301 17 -12.666 17 -21.999c0 -4.66699 -1.16699 -9.83398 -3.5 -15.501s-4.16602 -11.167 -5.49902 -16.5c-3.33301 -16.667 -8 -34.5 -14 -53.5s-9.66699 -36.833 -11 -53.5
c0 -2 -0.333008 -5.16699 -1 -9.5s-1.16699 -8.83301 -1.5 -13.5s-0.666016 -9 -0.999023 -13s-0.5 -7 -0.5 -9c0 -13.333 1 -24.666 3 -33.999s5.5 -17.666 10.5 -24.999s11.667 -14.166 20 -20.499s19.166 -13.5 32.499 -21.5zM309.002 411.998
c1.33301 0 -0.999023 -1.33105 -6.99902 -3.99805s-13.333 -5.66699 -22 -9s-17.334 -6.5 -26.001 -9.5s-15 -4.5 -19 -4.5h-4c-15.333 0 -23 6.66699 -23 20c0 8.66699 2.66699 19.167 8 31.5s11.333 24.5 18 36.5l18 33c5.33301 10 8 17 8 21
c0 1.33301 -0.833008 3 -2.5 5s-3.16699 3 -4.5 3c4.66699 1.33301 8 2.66602 10 3.99902s4.16699 2.66602 6.5 3.99902s6.16602 3 11.499 5s14 4.66699 26 8c2.66699 0.666992 6.33398 1.5 11.001 2.5l14.5 3c5 1 9.66699 1.66699 14 2s7.5 0.5 9.5 0.5
c9.33301 0 14 -3 14 -9s-3.66699 -14.333 -11 -25l-24.5 -34c-9 -12 -17.167 -24 -24.5 -36s-11 -22.333 -11 -31c0 -7.33301 3.33301 -13 10 -17z" />
    <glyph glyph-name="udieresis" unicode="&#xfc;" horiz-adv-x="446" 
d="M444 40c-41.333 -31.333 -74.332 -46.999 -98.999 -46.999c-26.667 0 -45.334 18 -56.001 54c-11.333 -5.33301 -21.166 -9.16602 -29.499 -11.499s-11.833 -3.5 -10.5 -3.5c-5.33301 0 -11 -1.33301 -17 -4l-4 2l-7 5c0 1.33301 -0.666992 2 -2 2
c-0.666992 1.33301 -1 2.66602 -1 3.99902s0.333008 2.83301 1 4.5s2 3.16699 4 4.5c24 15.333 41.5 41.666 52.5 78.999s21.833 84.666 32.5 141.999c3.33301 16.667 12.833 29.834 28.5 39.501s31.834 14.5 48.501 14.5c10 0 19 -2 27 -6c6.66699 -3.33301 11 -7 13 -11
s3 -8.33301 3 -13c0 -3.33301 -0.333008 -7 -1 -11s-1.33398 -7.66699 -2.00098 -11c-4.66699 -28.667 -10.834 -56.667 -18.501 -84s-11.5 -55.333 -11.5 -84c0 -12.667 3.33301 -24.5 10 -35.5s19.667 -20.833 39 -29.5zM199.001 34.001
c-4.66699 -5.33301 -9.66602 -9.33594 -14.999 -12.0029s-10.833 -4.83398 -16.5 -6.50098l-16.5 -5c-5.33301 -1.66699 -10.333 -4.16699 -15 -7.5c-3.33301 -0.666992 -6.33301 -1.16699 -9 -1.5s-5.33398 -0.5 -8.00098 -0.5c-19.333 0 -35.166 5.33301 -47.499 16
l-38.5 35c-4 13.333 -6.83301 25.833 -8.5 37.5s-0.833984 27.5 2.49902 47.5c2.66699 14.667 6.16699 29.334 10.5 44.001s8 29.167 11 43.5s4.66699 28.666 5 42.999s-1.83398 28.5 -6.50098 42.5c-0.666992 2 2.83301 4.83301 10.5 8.5s17 7.33398 28 11.001
s22.167 6.66699 33.5 9s20.333 3.5 27 3.5c4 0 6.66699 -0.333008 8 -1c11.333 -5.33301 17 -12.666 17 -21.999c0 -4.66699 -1.16699 -9.83398 -3.5 -15.501s-4.16602 -11.167 -5.49902 -16.5c-3.33301 -16.667 -8 -34.5 -14 -53.5s-9.66699 -36.833 -11 -53.5
c0 -2 -0.333008 -5.16699 -1 -9.5s-1.16699 -8.83301 -1.5 -13.5s-0.666016 -9 -0.999023 -13s-0.5 -7 -0.5 -9c0 -13.333 1 -24.666 3 -33.999s5.5 -17.666 10.5 -24.999s11.667 -14.166 20 -20.499s19.166 -13.5 32.499 -21.5zM274.002 407.998
c2.66699 -1.33301 1.16699 -3.50293 -4.5 -6.50293s-13 -6 -22 -9s-18 -5.66699 -27 -8s-15.833 -3.5 -20.5 -3.5c-20 -1.33301 -32.5 2.66699 -37.5 12s-7 19.833 -6 31.5s2.16699 22.334 3.5 32.001s-1.66699 14.167 -9 13.5c9.33301 2.66699 18.666 5.16699 27.999 7.5
s18.333 5.5 27 9.5c4 1.33301 7.83301 2.83301 11.5 4.5s7.83398 2.83398 12.501 3.50098c13.333 0.666992 21 -2.33301 23 -9s2.5 -14.667 1.5 -24s-1 -19.166 0 -29.499s7.5 -18.5 19.5 -24.5zM420.002 421.995c2.66699 -1.33301 1.16699 -3.50293 -4.5 -6.50293
s-13 -6 -22 -9s-18 -5.66699 -27 -8s-15.833 -3.5 -20.5 -3.5c-20 -1.33301 -32.5 2.66699 -37.5 12s-7 19.833 -6 31.5s2.16699 22.334 3.5 32.001s-1.66699 14.167 -9 13.5c9.33301 2.66699 18.666 5.16699 27.999 7.5s18.333 5.5 27 9.5
c4 1.33301 7.83301 2.83301 11.5 4.5s7.83398 2.83398 12.501 3.50098c13.333 0.666992 21 -2.33301 23 -9s2.5 -14.667 1.5 -24s-1 -19.166 0 -29.499s7.5 -18.5 19.5 -24.5z" />
    <glyph glyph-name="Ohungarumlaut" unicode="&#x150;" horiz-adv-x="666" 
d="M508 638c1.33301 0 -0.999023 -1.33105 -6.99902 -3.99805s-13.333 -5.66699 -22 -9s-17.334 -6.5 -26.001 -9.5s-15 -4.5 -19 -4.5h-4c-15.333 0 -23 6.66699 -23 20c0 8.66699 2.66699 19.167 8 31.5s11.333 24.5 18 36.5l18 33c5.33301 10 8 17 8 21
c0 1.33301 -0.833008 3 -2.5 5s-3.16699 3 -4.5 3c4.66699 1.33301 8 2.66602 10 3.99902s4.16699 2.66602 6.5 3.99902s6.16602 3 11.499 5s14 4.66699 26 8c2.66699 0.666992 6.33398 1.5 11.001 2.5l14.5 3c5 1 9.66699 1.66699 14 2s7.5 0.5 9.5 0.5
c9.33301 0 14 -3 14 -9s-3.66699 -14.333 -11 -25l-24.5 -34c-9 -12 -17.167 -24 -24.5 -36s-11 -22.333 -11 -31c0 -7.33301 3.33301 -13 10 -17zM373.001 629.002c1.33301 0 -0.999023 -1.33105 -6.99902 -3.99805s-13.333 -5.66699 -22 -9s-17.334 -6.5 -26.001 -9.5
s-15 -4.5 -19 -4.5h-4c-15.333 0 -23 6.66699 -23 20c0 8.66699 2.66699 19.167 8 31.5s11.333 24.5 18 36.5l18 33c5.33301 10 8 17 8 21c0 1.33301 -0.833008 3 -2.5 5s-3.16699 3 -4.5 3c4.66699 1.33301 8 2.66602 10 3.99902s4.16699 2.66602 6.5 3.99902
s6.16602 3 11.499 5s14 4.66699 26 8c2.66699 0.666992 6.33398 1.5 11.001 2.5l14.5 3c5 1 9.66699 1.66699 14 2s7.5 0.5 9.5 0.5c9.33301 0 14 -3 14 -9s-3.66699 -14.333 -11 -25l-24.5 -34c-9 -12 -17.167 -24 -24.5 -36s-11 -22.333 -11 -31
c0 -7.33301 3.33301 -13 10 -17zM571.002 215.004c-19.333 -28.667 -39.4941 -54.168 -60.4941 -76.501s-44.333 -41.666 -70 -57.999s-54.334 -30 -86.001 -41s-67.834 -19.5 -108.501 -25.5c-31.333 -4.66699 -60.166 -5.16699 -86.499 -1.5s-49.333 12.334 -69 26.001
s-35.5 32.334 -47.5 56.001s-18.667 53.167 -20 88.5c-1.33301 32.667 2.66699 66.5 12 101.5s22.5 68.167 39.5 99.5s37.333 59.833 61 85.5s49.167 45.834 76.5 60.501c21.333 10 44.5 18.667 69.5 26s55.5 13.666 91.5 18.999c-28 -10 -52.833 -22.167 -74.5 -36.5
s-41.167 -30 -58.5 -47s-33 -35 -47 -54s-27.667 -38.5 -41 -58.5c-14.667 -24.667 -24.5 -49.334 -29.5 -74.001s-6.5 -50 -4.5 -76c2 -24 8.16699 -45.333 18.5 -64s23.166 -34.167 38.499 -46.5s32.5 -22 51.5 -29s37.5 -11.167 55.5 -12.5s38.167 2 60.5 10
s43.666 18.5 63.999 31.5s38.333 27.667 54 44s25.834 32.5 30.501 48.5c5.33301 15.333 10.166 30.666 14.499 45.999s7.5 30.666 9.5 45.999c2 18.667 1.16699 37.334 -2.5 56.001s-10.834 36.167 -21.501 52.5s-25.167 31.333 -43.5 45s-41.5 25.5 -69.5 35.5
c15.333 16.667 33.166 28.667 53.499 36s43.833 7.33301 70.5 0c27.333 -8 49.833 -22.833 67.5 -44.5s29.667 -47 36 -76s6.66602 -60.333 0.999023 -94s-17.5 -66.5 -35.5 -98.5z" />
    <glyph glyph-name="ohungarumlaut" unicode="&#x151;" horiz-adv-x="442" 
d="M372 422c1.33301 0 -0.999023 -1.33105 -6.99902 -3.99805s-13.333 -5.66699 -22 -9s-17.334 -6.5 -26.001 -9.5s-15 -4.5 -19 -4.5h-4c-15.333 0 -23 6.66699 -23 20c0 8.66699 2.66699 19.167 8 31.5s11.333 24.5 18 36.5l18 33c5.33301 10 8 17 8 21
c0 1.33301 -0.833008 3 -2.5 5s-3.16699 3 -4.5 3c4.66699 1.33301 8 2.66602 10 3.99902s4.16699 2.66602 6.5 3.99902s6.16602 3 11.499 5s14 4.66699 26 8c2.66699 0.666992 6.33398 1.5 11.001 2.5l14.5 3c5 1 9.66699 1.66699 14 2s7.5 0.5 9.5 0.5
c9.33301 0 14 -3 14 -9s-3.66699 -14.333 -11 -25l-24.5 -34c-9 -12 -17.167 -24 -24.5 -36s-11 -22.333 -11 -31c0 -7.33301 3.33301 -13 10 -17zM237.001 413.002c1.33301 0 -0.999023 -1.33105 -6.99902 -3.99805s-13.333 -5.66699 -22 -9s-17.334 -6.5 -26.001 -9.5
s-15 -4.5 -19 -4.5h-4c-15.333 0 -23 6.66699 -23 20c0 8.66699 2.66699 19.167 8 31.5s11.333 24.5 18 36.5l18 33c5.33301 10 8 17 8 21c0 1.33301 -0.833008 3 -2.5 5s-3.16699 3 -4.5 3c4.66699 1.33301 8 2.66602 10 3.99902s4.16699 2.66602 6.5 3.99902
s6.16602 3 11.499 5s14 4.66699 26 8c2.66699 0.666992 6.33398 1.5 11.001 2.5l14.5 3c5 1 9.66699 1.66699 14 2s7.5 0.5 9.5 0.5c9.33301 0 14 -3 14 -9s-3.66699 -14.333 -11 -25l-24.5 -34c-9 -12 -17.167 -24 -24.5 -36s-11 -22.333 -11 -31
c0 -7.33301 3.33301 -13 10 -17zM381.002 126.004c-20 -31.333 -45.3281 -53.8389 -75.9951 -67.5059s-62.667 -24.834 -96 -33.501c-6 -1.33301 -12.333 -2.66602 -19 -3.99902s-13.334 -3.66602 -20.001 -6.99902c-18.667 -8.66699 -36.834 -12.5 -54.501 -11.5
s-33.334 5.66699 -47.001 14s-24.834 20.333 -33.501 36s-13.334 33.834 -14.001 54.501c-1.33301 19.333 1.16699 39.166 7.5 59.499s15 39.833 26 58.5s24.333 35.5 40 50.5s32.5 26.5 50.5 34.5c14 6 28.667 11.333 44 16s31.666 8.66699 48.999 12
c-26.667 -12 -47.667 -28.333 -63 -49s-29.333 -42.667 -42 -66c-14 -28.667 -19.333 -58 -16 -88c1.33301 -11.333 4.5 -22.166 9.5 -32.499s11.167 -19.666 18.5 -27.999s15.333 -15.166 24 -20.499s17.334 -8.33301 26.001 -9s18.334 1.33301 29.001 6
s20.834 10.834 30.501 18.501s18.167 16.334 25.5 26.001s12.333 19.167 15 28.5l6 27c2 8.66699 3.33301 17.667 4 27c0.666992 11.333 0.166992 21.5 -1.5 30.5s-5 17.833 -10 26.5s-11.833 17.334 -20.5 26.001s-19.667 18 -33 28c8 2.66699 16 5.5 24 8.5l23.5 8.5
c7.66699 2.66699 15.5 4.33398 23.5 5.00098s16.333 0 25 -2c18 -4.66699 32.667 -13.334 44 -26.001s19.166 -27.5 23.499 -44.5s4.66602 -35.333 0.999023 -55s-11.5 -38.834 -23.5 -57.501z" />
    <glyph glyph-name="Uhungarumlaut" unicode="&#x170;" horiz-adv-x="590" 
d="M462 644c1.33301 0 -0.999023 -1.33105 -6.99902 -3.99805s-13.333 -5.66699 -22 -9s-17.334 -6.5 -26.001 -9.5s-15 -4.5 -19 -4.5h-4c-15.333 0 -23 6.66699 -23 20c0 8.66699 2.66699 19.167 8 31.5s11.333 24.5 18 36.5l18 33c5.33301 10 8 17 8 21
c0 1.33301 -0.833008 3 -2.5 5s-3.16699 3 -4.5 3c4.66699 1.33301 8 2.66602 10 3.99902s4.16699 2.66602 6.5 3.99902s6.16602 3 11.499 5s14 4.66699 26 8c2.66699 0.666992 6.33398 1.5 11.001 2.5l14.5 3c5 1 9.66699 1.66699 14 2s7.5 0.5 9.5 0.5
c9.33301 0 14 -3 14 -9s-3.66699 -14.333 -11 -25l-24.5 -34c-9 -12 -17.167 -24 -24.5 -36s-11 -22.333 -11 -31c0 -7.33301 3.33301 -13 10 -17zM327.001 635.002c1.33301 0 -0.999023 -1.33105 -6.99902 -3.99805s-13.333 -5.66699 -22 -9s-17.334 -6.5 -26.001 -9.5
s-15 -4.5 -19 -4.5h-4c-15.333 0 -23 6.66699 -23 20c0 8.66699 2.66699 19.167 8 31.5s11.333 24.5 18 36.5l18 33c5.33301 10 8 17 8 21c0 1.33301 -0.833008 3 -2.5 5s-3.16699 3 -4.5 3c4.66699 1.33301 8 2.66602 10 3.99902s4.16699 2.66602 6.5 3.99902
s6.16602 3 11.499 5s14 4.66699 26 8c2.66699 0.666992 6.33398 1.5 11.001 2.5l14.5 3c5 1 9.66699 1.66699 14 2s7.5 0.5 9.5 0.5c9.33301 0 14 -3 14 -9s-3.66699 -14.333 -11 -25l-24.5 -34c-9 -12 -17.167 -24 -24.5 -36s-11 -22.333 -11 -31
c0 -7.33301 3.33301 -13 10 -17zM363.002 147.004c0 21.333 1.16797 43.5 3.50098 66.5s5.33301 46.167 9 69.5s7.5 46.333 11.5 69s8 44 12 64c6 33.333 13 60 21 80s17.5 35.167 28.5 45.5s24 17.166 39 20.499s32.5 5 52.5 5c3.33301 0 6 -1 8 -3
c0 -4.66699 -1 -8 -3 -10c-12 -14 -22.167 -31.833 -30.5 -53.5s-15.333 -45.334 -21 -71.001s-10.334 -51.667 -14.001 -78s-6.33398 -51.166 -8.00098 -74.499s-2.83398 -43.666 -3.50098 -60.999s-1 -29.666 -1 -36.999c0 -40 6.33301 -71.167 19 -93.5
s34 -33.5 64 -33.5c4.66699 0 9.16699 0.333008 13.5 1s8.83301 1 13.5 1c2.66699 0 5.33398 -0.666992 8.00098 -2s4 -4 4 -8c0 -2.66699 -1.66699 -5 -5 -7s-5.66602 -4 -6.99902 -6c-15.333 -8.66699 -32.666 -16 -51.999 -22s-39.333 -9 -60 -9
c-11.333 0 -22.333 0.833008 -33 2.5s-20.334 5.16699 -29.001 10.5s-16.167 12.666 -22.5 21.999s-10.5 22 -12.5 38zM34.0029 520.004c17.333 14 37.668 25.002 61.001 33.002s44 12 62 12c13.333 0 22.666 -4.83301 27.999 -14.5s8 -24.834 8 -45.501
c0 -15.333 -2.33301 -29.666 -7 -42.999c-15.333 -44 -28.666 -90.167 -39.999 -138.5s-17 -95.5 -17 -141.5c0 -13.333 1.16699 -27.166 3.5 -41.499s6.33301 -27.333 12 -39s13 -21.334 22 -29.001s20.5 -11.5 34.5 -11.5c23.333 0 44.833 4.66699 64.5 14
s38.834 19.333 57.501 30c12 6.66699 18.5 10 19.5 10s0.166992 -1.33301 -2.5 -4l-9 -9c-3.33301 -3.33301 -3.66602 -5 -0.999023 -5c-3.33301 0 -7 -1.16699 -11 -3.5l-17 -9.5l-45 -25c-16 -8.66699 -32.333 -16.834 -49 -24.501s-33.334 -13.834 -50.001 -18.501
s-32 -7 -46 -7c-23.333 0 -42.833 11.167 -58.5 33.5s-23.5 52.833 -23.5 91.5c0 4 0.166992 7.83301 0.5 11.5s0.833008 7.5 1.5 11.5c5.33301 43.333 12.166 85 20.499 125s18.166 81.333 29.499 124c3.33301 12 5 27.333 5 46c0 8.66699 -0.5 17.167 -1.5 25.5
s-3 15.833 -6 22.5s-6.83301 12.167 -11.5 16.5s-10.667 6.5 -18 6.5c-4.66699 0 -10 -1 -16 -3z" />
    <glyph glyph-name="uhungarumlaut" unicode="&#x171;" horiz-adv-x="472" 
d="M372 422c1.33301 0 -0.999023 -1.33105 -6.99902 -3.99805s-13.333 -5.66699 -22 -9s-17.334 -6.5 -26.001 -9.5s-15 -4.5 -19 -4.5h-4c-15.333 0 -23 6.66699 -23 20c0 8.66699 2.66699 19.167 8 31.5s11.333 24.5 18 36.5l18 33c5.33301 10 8 17 8 21
c0 1.33301 -0.833008 3 -2.5 5s-3.16699 3 -4.5 3c4.66699 1.33301 8 2.66602 10 3.99902s4.16699 2.66602 6.5 3.99902s6.16602 3 11.499 5s14 4.66699 26 8c2.66699 0.666992 6.33398 1.5 11.001 2.5l14.5 3c5 1 9.66699 1.66699 14 2s7.5 0.5 9.5 0.5
c9.33301 0 14 -3 14 -9s-3.66699 -14.333 -11 -25l-24.5 -34c-9 -12 -17.167 -24 -24.5 -36s-11 -22.333 -11 -31c0 -7.33301 3.33301 -13 10 -17zM237.001 413.002c1.33301 0 -0.999023 -1.33105 -6.99902 -3.99805s-13.333 -5.66699 -22 -9s-17.334 -6.5 -26.001 -9.5
s-15 -4.5 -19 -4.5h-4c-15.333 0 -23 6.66699 -23 20c0 8.66699 2.66699 19.167 8 31.5s11.333 24.5 18 36.5l18 33c5.33301 10 8 17 8 21c0 1.33301 -0.833008 3 -2.5 5s-3.16699 3 -4.5 3c4.66699 1.33301 8 2.66602 10 3.99902s4.16699 2.66602 6.5 3.99902
s6.16602 3 11.499 5s14 4.66699 26 8c2.66699 0.666992 6.33398 1.5 11.001 2.5l14.5 3c5 1 9.66699 1.66699 14 2s7.5 0.5 9.5 0.5c9.33301 0 14 -3 14 -9s-3.66699 -14.333 -11 -25l-24.5 -34c-9 -12 -17.167 -24 -24.5 -36s-11 -22.333 -11 -31
c0 -7.33301 3.33301 -13 10 -17zM444.002 40.0039c-41.333 -31.333 -74.332 -46.999 -98.999 -46.999c-26.667 0 -45.334 18 -56.001 54c-11.333 -5.33301 -21.166 -9.16602 -29.499 -11.499s-11.833 -3.5 -10.5 -3.5c-5.33301 0 -11 -1.33301 -17 -4l-4 2l-7 5
c0 1.33301 -0.666992 2 -2 2c-0.666992 1.33301 -1 2.66602 -1 3.99902s0.333008 2.83301 1 4.5s2 3.16699 4 4.5c24 15.333 41.5 41.666 52.5 78.999s21.833 84.666 32.5 141.999c3.33301 16.667 12.833 29.834 28.5 39.501s31.834 14.5 48.501 14.5c10 0 19 -2 27 -6
c6.66699 -3.33301 11 -7 13 -11s3 -8.33301 3 -13c0 -3.33301 -0.333008 -7 -1 -11s-1.33398 -7.66699 -2.00098 -11c-4.66699 -28.667 -10.834 -56.667 -18.501 -84s-11.5 -55.333 -11.5 -84c0 -12.667 3.33301 -24.5 10 -35.5s19.667 -20.833 39 -29.5zM199.003 34.0049
c-4.66699 -5.33301 -9.66602 -9.33594 -14.999 -12.0029s-10.833 -4.83398 -16.5 -6.50098l-16.5 -5c-5.33301 -1.66699 -10.333 -4.16699 -15 -7.5c-3.33301 -0.666992 -6.33301 -1.16699 -9 -1.5s-5.33398 -0.5 -8.00098 -0.5c-19.333 0 -35.166 5.33301 -47.499 16
l-38.5 35c-4 13.333 -6.83301 25.833 -8.5 37.5s-0.833984 27.5 2.49902 47.5c2.66699 14.667 6.16699 29.334 10.5 44.001s8 29.167 11 43.5s4.66699 28.666 5 42.999s-1.83398 28.5 -6.50098 42.5c-0.666992 2 2.83301 4.83301 10.5 8.5s17 7.33398 28 11.001
s22.167 6.66699 33.5 9s20.333 3.5 27 3.5c4 0 6.66699 -0.333008 8 -1c11.333 -5.33301 17 -12.666 17 -21.999c0 -4.66699 -1.16699 -9.83398 -3.5 -15.501s-4.16602 -11.167 -5.49902 -16.5c-3.33301 -16.667 -8 -34.5 -14 -53.5s-9.66699 -36.833 -11 -53.5
c0 -2 -0.333008 -5.16699 -1 -9.5s-1.16699 -8.83301 -1.5 -13.5s-0.666016 -9 -0.999023 -13s-0.5 -7 -0.5 -9c0 -13.333 1 -24.666 3 -33.999s5.5 -17.666 10.5 -24.999s11.667 -14.166 20 -20.499s19.166 -13.5 32.499 -21.5z" />
    <glyph glyph-name="glyph14" horiz-adv-x="0" 
 />
    <glyph glyph-name="hungarumlaut" horiz-adv-x="500" 
d="M372 422c1.33301 0 -0.999023 -1.33105 -6.99902 -3.99805s-13.333 -5.66699 -22 -9s-17.334 -6.5 -26.001 -9.5s-15 -4.5 -19 -4.5h-4c-15.333 0 -23 6.66699 -23 20c0 8.66699 2.66699 19.167 8 31.5s11.333 24.5 18 36.5l18 33c5.33301 10 8 17 8 21
c0 1.33301 -0.833008 3 -2.5 5s-3.16699 3 -4.5 3c4.66699 1.33301 8 2.66602 10 3.99902s4.16699 2.66602 6.5 3.99902s6.16602 3 11.499 5s14 4.66699 26 8c2.66699 0.666992 6.33398 1.5 11.001 2.5l14.5 3c5 1 9.66699 1.66699 14 2s7.5 0.5 9.5 0.5
c9.33301 0 14 -3 14 -9s-3.66699 -14.333 -11 -25l-24.5 -34c-9 -12 -17.167 -24 -24.5 -36s-11 -22.333 -11 -31c0 -7.33301 3.33301 -13 10 -17zM237.001 413.002c1.33301 0 -0.999023 -1.33105 -6.99902 -3.99805s-13.333 -5.66699 -22 -9s-17.334 -6.5 -26.001 -9.5
s-15 -4.5 -19 -4.5h-4c-15.333 0 -23 6.66699 -23 20c0 8.66699 2.66699 19.167 8 31.5s11.333 24.5 18 36.5l18 33c5.33301 10 8 17 8 21c0 1.33301 -0.833008 3 -2.5 5s-3.16699 3 -4.5 3c4.66699 1.33301 8 2.66602 10 3.99902s4.16699 2.66602 6.5 3.99902
s6.16602 3 11.499 5s14 4.66699 26 8c2.66699 0.666992 6.33398 1.5 11.001 2.5l14.5 3c5 1 9.66699 1.66699 14 2s7.5 0.5 9.5 0.5c9.33301 0 14 -3 14 -9s-3.66699 -14.333 -11 -25l-24.5 -34c-9 -12 -17.167 -24 -24.5 -36s-11 -22.333 -11 -31
c0 -7.33301 3.33301 -13 10 -17z" />
    </font>
</defs>
</svg>
